<svg xmlns="http://www.w3.org/2000/svg" viewBox="-19.515105493164057 43 614.0299987792969 471.75999450683594"><rect height="100%" width="100%" x="-19.515105493164057" y="43" fill="rgba(168, 117, 177, 1)"/> <svg xmlns="http://www.w3.org/2000/svg" xmlns:xlink="http://www.w3.org/1999/xlink" version="1.1" id="Layer_1" x="195.502" y="170" viewBox="484.3321838378906 630.7567749023438 4031.336181640625 3738.35888671875" xml:space="preserve" height="170.62428490388615" width="183.99607849121094" preserveAspectRatio="xMinYMin" enable-background="new 0 0 5000 5000" style="overflow: visible;"><g id="Layer_1_00000159447727301650706870000000167593784756658067_" style=""></g><g id="Boy_brown" style=""></g><g id="Boy_blue" style=""></g><g id="Girl_brown" style=""></g><g id="Girl_pink" style=""></g><path d="M1453.4,2516.4c-6.3-31.4-10.1-63.1-13.2-94.9c-11.5-117.9-84.2-256.9-141.5-346.4c-69.8-109.1-147.8-212.2-239.6-303.9     c-71.8-71.8-181-176.3-294.5-126.2c-95.9,42.4-169,183.3-203.9,275.8c-60.8,160.9-84,335.4-74.2,507.2     c9.1,160.1,25.1,322.6,131.8,450.6c100,119.9,215.3,182,361.9,225.3c131.9,39,309.3,69.4,418.1-35.7     c78.8-76.2,64.4-252.1,64.4-356.3C1462.6,2652.7,1466.9,2584.2,1453.4,2516.4z" style="fill: #ffffff;"></path><path d="M2355,1110.3c1.6-70.1-20.3-150.6-46.1-215.7c-26-65.7-53.3-152.2-109.5-198.7c-107.6-88.9-276.6-81.2-388.7-10.8     c-136.1,85.5-319.2,220-383.2,373.7c-15.5,37.2-29.9,75.5-41.6,114.5c-26.6,88.6-35.7,189-34.9,282c2.3,279.5,35.8,586,303.7,743     c137.9,80.8,360.7,86.8,488.3-15.5c134.1-107.6,209.7-328.9,234.7-491.8c15.3-99.8,18.8-201.3,13.8-302.1     C2386.9,1297.9,2353,1199.5,2355,1110.3z" style="fill: #ffffff;"></path><path d="M3546.6,2516.4c6.3-31.4,10.1-63.1,13.2-94.9c11.5-117.9,84.2-256.9,141.5-346.4c69.8-109.1,147.8-212.2,239.6-303.9     c71.8-71.8,181-176.3,294.5-126.2c95.9,42.4,169,183.3,203.9,275.8c60.8,160.9,84,335.4,74.2,507.2     c-9.1,160.1-25.1,322.6-131.8,450.6c-100,119.9-215.3,182-361.9,225.3c-131.9,39-309.3,69.4-418.1-35.7     c-78.8-76.2-64.4-252.1-64.4-356.3C3537.4,2652.7,3533.1,2584.2,3546.6,2516.4z" style="fill: #ffffff;"></path><path d="M2630.8,1107c14.5-61.3,33.3-121.8,50.9-182.4c22.4-77.3,54.6-175.5,118.9-228.7c107.6-88.9,276.6-81.2,388.7-10.8     c136.1,85.5,319.2,220,383.2,373.7c15.5,37.2,29.9,75.5,41.6,114.5c26.6,88.6,35.7,189,34.9,282c-2.3,279.5-35.8,586-303.7,743     c-137.9,80.8-360.7,86.8-488.3-15.5c-134.1-107.6-209.7-328.9-234.7-491.8c-22.8-148.7-27.8-299.5-14.2-450.8     C2612.2,1195,2620.4,1150.8,2630.8,1107z" style="fill: #ffffff;"></path><path d="M3706.4,3506.3c-40.4-160.2-112.1-285.5-228.3-402.8c-109-110-229.5-216-321.8-340.9c-51.2-69.4-87.3-149.1-142.2-215.6    c-44-53.3-99.5-103.6-151.5-149.4c-79.8-70.2-204.9-112.6-317.7-124.9c-13.7-1.5-27.5-2.2-41.3-2.2h-7c-13.9,0-27.8,0.7-41.6,2.2    c-112.7,12.4-237.8,54.6-317.6,124.9c-52,45.9-107.5,96.1-151.5,149.4c-54.9,66.5-91,146.2-142.2,215.6    c-92.3,124.9-212.8,230.9-321.8,340.9c-116.1,117.3-187.9,242.5-228.3,402.8c-54.1,214.6-22.9,477.9,145.8,636.3    c157.8,148.2,354.9,256.2,576.7,219.2c66.9-11.1,128.6-39.1,192-60.4c60.2-20.2,113.5-26.7,173.8-43.6c37-10.4,81.1-9,118.1-12.4    c37,3.4,73,9.9,109.9,20.3c60.3,16.9,121.8,15.5,182,35.7c63.4,21.3,125.1,49.3,192,60.4c221.8,36.9,418.9-71,576.7-219.2    C3729.3,3984.2,3760.5,3720.9,3706.4,3506.3z" style="fill: #ffffff;"></path><path class="st0" d="M2558.3,2761.3c-0.3-0.6-0.5-1.1-0.6-1.6c36.8-14.2,75.5-23.7,114.7-28.1c0.2,0,0.4,0,0.6,0    c0.1,0,0.2-0.1,0.3-0.1c26-2.9,52.2-3.7,78.3-2.1c26.1,1.6,52,5.4,77.5,11.5c4.8,1.2,6.7-6.3,1.9-7.5c-21-5-42.3-8.4-63.7-10.4    c-2.1-0.8-4.1-1.7-6.2-2.5c-15-6.5-30.3-9.7-44.5-18.9c-18.4-11.9-31.4-27.7-45.7-43.9c-15.7-17.7-33-33-51.4-48    c-18.8-15.3-39.6-26.6-62.8-34.2c-24.1-7.8-50-12.7-72.6-24.1c5.1,3.8,9,8.9,13.2,14.2c19.7,24.6,38.2,46.8,62.3,67.2    c32.7,27.6,67.8,54.4,108.7,68.5c21.6,7.4,44.1,13.7,66.2,19.8c-21-0.5-42.1,0.4-63,2.8c-42.8,2.5-85.7-1.8-127.4-11.4    c-12.8-7-24.4-19.3-34.8-28.9c-26.5-24.5-52.1-50.8-80.3-73.6c-19.7-15.9-38.9-27.2-63.4-32.4c-23.2-4.9-47.7-5.9-70.3-12.4    c21.9,39.4,55.2,79.1,92.7,104.5c28.7,19.5,58.8,35.9,93.5,40.7c16.1,2.2,33.7,5.5,50.8,7.2c30.1,7.6,61,12.4,92,14    c-23.7,5.1-47,12.1-69.6,20.8c-7.3,2.8-14.5,5.9-21.7,9.1c-26.8,9-52.6,17.2-82.4,11.9c-35.6-6.4-64-27.6-101.1-31.2    c-19.7-1.9-40.2-2.2-59,4.6c-14.9,5.4-24.7,17-37,24.7c35.7,34.5,111.2,48.6,158.9,38.1c-23.2,10.3-49.7,25.6-68.8,42.8    c-22.9,20.6-33.6,50.3-53.8,72.4c13.1-4,27.5-1.1,41-4.2c33-7.6,62.7-28.6,86.9-51.3c25.4-23.8,47.6-49.4,76.1-70.2    c7.8-5.7,19.8-17.1,32.5-25.9c9.1-4.3,18.3-8.4,27.7-12.1C2555.4,2761.1,2556.8,2761.1,2558.3,2761.3z" style="fill: #a875b1;"></path><path class="st0" d="M2885.4,1553.7c20.7-6.1,40.9-13.7,60.5-22.6c2.2-0.3,4.4-0.6,6.7-0.9c16.2-1.8,31.1-6.6,48-5.7    c21.9,1.2,41,8.5,61.5,15.4c22.4,7.6,45.1,12.3,68.4,16.2c23.9,4,47.6,3.5,71.5-1.5c24.8-5.2,49.7-13.8,75-15.1    c-6.3-0.8-12.2-3.3-18.5-5.8c-29.3-11.6-56.4-21.7-87.4-27.4c-42-7.8-85.9-13.6-128.4-5.5c-22.4,4.2-45,10-67.3,15.7    c18.5-10,36.3-21.3,53.3-33.7c35.9-23.4,75.3-40.9,116.3-53.3c14.6-0.2,30.8,4.7,44.6,7.9c35.2,8.1,70.4,18.3,106.2,24.1    c25,4,47.2,4.3,71.1-3.3c22.6-7.2,44.4-18.5,67.2-24.1c-38.5-23.4-87.2-41.3-132.3-44.8c-34.6-2.7-68.9-2-101.4,11.1    c-15.1,6-32,12-47.7,18.9c-29.9,8.3-59.1,19.5-86.8,33.5c18-16.2,34.8-33.8,50.1-52.6c4.9-6.1,9.7-12.3,14.3-18.7    c18.8-21,37.1-41,65.7-51.2c34.1-12.1,69.3-7.8,103.3-23.1c18-8.1,36-18.1,48.9-33.3c10.3-12.1,13-27,19.9-39.8    c-48.1-12.2-120.6,13-156.9,45.8c15-20.4,30.5-46.9,38.5-71.3c9.6-29.2,4.3-60.3,10.8-89.6c-9.4,10-23.4,14.6-33.6,24    c-24.9,23-40.2,55.9-50,87.6c-10.3,33.3-16.8,66.5-31.3,98.7c-4,8.9-8.7,24.6-15.4,38.6c-5.8,8.3-11.8,16.4-18.1,24.2l-2.5,3.1    c-24.9,30.6-53.8,58-85.7,81.4c-0.2,0.1-0.3,0.2-0.5,0.3c-0.1,0.1-0.1,0.1-0.2,0.2c-21.1,15.4-43.5,29.1-67,40.7    s-47.9,21.1-73,28.5C2878.6,1547.7,2880.7,1555.1,2885.4,1553.7z" style="fill: #a875b1;"></path><path class="st0" d="M2230.3,3928.7c-8.2,0.5-16.4,0.9-24.6,1.1c-9.7-3-19.3-5.1-28.4-11.3c-23-15.5-43.6-37.5-62-58.5    c-31.2-35.6-48.9-78.5-68.5-122.2c-27.2-60.5-77.8-94.1-116.7-144.7c17.1,52.2,22.2,109.4,52.5,156.9    c32.9,51.6,79.5,91.2,125.8,129.9c17.1,14.3,48.5,45.3,74.5,49.8c-11.7-0.3-23.4-1.2-35.1-3.1c-25.6-4.1-50.7-11.6-74.3-22.2    c-48.2-21.7-87.1-56.1-119.3-97.6c-20.3-26.2-38.2-54.1-57.1-81.3c-24-36.4-46.2-73.9-64.4-113.5c-2.8-6.1-5.4-12.3-8-18.4    c0.3-19.5,7.3-38,15.7-57.4c15.1-34.6,27.4-83.3,30.5-120.8c3.9-45.8-8.8-87.9,10-131.9c-32.9,33.4-55.7,75.6-63.2,123    c-8.6,54.1,2.9,110.1-2.1,164.4c-18.8-50.1-31-102.6-34.7-156.1c-1-13.9-1.3-27.8-1.3-41.7c0.4-1,0.9-1.9,1.4-2.9    c11.2-21,19.2-43.8,29.3-65.3c7.8-16.6,17.8-32.4,24.8-49.4c5.8-14,7.3-27.7,10-42.4c3.7-20.5,8.4-38.4,4.6-59.4    c-2.2-11.7-7.5-23.3-8.6-35.2c-6.8,17.7-21.9,34.2-31.3,51.2c-12.6,22.7-25,46-36.1,69.5c-13.1,27.7-18.8,55-14.4,85.1    c2.6,17.2,11.1,35.9,12.9,53.7c0.2,42.1,4.7,84.2,14.5,125.5c-2.3-3-4.6-6-6.2-9.3c-6.3-13-10.1-29.2-13.4-43.1    c-9-38-24.6-75.8-43.1-110.1c-11.7-21.7-21-46.5-35.4-66.6c-8.7-12.2-34.9-36.8-50.7-36.6c7.3,10.1,12.9,22.5,18,33.8    c14,31.3,28.9,62.1,43.2,93.3c14.5,31.7,32.2,61.7,47.8,92.8c11.1,22.1,25.6,48.4,45,65.7c14.1,50.7,35.2,99,60.9,144.9    c-18-20.2-38.3-38.7-61-53.1c-0.3-0.4-0.6-0.8-0.9-1.1c-13.7-17.2-32.8-29-50.4-41.8c-31.8-23.2-64.5-49.9-101.9-63.6    c-49.6-18-124.3-24.5-162.7,18.6c11.8,4.3,25,5.3,37.4,7.2c44.4,6.5,86.8,18.8,129.5,32.4c32.9,10.5,70.8,27.6,104.2,35.1    c63.9,21.2,106.6,74.8,144.9,130c8,12.1,16.2,24,24.6,35.9l0,0c8.2,11.9,16.3,23.7,24.7,34.8c11.8,15.8,24.5,30.8,38.1,44.7    c-15.6-9.4-31.8-18-48.3-25.7c-5.6-3.1-11.1-6.2-16.5-9.8c-17.2-11.3-28-31.6-44.6-44.2c-13.4-10.2-25.5-21.9-37.9-33.3    c-21.9-20.2-47-36.7-69.6-56c-19.7-16.8-37.6-32.6-59.9-45.8c-25.8-15.3-54.2-17.4-81.7-27.4c9,13,20.5,25.9,30.7,38.4    c12,14.8,25.5,26,40.4,37.8c19.1,15,40.6,21.4,62.3,31.4c34.5,15.9,65.6,36,97.6,56.4c21,13.4,39.4,29.5,59.4,43.8    c-16.9-7-34.2-13.2-51.8-18.4c-26.3-18.2-61.3-22.7-91.4-33c-17.5-6-33.3-11.8-52-12.6c-22.3-1-43.8,0.7-65.7,4.7    c-41.5,7.6-81.7,19-121.8,31.7c-18.5,5.9-44.3,15.2-62.9,15.2c54,12.7,109.8,41.4,166.7,37.1c51.4-3.9,100.4-17.9,151.5-24.5    c28.1-3.7,59.6-10.2,88.5-5.6c22.8,7.7,45.3,16.9,66.9,27.4c-26.6-4.4-53.2-5.1-80.2-7.2c-39.8-3.1-74.9,1.9-113.5,10.9    c-29.4,6.8-56.8,21.2-85.1,31.5c-11.5,4.2-22.9,11-35.1,12.8c5.1,2.6,11,2,16.6,2.3c20.9,1.3,41.4,1.5,62.3,1.7    c28.4,0.4,58,4.5,86-1c18.9-3.7,38.7-7.2,57.3-12.4c16.2-4.5,30.5-13.4,47.2-17.1c18.9-4.1,36.2-12.1,55.6-11    c7.8,0.4,12.7,3.2,19.6,5.5c17,9.5,33.2,19.8,48.4,30.6c1.3,0.9,2.5,1.8,3.8,2.7c1.4,1,2.9,2.1,4.3,3.1c0.4,0.3,0.5,0.3,0.7,0.3    c8,5.4,16.1,10.5,24.8,15.2c34.7,18.5,73,30,112,33.9c-45.7,5.4-92.6,19.8-132.8,42.2c-29.2,16.3-60,35.3-81.8,61.2    c-11.3,13.4-23.9,32.2-38.5,44.1c13.6-8.2,33.1-11.6,47.1-15.9c28.9-9,57.2-17.4,83.1-33.6c24.2-15.2,46.5-32.3,69.4-49.3    c13.2-9.8,27.2-21.4,43-26.3c20.6-6.4,41.9-11.2,62.4-17.1c8.6-2.5,16.4-5.4,25.1-6c0.2,0,0.3,0,0.5,0c3.3-0.2,6.6,0,10.2-0.5    c42.2-1.9,85,0.4,115.7,31.9c3.5,3.6,8.9-1.9,5.5-5.5C2335.8,3923.6,2279.2,3925.7,2230.3,3928.7z" style="fill: #a875b1;"></path><path class="st0" d="M3323.2,3703.4c-36.9,27.5-69.3,64.3-93,103.7c12.6-37.2,17.8-76.8,15.2-116.1c-0.7-11.2-2.3-22.1-4.3-32.9    c0-0.2,0.1-0.3,0-0.5c-4.1-21.6-7.1-44.4-8.9-67.7c0.3-5.1,0.5-9.6,2.7-15.2c7-18.1,21.4-30.6,32.9-46.1    c10.2-13.7,24.2-23,34.9-36c12.4-14.8,23.7-31.4,34.8-47.1c16.5-23.3,24.9-51.9,36.3-78c8.4-19.2,16.7-37.9,24.1-57.5    c2-5.3,4.9-10.3,4.7-16.1c-6.6,10.4-17.5,18-26.1,26.8c-21,21.5-45.4,40.6-63.7,64.6c-24,31.5-43,61.5-56.6,99    c-8.9,24.7-18.8,48.6-25.7,73.8c-0.6-24.2,0.2-48.7,2.6-72.9c8.1-27.2,26.3-52.2,40.7-75.5c27-43.8,59.9-82.7,84.6-128    c27.4-50.1,24.1-112.7,34.7-167.2c-7.6,16.9-26.7,36.6-39.7,51.1c-28,31.4-55,63.3-78.9,98c-12.6,18.3-23,37.2-31.3,58    c-6.9,17.4-8.1,34.1-9.8,52.6c-3,31.6-13.2,65.4-7.5,96.9c-2.5,18-4,36.1-4.5,54.3c-4.7-23.9-12-47.2-15.5-71.6    c-5.4-37.5-11-74.2-11.3-112.2c-0.2-23.9,2.8-46.1-3-69.7c-4.6-18.5-9.3-35.3-17.9-52.4c-7.3-14.5-14.3-30.3-22.4-43.8    c-2.2,29.2-11.9,56-8.6,85.8c2.9,25.8,9.9,48.6,17.1,73.5c8.3,28.6,13.1,58.3,22.5,86.5c5.3,16,10.9,31.8,14.8,48.2    c4.7,20.3,18.7,38.5,22,58.8c1,6.3,1.6,12.7,2.1,19c0.2,18.2,1.4,36.5,3.6,54.6c-7-18.2-15.5-35.9-25.1-53.1    c-6.7-12.2-14.1-24.4-21.6-36.8c0,0,0,0,0-0.1c-7.4-12.5-14.9-24.9-22.6-37.1c-31.7-52.8-60.6-108.4-59.9-168.8    c1-7.5,2.2-14.8,2.9-21.2c4.1-34.4,7.4-68.9,11.4-103.4c5.1-44.5,11.4-88.2,23.7-131.3c3.4-12.1,7.9-24.6,8.8-37.1    c-55.1,17.2-79.9,88-83.8,140.7c-3,39.7,8,80.5,16.1,119c4,19.3,6.9,39.3,14.8,57.4c3.4,28.5,12.4,56.5,24.1,82.9    c-29-39.2-61.6-75.8-98.5-107.8c-16.8-26.5-31.4-57.8-39.4-90.2c-10.7-43.2-12.2-86.4-28.2-128.9c-8.2-21.8-18.7-42.6-34.1-60.1    c-19.2-21.9-42.3-38.6-59.7-61.9c8.6,19.7,7.8,48,10,69c3.8,36.9,12.7,70.5,28.9,104.3c20.3,42.5,41.2,90.8,71.4,128.7    c-25.8-17.4-52.9-32.5-81.1-45.4c-5.9-3.7-11.6-8.1-17.3-12.5c-29.4-22.9-64.6-46.7-99-61.1c-66.6-27.8-134.5-38.4-206-43.1    c12.1,25.9,39.7,51.8,62.5,69.2c20,15.2,43.4,27.2,67.7,34c14.7,4.1,30.2,5.6,44,12.6c-38.3,12.2-76.3,23.7-103.5,54.5    c31.8,22.6,103,1.5,136.3-9.1c31.4-10,59.2-22,91.3-29.1c22.3-4.9,35.6,1,52.5,7c0.3,0.2,0.6,0.3,0.9,0.5    c26.3,14.1,51.1,30.6,74.6,48.9c0.1,0.4,0.2,0.9,0.4,1.3c-18.1-3.8-42.4-0.3-56.5-0.1c-47.1,0.7-101.3,12.9-146.6,26.1    c-39.1,11.4-78.1,32.1-112.6,53.3c83,45.6,181.2,6.4,258.7-30.1c28.7-13.5,65.1-27.1,96.1-16.9c15.5,14.5,30.4,29.7,44.4,45.8    c28.6,32.9,53.7,68.6,77,105.4c9.1,15.1,18.4,30,27.5,45.1c-0.6-0.2-1.1-0.5-1.8-0.6c-18.5-12.4-43.7-17.7-65.3-20.9    c-47.1-7-95.4-8.9-142.9-12.6c-44.3-3.5-93.2-3.3-135.6,11.8c-20.7,7.4-39.7,20.6-60.7,26.9c89.5,48.8,206,28.1,298.4-0.4    c41.5-12.8,85.2-10.1,119,15c4.1,7.1,8.1,14.1,11.9,21.3c24.6,46.4,39.9,96,39.9,148.9c0,25.9-3.5,51.8-10.3,76.8    c-7.3,26.8-19.2,51.4-32.1,75.9c-11.7,22.2-24,46.4-30.6,71.3c-4.3-10.4-11.4-20.4-14.5-31.2c-11.4-39.7-8.6-82.4-7.7-123.1    c0.7-32.9-6.8-55.2-22.2-83.6c-8.7-15.9-15.5-32.5-28.3-45.5c-11-11.3-25-20-36.3-30.2c-0.9,19.3,2.8,37.8,3.9,57.1    c2.6,42.5,3.9,76.6,19.5,117.5c15.2,39.8,37.4,76.7,54.7,115.7c8.2,18.4,16.3,37.9,26,55.4c-0.2,7.4,0.3,14.9,1.7,22.3    c0.2,3.3,0.8,6.6,2.3,9.6v-0.3c0.8,2.9,1.8,5.8,2.9,8.7c1.8,4.6,9,1.9,7.2-2.7c-16.1-40.9-0.6-80.9,18.4-118.6    c1.9-3.1,3.1-6.2,4.7-9.1c0.1-0.1,0.1-0.3,0.2-0.4c4.2-7.7,10-13.6,15.8-20.4c13.8-16.3,26.9-33.8,41.2-49.9    c11-12.4,27.3-20.4,41.6-28.4c24.9-13.9,49.7-27.1,73.5-43c25.4-16.9,44.7-39.3,64.7-62c11.5-13,27.7-29.4,41.2-40.6    c-17.3,11.5-43.9,15.6-63.4,21.2C3380.1,3663.2,3350.1,3683.4,3323.2,3703.4z" style="fill: #a875b1;"></path><path class="st0" d="M2671.5,3373.1c0,0,0.1,0,0.1-0.1c-0.1,0-0.2-0.1-0.3-0.1C2670.6,3373.1,2670.7,3373.2,2671.5,3373.1z" style="fill: #a875b1;"></path><path class="st0" d="M3244.8,1975.7c5.5,4.4,12,7.7,19,8.2c7.7,0.6,15.4-2.4,21.4-7.2c5.9-4.8,10.3-11.7,10.9-19.3    c0.6-7.1-2.2-14.2-6.4-20c-10.8-15-31.4-22.2-49.2-17c6.4-6.6,12.8-13.2,17.8-20.8s8.7-16.5,8.8-25.6c0.1-4.1-0.6-8.4-3.2-11.6    c-3.2-4-8.5-5.6-13.5-6.5c-7.1-1.3-14.8-1.6-21.3,1.5c-7.4,3.5-12.3,11-14.6,18.8c-2,6.9-1.7,13.8-2.3,20.9    c-4.3-7.7-8-15.2-15.7-20.2c-8.1-5.3-19.6-6.2-27.1-0.1c-4.7,3.8-7.3,9.6-9.1,15.3c-1.1,3.3-2,6.7-1.6,10.1    c0.6,5.9,4.7,10.7,9.2,14.6c7.4,6.5,16.3,11.4,25.7,14.3c-5.6-0.8-11,1.9-15.8,4.8c-4.7,2.8-9.4,6.2-11.6,11.1    c-2.2,4.8-1.7,10.5-0.2,15.5c3,9.6,9.6,17.6,16.4,25c6,6.5,12.6,13.2,21.2,15.2c2.5,0.6,5.1,0.8,7.7,0.2c2.7-0.6,5.2-2.1,7.4-3.9    c10.9-8.9,14-24.6,11.8-38.5C3234.8,1965.9,3239.4,1971.3,3244.8,1975.7z" style="fill: #a875b1;"></path><path class="st0" d="M4238.9,2624.6c-2.2-1.3-4.8-1.9-7.3-2.1c-12.7-1-24.7,7.3-31.9,17.9c0.4-6.4,0.9-12.8,0-19.1    c-0.8-6.3-3.1-12.6-7.3-17.3c-4.7-5.2-11.6-8.1-18.6-8.7c-6.9-0.5-14.1,1.3-19.3,5.9c-4.9,4.3-7.5,10.7-8.4,17.2    c-2.4,16.7,6.7,34.3,21.6,42.1c-8.3,0.3-16.7,0.6-24.8,2.5c-8.1,1.9-16,5.4-21.9,11.3c-2.6,2.6-4.8,5.9-5.2,9.6    c-0.4,4.6,2.1,9,4.8,12.7c3.9,5.3,8.7,10.3,15,12.4c7.1,2.3,15,0.5,21.4-3.2c5.7-3.3,9.8-8,14.6-12.3c-2,7.8-4.2,15-2.3,23.1    c2,8.6,9,16.4,17.7,17.1c5.5,0.5,10.8-1.7,15.6-4.3c2.7-1.5,5.5-3.1,7.4-5.6c3.3-4.2,3.6-10,3.2-15.4c-0.8-8.9-3.5-17.7-7.9-25.5    c3.2,4,8.4,5.7,13.4,6.8c4.8,1.1,10,1.8,14.6,0c4.5-1.8,7.7-5.8,9.9-10.1c4.1-8.2,4.7-17.6,4.9-26.7c0.2-8,0-16.6-4.4-23.4    C4242.5,2627.6,4240.9,2625.8,4238.9,2624.6z" style="fill: #a875b1;"></path><path class="st0" d="M1988.9,1829.3c-8.3-0.1-16.7-0.3-24.9,1.3c-8.2,1.5-16.2,4.8-22.1,10.7c-6.5,6.5-9.8,15.7-10,24.8    c-0.2,9,2.6,18.3,9,24.7c6,6,14.5,9,22.9,9.7c21.9,1.9,44.3-11.1,53.4-31.1c1,10.8,1.9,21.7,4.9,32.2c3,10.4,8.1,20.5,16.2,27.8    c3.6,3.2,8,5.9,12.9,6.1c6,0.3,11.6-3.3,16.2-7.1c6.6-5.4,12.8-12.1,15.1-20.3c2.6-9.4-0.3-19.6-5.6-27.7    c-4.7-7.2-11.2-12.2-17-18.2c10.3,2.1,19.9,4.5,30.3,1.5c11-3.2,20.7-12.8,21.1-24.3c0.2-7.1-3-13.9-6.7-20    c-2.1-3.5-4.5-6.9-7.8-9.3c-5.7-4-13.3-4-20.3-3.1c-11.6,1.7-22.8,5.8-32.8,12.1c5-4.4,6.8-11.4,8-17.9c1.1-6.4,1.7-13.2-1-19.1    c-2.6-5.7-8.1-9.7-13.8-12.2c-10.9-4.7-23.3-5-35.2-4.6c-10.5,0.3-21.6,1.2-30.1,7.3c-2.5,1.8-4.7,4-6.1,6.7    c-1.6,2.9-2.2,6.3-2.3,9.7C1963,1805.6,1974.7,1820.6,1988.9,1829.3z" style="fill: #a875b1;"></path><path class="st0" d="M3864.4,2738.7c-5.7-4-13.3-4-20.3-3.1c-11.6,1.7-22.8,5.8-32.8,12.1c5-4.4,6.8-11.4,8-17.9    c1.1-6.4,1.7-13.2-1-19.1c-2.6-5.7-8.1-9.7-13.8-12.2c-10.9-4.7-23.3-5-35.2-4.6c-10.5,0.3-21.6,1.2-30.1,7.3    c-2.5,1.8-4.7,4-6.1,6.7c-1.6,2.9-2.2,6.3-2.3,9.7c-0.4,16.7,11.3,31.7,25.5,40.4c-8.3-0.1-16.7-0.3-24.9,1.3    c-8.2,1.5-16.2,4.8-22.1,10.7c-6.5,6.5-9.8,15.7-10,24.8c-0.2,9,2.6,18.3,9,24.7c6,6,14.5,9,22.9,9.7    c21.9,1.9,44.3-11.1,53.4-31.1c1,10.8,1.9,21.7,4.9,32.2c3,10.4,8.1,20.5,16.2,27.8c3.6,3.2,8,5.9,12.9,6.1    c6,0.3,11.6-3.3,16.2-7.1c6.6-5.4,12.8-12.1,15.1-20.3c2.6-9.4-0.3-19.6-5.6-27.7c-4.7-7.2-11.2-12.2-17-18.2    c10.3,2.1,19.9,4.5,30.3,1.5c11-3.2,20.7-12.8,21.1-24.3c0.3-7.1-3-13.9-6.7-20C3870.1,2744.5,3867.7,2741,3864.4,2738.7z" style="fill: #a875b1;"></path><path class="st0" d="M2971.9,924.2c21.9,1.9,44.3-11.1,53.4-31.1c1,10.8,1.9,21.7,4.9,32.2c3,10.4,8.1,20.5,16.2,27.8    c3.6,3.2,8,5.9,12.9,6.1c6,0.3,11.6-3.3,16.2-7.1c6.6-5.4,12.8-12.1,15.1-20.3c2.6-9.4-0.3-19.6-5.6-27.7    c-4.7-7.2-11.2-12.2-17-18.2c10.3,2.1,19.9,4.5,30.3,1.5c11-3.2,20.7-12.8,21.1-24.3c0.2-7.1-3-13.9-6.7-20    c-2.1-3.5-4.5-6.9-7.8-9.3c-5.7-4-13.3-4-20.3-3.1c-11.6,1.7-22.8,5.8-32.8,12.1c5-4.4,6.8-11.4,8-17.9c1.1-6.4,1.7-13.2-1-19.1    c-2.6-5.7-8.1-9.7-13.8-12.2c-10.9-4.7-23.3-5-35.2-4.6c-10.5,0.3-21.6,1.2-30.1,7.3c-2.5,1.8-4.7,4-6.1,6.7    c-1.6,2.9-2.2,6.3-2.3,9.7c-0.4,16.7,11.3,31.7,25.5,40.4c-8.3-0.1-16.7-0.3-24.9,1.3c-8.2,1.5-16.2,4.8-22.1,10.7    c-6.5,6.5-9.8,15.7-10,24.8c-0.2,9,2.6,18.3,9,24.7C2954.9,920.5,2963.5,923.5,2971.9,924.2z" style="fill: #a875b1;"></path><path class="st0" d="M1646.3,1682c21.9,1.9,44.3-11.1,53.4-31.1c1,10.8,1.9,21.7,4.9,32.2c3,10.4,8.1,20.5,16.2,27.8    c3.6,3.2,8,5.9,12.9,6.1c6,0.3,11.6-3.3,16.2-7.1c6.6-5.4,12.8-12.1,15.1-20.3c2.6-9.4-0.3-19.6-5.6-27.7    c-4.7-7.2-11.2-12.2-17-18.2c10.3,2.1,19.9,4.5,30.3,1.5c11-3.2,20.7-12.8,21.1-24.3c0.2-7.1-3-13.9-6.7-20    c-2.1-3.5-4.5-6.9-7.8-9.3c-5.7-4-13.3-4-20.3-3.1c-11.6,1.7-22.8,5.8-32.8,12.1c5-4.4,6.8-11.4,8-17.9c1.1-6.4,1.7-13.2-1-19.1    c-2.6-5.7-8.1-9.7-13.8-12.2c-10.9-4.7-23.3-5-35.2-4.6c-10.5,0.3-21.6,1.2-30.1,7.3c-2.5,1.8-4.7,4-6.1,6.7    c-1.6,3-2.2,6.3-2.3,9.7c-0.4,16.7,11.3,31.7,25.5,40.4c-8.3-0.1-16.7-0.3-24.9,1.3c-8.2,1.5-16.2,4.8-22.1,10.7    c-6.5,6.5-9.8,15.7-10,24.8c-0.2,9,2.6,18.3,9,24.7C1629.3,1678.3,1637.8,1681.3,1646.3,1682z" style="fill: #a875b1;"></path><path class="st0" d="M2110.5,3091.1c4.3-0.3,8.9-1.1,12.3-3.8c3.3-2.7,5-6.9,5.7-11c1.3-7.9-0.6-16-2.8-23.7    c-1.9-6.8-4.3-13.9-9.8-18.5c-1.6-1.3-3.4-2.4-5.4-2.9c-2.2-0.5-4.5-0.4-6.7,0.1c-11,2.5-18.8,12.6-22.2,23.3    c-1.3-5.4-2.6-10.9-4.9-16s-5.8-9.8-10.7-12.6c-5.3-3.1-11.9-3.8-17.9-2.4c-5.9,1.3-11.5,4.7-14.7,9.9c-3,4.9-3.5,11-2.6,16.6    c2.3,14.6,14.6,27.1,29.1,29.7c-6.9,2.4-13.9,4.8-20.2,8.5c-6.3,3.7-12.1,8.7-15.4,15.2c-1.5,2.9-2.5,6.2-1.9,9.4    c0.8,4,4.1,7,7.3,9.4c4.6,3.4,10,6.4,15.8,6.5c6.5,0.1,12.7-3.4,17.2-8.2c3.9-4.2,6.1-9.3,9.1-14.1c0.3,7.1,0.3,13.7,4,20    c3.9,6.7,11.8,11.4,19.4,9.8c4.7-1,8.6-4.2,12-7.7c1.9-1.9,3.8-4.1,4.8-6.6c1.7-4.4,0.4-9.4-1.3-13.7c-3-7.3-7.6-14-13.3-19.4    C2101.2,3091.4,2106,3091.5,2110.5,3091.1z" style="fill: #a875b1;"></path><path class="st0" d="M2867.3,1876.6c4.6,3.4,10,6.4,15.8,6.5c6.5,0.1,12.7-3.4,17.2-8.2c3.9-4.2,6.1-9.3,9.1-14.1    c0.3,7.1,0.3,13.7,4,20c3.9,6.7,11.8,11.4,19.4,9.8c4.7-1,8.6-4.2,12-7.7c1.9-1.9,3.8-4.1,4.8-6.6c1.7-4.4,0.4-9.4-1.3-13.7    c-3-7.3-7.6-14-13.3-19.4c3.7,2.5,8.6,2.6,13,2.2c4.3-0.3,8.9-1.1,12.3-3.8c3.3-2.7,5-6.9,5.7-11c1.3-7.9-0.6-16-2.8-23.7    c-1.9-6.8-4.3-13.9-9.8-18.5c-1.6-1.3-3.4-2.4-5.4-2.9c-2.2-0.5-4.5-0.4-6.7,0.1c-11,2.5-18.8,12.6-22.2,23.3    c-1.3-5.4-2.6-10.9-4.9-16c-2.3-5.1-5.8-9.8-10.7-12.6c-5.3-3.1-11.9-3.8-17.9-2.4c-5.9,1.3-11.5,4.7-14.7,9.9    c-3,4.9-3.5,11-2.6,16.6c2.3,14.6,14.6,27.1,29.1,29.7c-6.9,2.4-13.9,4.8-20.2,8.5s-12.1,8.7-15.4,15.2c-1.5,2.9-2.5,6.2-1.9,9.4    C2860.8,1871.1,2864,1874.1,2867.3,1876.6z" style="fill: #a875b1;"></path><path class="st0" d="M2483.4,3402.3c-7.4-5.9-16.6-8.9-25.8-11.1c-16.6-4-33.7-5.8-50.8-5.3c12.2-7.3,26.2-10.9,39-16.8    c12.9-5.9,25.4-15.3,29.4-28.9c5.3-17.9-5.8-36.8-20.1-48.8c-5.3-4.5-11.3-8.4-18.1-9.7c-8.5-1.6-17.5,1.3-24.7,6.1    c-7.2,4.9-12.9,11.6-18.2,18.5c-10.5,13.6-20,28.5-23.3,45.3c-2.5-18.4-7-36.6-13.4-54.1c-3.7-10.3-9.4-21.6-20-24.6    c-6.1-1.7-12.7-0.2-18.7,2c-7.5,2.7-15,7-18.6,14.1c-2.5,5-2.8,10.9-2.5,16.5c1.4,23,12.7,45.7,30.6,60.4    c-11-6.3-23.8-8.9-36.3-6.5c-13.8,2.7-26.3,11.4-33.7,23.3c-4.1,6.6-6.6,14.6-5.1,22.2c2.6,13.1,16.2,21.2,29.3,23.7    c21.7,4,45.3-3.8,60.3-20c-12.6,10.8-22.6,24.7-28.8,40.1c-2.2,5.4-3.9,11.2-2.9,16.9c1.2,6.5,5.8,11.8,10.7,16.2    c4.4,3.9,9.3,7.5,15,9.1c6.5,1.9,13.4,1.1,20-0.1c8.2-1.4,16.5-3.5,23.4-8.3c9.4-6.6,15-17.8,16.5-29.2s-0.6-23-4.1-33.9    c8.4,13.2,17.9,25.7,28.3,37.4c2.6,2.9,5.3,5.9,8.8,7.6c4.4,2.3,9.6,2.4,14.6,1.7c12.7-1.7,24.3-8.1,34.4-16    c7.7-6,15.1-13.8,16.2-23.5C2496.1,3417.5,2490.8,3408.2,2483.4,3402.3z" style="fill: #a875b1;"></path><path class="st0" d="M1204.6,2777.6c-7.4-5.9-16.6-8.9-25.8-11.1c-16.6-4-33.7-5.8-50.8-5.3c12.2-7.3,26.2-10.9,39-16.8    c12.9-5.9,25.4-15.3,29.4-28.9c5.3-17.9-5.8-36.8-20.1-48.8c-5.3-4.5-11.3-8.4-18.1-9.7c-8.5-1.6-17.5,1.3-24.7,6.1    c-7.2,4.9-12.9,11.6-18.2,18.5c-10.5,13.6-20,28.5-23.3,45.3c-2.5-18.4-7-36.6-13.4-54.1c-3.7-10.3-9.4-21.6-20-24.6    c-6.1-1.7-12.7-0.2-18.7,2c-7.5,2.7-15,7-18.6,14.1c-2.5,5-2.8,10.9-2.5,16.5c1.4,23,12.7,45.7,30.6,60.4    c-11-6.3-23.8-8.9-36.3-6.5c-13.8,2.7-26.3,11.4-33.7,23.3c-4.1,6.6-6.6,14.6-5.1,22.2c2.6,13.1,16.2,21.2,29.3,23.7    c21.7,4,45.3-3.8,60.3-20c-12.6,10.8-22.6,24.7-28.8,40.1c-2.2,5.4-3.9,11.2-2.9,16.9c1.2,6.5,5.8,11.8,10.7,16.2    c4.4,3.9,9.3,7.5,15,9.1c6.5,1.9,13.4,1.1,20.1-0.1c8.2-1.4,16.5-3.5,23.4-8.3c9.4-6.6,15-17.8,16.5-29.2s-0.6-23-4.1-33.9    c8.4,13.2,17.9,25.7,28.3,37.4c2.6,2.9,5.3,5.9,8.8,7.6c4.4,2.3,9.6,2.4,14.6,1.7c12.7-1.7,24.3-8.1,34.4-16    c7.7-6,15.1-13.8,16.2-23.5C1217.2,2792.8,1212,2783.5,1204.6,2777.6z" style="fill: #a875b1;"></path><path class="st0" d="M1733.9,1172.8c21.7,4,45.3-3.8,60.3-20c-12.6,10.8-22.6,24.7-28.8,40.1c-2.2,5.4-3.9,11.2-2.9,16.9    c1.2,6.5,5.8,11.8,10.7,16.2c4.4,3.9,9.3,7.5,15,9.1c6.5,1.9,13.4,1.1,20-0.1c8.2-1.4,16.5-3.5,23.4-8.3    c9.4-6.6,15-17.8,16.5-29.2c1.5-11.4-0.6-23-4.1-33.9c8.4,13.2,17.9,25.7,28.3,37.4c2.6,2.9,5.3,5.9,8.8,7.6    c4.4,2.3,9.6,2.4,14.6,1.7c12.7-1.7,24.3-8.1,34.4-16c7.7-6,15.1-13.8,16.2-23.5c1.1-9.4-4.2-18.7-11.6-24.5    c-7.4-5.9-16.6-8.9-25.8-11.1c-16.6-4-33.7-5.8-50.8-5.3c12.2-7.3,26.2-10.9,39-16.8c12.9-5.9,25.4-15.3,29.4-28.9    c5.3-17.9-5.8-36.8-20.1-48.8c-5.3-4.5-11.3-8.4-18.1-9.7c-8.5-1.6-17.5,1.3-24.7,6.1c-7.2,4.9-12.9,11.6-18.2,18.5    c-10.5,13.6-20,28.5-23.3,45.3c-2.5-18.4-7-36.6-13.4-54.1c-3.7-10.3-9.4-21.6-20-24.6c-6.1-1.7-12.7-0.2-18.7,2    c-7.5,2.7-15,7-18.6,14.1c-2.5,5-2.8,10.9-2.5,16.5c1.4,23,12.7,45.7,30.6,60.4c-11-6.3-23.8-8.9-36.3-6.5    c-13.8,2.7-26.3,11.4-33.7,23.3c-4.1,6.6-6.6,14.6-5.1,22.2C1707.2,1162.2,1720.8,1170.4,1733.9,1172.8z" style="fill: #a875b1;"></path><path class="st0" d="M1003.1,2405.9c2.1-7.4,2.3-17.2,7.3-23.1c-8.8,2-18.6,2.3-27.7,4.1c-30.8,6.4-56.9,21.4-82.9,38.5    c-27.5,18-54.1,43.1-74.2,68.9c-7.7,9.9-16.4,21-22.2,32.9c11.4-58.7,26.3-117,57.8-167.8c11.6-1.8,24-17.6,58.7-34    c24.1-11.4,50.3-15.6,76.3-22.8c16.6-4.6,52.3-7.4,55.5-29.2c-18.5-0.1-36.5-4.7-55.3-3.2c-20.9,1.7-37.3,4.7-55.7,15.2    c18.9-19.8,41.1-36.8,59-57.6c22.9-26.7,27.2-69.6,24.1-103.7c-12.2,3.7-23.2,11.1-34,17.8c-25.8,15.8-52.9,41.9-71.2,66.2    c-38.5,51.2-57.8,122.3-62.5,144.2c-23.4,36.8-38.1,77.4-48.7,119.2c-1.5-9.1,0.1-18.7-0.3-27.9c-1.3-31,3.9-61.8,3-92.9    c-1.2-41.7,3.7-83.5-18.3-121.2c-14.5-24.8-43-47.3-71.1-53.1c19.2,48.8,35.9,99.4,49.1,150.2c10.6,41.2,19.8,84.4,25.2,126.5    c2.2,17.5,4.2,35.6,4.3,53.5c-4.4,21-8.2,42.1-11.9,63l-1.1,6c-0.4,2,0.9,4,2.8,4.5c0.1,0,0.3,0.1,0.4,0.1    c2.2,0.4,4.2-1.1,4.6-3.2l1.1-6c1.4-8,2.9-16.1,4.4-24.2c2.1-3.5,4.3-6.9,7.2-10.1c14.9-17,38-24.8,58.9-32.2    c33.1-11.7,67.7-18.8,95.6-41.5C981.5,2446.9,995.8,2431.3,1003.1,2405.9z" style="fill: #a875b1;"></path><path class="st0" d="M4252.4,2146c-20-37.5-39.1-77.4-54.1-117.1c-6.3-16.5-12.5-33.6-16.7-51c-0.6-21.4-1.9-42.8-3.2-64.1    l-0.4-6.1c-0.1-2-1.8-3.6-3.8-3.7c-0.1,0-0.3,0-0.4,0c-2.2,0.1-3.9,2-3.7,4.2l0.4,6.1c0.5,8.2,1,16.4,1.4,24.6    c-1.2,3.8-2.6,7.7-4.6,11.5c-10.6,20-31.2,33-49.7,45c-29.5,19.1-61.4,34.1-83.3,62.7c-15.7,20.6-26,39.2-27.1,65.6    c-0.3,7.7,1.8,17.2-1.7,24.2c8-4,17.5-6.6,25.9-10.5c28.4-13.4,50.3-34.1,71.6-56.8c22.5-23.9,42.5-54.6,56-84.4    c5.1-11.4,11.1-24.3,13.9-37.2c2.7,59.8,1.8,119.9-16.9,176.6c-10.9,4.5-19.2,22.7-49.1,46.8c-20.8,16.7-45.3,27-68.8,40    c-15.1,8.3-49.1,19.5-47.2,41.4c18-4.2,36.6-4,54.5-9.9c19.9-6.5,35.2-13.3,50.6-27.8c-13.7,23.6-31.4,45.4-43.8,69.8    c-16,31.4-10.2,74,0.8,106.4c11-6.4,19.9-16.3,28.8-25.2c21.4-21.5,41.6-53.2,53.7-81c25.5-58.8,27.6-132.4,27-154.8    c14.1-41.3,18.9-84.1,19.4-127.3c3.5,8.5,4.3,18.2,6.9,27.1c8.5,29.8,10.7,61,18.8,91c11,40.3,16,82,46.2,113.5    c19.9,20.7,52.9,35.9,81.5,35C4305.2,2237.5,4277.1,2192.3,4252.4,2146z" style="fill: #a875b1;"></path><path class="st0" d="M2645.8,3718.8c-15.5-8.6-31.3-17.6-45.8-28.1c-14.3-15.9-29.1-31.4-43.8-46.7l-4.2-4.4    c-1.4-1.5-3.7-1.6-5.3-0.4c-0.1,0.1-0.2,0.2-0.3,0.3c-1.6,1.5-1.6,4-0.1,5.6l4.2,4.4c5.7,5.9,11.3,11.8,17,17.8    c1.6,3.7,3,7.5,4,11.8c4.9,22.1-2.4,45.4-8.8,66.5c-10.1,33.6-24.8,65.8-22.9,101.7c1.3,25.9,5.5,46.7,21.7,67.5    c4.8,6.1,12.5,12,14.3,19.5c3.5-8.3,9.1-16.3,13-24.8c13-28.6,16.3-58.5,17.8-89.7c1.7-32.8-2.9-69.1-11.9-100.6    c-3.4-12-7.3-25.7-13.4-37.4c40.7,43.8,78.9,90.2,101.4,145.7c-5.4,10.5,0,29.8-7.2,67.5c-5,26.2-17.1,49.8-26.6,75    c-6.1,16.1-24.8,46.6-9.2,62c11-14.9,25.3-26.7,35.2-42.8c10.9-17.8,18.2-32.9,20.6-53.9c4.8,26.9,5.4,54.9,11.7,81.6    c8.1,34.3,40.1,63,69.5,80.6c4.3-12,4.7-25.3,5.7-37.9c2.5-30.2-2.6-67.5-11.5-96.5c-18.6-61.4-64.7-118.9-79.5-135.5    c-15.9-40.6-40-76.4-67.5-109.7c8.2,4.2,15.1,11.1,22.8,16.2c25.8,17.2,47.6,39.6,73.3,57.2c34.4,23.6,65.2,52.2,108.6,56.7    c28.5,2.9,63.5-6.8,84.8-26c-50.7-13.3-101.5-29.6-150.2-49C2723.3,3757.4,2682.9,3739.3,2645.8,3718.8z" style="fill: #a875b1;"></path><path class="st0" d="M2091.7,1405.8c-13.7,23.6-31.4,45.4-43.8,69.8c-16,31.4-10.2,74,0.9,106.4c11-6.4,19.9-16.3,28.8-25.2    c21.4-21.5,41.6-53.2,53.7-81c29.9-69,27.5-158.5,26.5-161.5c-14.7-0.7-20,19.6-55.2,47.9c-20.8,16.7-45.3,27-68.8,40    c-15.1,8.3-49.1,19.5-47.2,41.4c18-4.2,36.6-4,54.5-9.9C2061,1427.1,2076.3,1420.3,2091.7,1405.8z" style="fill: #a875b1;"></path></svg> <svg y="113" viewBox="-191.10183715820312 -16.188112258911133 378.81109619140625 138.68695068359375" x="98.09422070312499" height="138.68695068359375" width="378.81109619140625" style="overflow: visible;"><g fill="#ffffff" style=""><path d="M3.61 0L-0.21 0L6.97-16.10L10.65-16.10L17.85 0L13.94 0L8.05-14.21L9.52-14.21L3.61 0ZM13.66-3.45L3.38-3.45L4.37-6.28L12.65-6.28L13.66-3.45Z" transform="translate(-10.303999999999998 0), rotate(-67.3685352209156 8.8205 185.57233596291593)"></path><path d="" transform="translate(-4.749499999999999 0), rotate(-62.06319214522203 0 185.57233596291593)"></path><path d="M5.63 0L1.91 0L1.91-16.10L8.88-16.10Q11.04-16.10 12.60-15.40Q14.17-14.70 15.02-13.39Q15.87-12.07 15.87-10.26L15.87-10.26Q15.87-8.46 15.02-7.16Q14.17-5.87 12.60-5.17Q11.04-4.49 8.88-4.49L8.88-4.49L3.98-4.49L5.63-6.12L5.63 0ZM16.17 0L12.14 0L8.12-5.84L12.10-5.84L16.17 0ZM5.63-14.83L5.63-5.70L3.98-7.45L8.67-7.45Q10.40-7.45 11.25-8.20Q12.10-8.95 12.10-10.26L12.10-10.26Q12.10-11.59 11.25-12.33Q10.40-13.06 8.67-13.06L8.67-13.06L3.98-13.06L5.63-14.83Z" transform="translate(-9.947500000000002 0), rotate(-56.88349126612625 9.039 185.57233596291593)"></path><path d="M3.61 0L-0.21 0L6.97-16.10L10.65-16.10L17.85 0L13.94 0L8.05-14.21L9.52-14.21L3.61 0ZM13.66-3.45L3.38-3.45L4.37-6.28L12.65-6.28L13.66-3.45Z" transform="translate(-10.303999999999998 0), rotate(-49.746203904555294 8.8205 185.57233596291593)"></path><path d="M5.59 0L1.91 0L1.91-16.10L4.99-16.10L14.49-4.51L12.99-4.51L12.99-16.10L16.68-16.10L16.68 0L13.62 0L4.09-11.59L5.59-11.59L5.59 0Z" transform="translate(-10.786999999999999 0), rotate(-42.31304943486698 9.292 185.57233596291593)"></path><path d="M9.22 0L1.91 0L1.91-16.10L9.22-16.10Q11.85-16.10 13.85-15.10Q15.85-14.10 16.97-12.30Q18.10-10.51 18.10-8.05L18.10-8.05Q18.10-5.61 16.97-3.81Q15.85-2.00 13.85-1.00Q11.85 0 9.22 0L9.22 0ZM5.63-13.04L5.63-3.06L9.04-3.06Q10.65-3.06 11.83-3.67Q13.02-4.28 13.67-5.41Q14.33-6.53 14.33-8.05L14.33-8.05Q14.33-9.59 13.67-10.71Q13.02-11.82 11.83-12.43Q10.65-13.04 9.04-13.04L9.04-13.04L5.63-13.04Z" transform="translate(-10.994 0), rotate(-34.63671652015069 10.005 185.57233596291593)"></path><path d="M9.73 0.28L9.73 0.28Q7.82 0.28 6.20-0.34Q4.58-0.97 3.39-2.09Q2.21-3.22 1.55-4.74Q0.90-6.26 0.90-8.05L0.90-8.05Q0.90-9.84 1.55-11.36Q2.21-12.88 3.40-14.01Q4.60-15.13 6.21-15.75Q7.82-16.38 9.71-16.38L9.71-16.38Q11.62-16.38 13.21-15.75Q14.81-15.13 16.00-14.01Q17.18-12.88 17.85-11.37Q18.52-9.87 18.52-8.05L18.52-8.05Q18.52-6.26 17.85-4.73Q17.18-3.20 16.00-2.08Q14.81-0.97 13.21-0.34Q11.62 0.28 9.73 0.28ZM9.71-2.90L9.71-2.90Q10.79-2.90 11.70-3.27Q12.60-3.63 13.29-4.32Q13.98-5.01 14.36-5.96Q14.74-6.90 14.74-8.05L14.74-8.05Q14.74-9.20 14.36-10.14Q13.98-11.09 13.31-11.78Q12.63-12.47 11.71-12.83Q10.79-13.20 9.71-13.20L9.71-13.20Q8.63-13.20 7.72-12.83Q6.81-12.47 6.12-11.78Q5.43-11.09 5.05-10.14Q4.67-9.20 4.67-8.05L4.67-8.05Q4.67-6.92 5.05-5.97Q5.43-5.01 6.11-4.32Q6.79-3.63 7.71-3.27Q8.63-2.90 9.71-2.90Z" transform="translate(-11.201 0), rotate(-26.814476538417622 9.706000000000001 185.57233596291593)"></path><path d="M5.41 0L1.91 0L1.91-16.10L4.99-16.10L11.85-4.74L10.21-4.74L16.95-16.10L20.01-16.10L20.06 0L16.56 0L16.54-10.74L17.18-10.74L11.80-1.70L10.12-1.70L4.62-10.74L5.41-10.74L5.41 0Z" transform="translate(-12.4775 0), rotate(-18.469402899874417 10.982500000000002 185.57233596291593)"></path><path d="" transform="translate(-4.749499999999999 0), rotate(-12.398047722342739 0 185.57233596291593)"></path><path d="M8.97 0L5.24 0L5.24-13.06L0.09-13.06L0.09-16.10L14.12-16.10L14.12-13.06L8.97-13.06L8.97 0Z" transform="translate(-8.602 0), rotate(-7.692544811051505 7.106999999999999 185.57233596291593)"></path><path d="M12.95 0L12.95-16.10L16.68-16.10L16.68 0L12.95 0ZM5.63-16.10L5.63 0L1.91 0L1.91-16.10L5.63-16.10ZM13.22-9.75L13.22-6.60L5.36-6.60L5.36-9.75L13.22-9.75Z" transform="translate(-10.786999999999999 0), rotate(-0.8592305057655096 9.292 185.57233596291593)"></path><path d="M9.73 0.28L9.73 0.28Q7.82 0.28 6.20-0.34Q4.58-0.97 3.39-2.09Q2.21-3.22 1.55-4.74Q0.90-6.26 0.90-8.05L0.90-8.05Q0.90-9.84 1.55-11.36Q2.21-12.88 3.40-14.01Q4.60-15.13 6.21-15.75Q7.82-16.38 9.71-16.38L9.71-16.38Q11.62-16.38 13.21-15.75Q14.81-15.13 16.00-14.01Q17.18-12.88 17.85-11.37Q18.52-9.87 18.52-8.05L18.52-8.05Q18.52-6.26 17.85-4.73Q17.18-3.20 16.00-2.08Q14.81-0.97 13.21-0.34Q11.62 0.28 9.73 0.28ZM9.71-2.90L9.71-2.90Q10.79-2.90 11.70-3.27Q12.60-3.63 13.29-4.32Q13.98-5.01 14.36-5.96Q14.74-6.90 14.74-8.05L14.74-8.05Q14.74-9.20 14.36-10.14Q13.98-11.09 13.31-11.78Q12.63-12.47 11.71-12.83Q10.79-13.20 9.71-13.20L9.71-13.20Q8.63-13.20 7.72-12.83Q6.81-12.47 6.12-11.78Q5.43-11.09 5.05-10.14Q4.67-9.20 4.67-8.05L4.67-8.05Q4.67-6.92 5.05-5.97Q5.43-5.01 6.11-4.32Q6.79-3.63 7.71-3.27Q8.63-2.90 9.71-2.90Z" transform="translate(-11.201 0), rotate(6.8900559424591705 9.706000000000001 185.57233596291593)"></path><path d="M9.06 0.28L9.06 0.28Q5.63 0.28 3.70-1.63Q1.77-3.54 1.77-7.08L1.77-7.08L1.77-16.10L5.50-16.10L5.50-7.22Q5.50-4.92 6.44-3.91Q7.38-2.90 9.08-2.90L9.08-2.90Q10.79-2.90 11.73-3.91Q12.67-4.92 12.67-7.22L12.67-7.22L12.67-16.10L16.35-16.10L16.35-7.08Q16.35-3.54 14.42-1.63Q12.49 0.28 9.06 0.28Z" transform="translate(-10.556999999999999 0), rotate(14.558282909007858 9.061999999999998 185.57233596291593)"></path><path d="M9.68 0.28L9.68 0.28Q7.77 0.28 6.18-0.33Q4.58-0.94 3.39-2.07Q2.21-3.20 1.55-4.71Q0.90-6.23 0.90-8.05L0.90-8.05Q0.90-9.87 1.55-11.38Q2.21-12.90 3.40-14.03Q4.60-15.16 6.21-15.77Q7.82-16.38 9.75-16.38L9.75-16.38Q11.89-16.38 13.60-15.66Q15.32-14.95 16.49-13.59L16.49-13.59L14.10-11.38Q13.22-12.30 12.19-12.75Q11.15-13.20 9.94-13.20L9.94-13.20Q8.76-13.20 7.80-12.83Q6.83-12.47 6.13-11.78Q5.43-11.09 5.05-10.14Q4.67-9.20 4.67-8.05L4.67-8.05Q4.67-6.92 5.05-5.98Q5.43-5.04 6.13-4.34Q6.83-3.63 7.79-3.27Q8.74-2.90 9.89-2.90L9.89-2.90Q10.99-2.90 12.04-3.25Q13.09-3.61 14.08-4.46L14.08-4.46L16.19-1.77Q14.88-0.78 13.14-0.25Q11.41 0.28 9.68 0.28ZM16.19-1.77L12.79-2.25L12.79-8.30L16.19-8.30L16.19-1.77Z" transform="translate(-10.3615 0), rotate(21.93064276743918 8.693999999999999 185.57233596291593)"></path><path d="M12.95 0L12.95-16.10L16.68-16.10L16.68 0L12.95 0ZM5.63-16.10L5.63 0L1.91 0L1.91-16.10L5.63-16.10ZM13.22-9.75L13.22-6.60L5.36-6.60L5.36-9.75L13.22-9.75Z" transform="translate(-10.786999999999999 0), rotate(29.384062107546498 9.292 185.57233596291593)"></path><path d="M8.97 0L5.24 0L5.24-13.06L0.09-13.06L0.09-16.10L14.12-16.10L14.12-13.06L8.97-13.06L8.97 0Z" transform="translate(-8.602 0), rotate(36.21737641283249 7.106999999999999 185.57233596291593)"></path><path d="" transform="translate(-4.749499999999999 0), rotate(40.92287932412373 0 185.57233596291593)"></path><path d="M10.23 0L1.91 0L1.91-16.10L9.78-16.10Q12.81-16.10 14.34-14.95Q15.87-13.80 15.87-11.91L15.87-11.91Q15.87-10.65 15.25-9.72Q14.63-8.79 13.55-8.28Q12.47-7.77 11.06-7.77L11.06-7.77L11.50-8.72Q13.02-8.72 14.19-8.22Q15.36-7.73 16.02-6.76Q16.68-5.80 16.68-4.39L16.68-4.39Q16.68-2.32 15.04-1.16Q13.41 0 10.23 0L10.23 0ZM5.61-13.29L5.61-2.81L9.96-2.81Q11.41-2.81 12.16-3.28Q12.90-3.75 12.90-4.78L12.90-4.78Q12.90-5.80 12.16-6.29Q11.41-6.79 9.96-6.79L9.96-6.79L5.34-6.79L5.34-9.50L9.31-9.50Q10.67-9.50 11.40-9.97Q12.12-10.44 12.12-11.41L12.12-11.41Q12.12-12.35 11.40-12.82Q10.67-13.29 9.31-13.29L9.31-13.29L5.61-13.29Z" transform="translate(-10.2925 0), rotate(46.22416942573349 9.292 185.57233596291593)"></path><path d="M13.71 0L1.91 0L1.91-16.10L5.63-16.10L5.63-3.04L13.71-3.04L13.71 0Z" transform="translate(-8.440999999999999 0), rotate(52.82646420824291 7.8084999999999996 185.57233596291593)"></path><path d="M9.73 0.28L9.73 0.28Q7.82 0.28 6.20-0.34Q4.58-0.97 3.39-2.09Q2.21-3.22 1.55-4.74Q0.90-6.26 0.90-8.05L0.90-8.05Q0.90-9.84 1.55-11.36Q2.21-12.88 3.40-14.01Q4.60-15.13 6.21-15.75Q7.82-16.38 9.71-16.38L9.71-16.38Q11.62-16.38 13.21-15.75Q14.81-15.13 16.00-14.01Q17.18-12.88 17.85-11.37Q18.52-9.87 18.52-8.05L18.52-8.05Q18.52-6.26 17.85-4.73Q17.18-3.20 16.00-2.08Q14.81-0.97 13.21-0.34Q11.62 0.28 9.73 0.28ZM9.71-2.90L9.71-2.90Q10.79-2.90 11.70-3.27Q12.60-3.63 13.29-4.32Q13.98-5.01 14.36-5.96Q14.74-6.90 14.74-8.05L14.74-8.05Q14.74-9.20 14.36-10.14Q13.98-11.09 13.31-11.78Q12.63-12.47 11.71-12.83Q10.79-13.20 9.71-13.20L9.71-13.20Q8.63-13.20 7.72-12.83Q6.81-12.47 6.12-11.78Q5.43-11.09 5.05-10.14Q4.67-9.20 4.67-8.05L4.67-8.05Q4.67-6.92 5.05-5.97Q5.43-5.01 6.11-4.32Q6.79-3.63 7.71-3.27Q8.63-2.90 9.71-2.90Z" transform="translate(-11.201 0), rotate(59.748943943372495 9.706000000000001 185.57233596291593)"></path><path d="M9.68 0.28L9.68 0.28Q7.77 0.28 6.18-0.33Q4.58-0.94 3.39-2.07Q2.21-3.20 1.55-4.71Q0.90-6.23 0.90-8.05L0.90-8.05Q0.90-9.87 1.55-11.38Q2.21-12.90 3.40-14.03Q4.60-15.16 6.21-15.77Q7.82-16.38 9.75-16.38L9.75-16.38Q11.89-16.38 13.60-15.66Q15.32-14.95 16.49-13.59L16.49-13.59L14.10-11.38Q13.22-12.30 12.19-12.75Q11.15-13.20 9.94-13.20L9.94-13.20Q8.76-13.20 7.80-12.83Q6.83-12.47 6.13-11.78Q5.43-11.09 5.05-10.14Q4.67-9.20 4.67-8.05L4.67-8.05Q4.67-6.92 5.05-5.98Q5.43-5.04 6.13-4.34Q6.83-3.63 7.79-3.27Q8.74-2.90 9.89-2.90L9.89-2.90Q10.99-2.90 12.04-3.25Q13.09-3.61 14.08-4.46L14.08-4.46L16.19-1.77Q14.88-0.78 13.14-0.25Q11.41 0.28 9.68 0.28ZM16.19-1.77L12.79-2.25L12.79-8.30L16.19-8.30L16.19-1.77Z" transform="translate(-10.3615 0), rotate(67.34827035049659 8.693999999999999 185.57233596291593)"></path></g></svg> <svg y="364" viewBox="-0.550000011920929 22.270000457763672 474.0299987792969 80.75999450683594" x="50.48489450683594" height="80.75999450683594" width="474.0299987792969" style="overflow: visible;"><g fill="#ffffff" style=""><path d="M9.98 83.92L9.98 83.92Q6.40 83.92 4.06 82.46Q1.72 81.00 0.58 78.93Q-0.55 76.87-0.55 74.99L-0.55 74.99Q-0.55 73.40 0.14 72.01Q0.82 70.63 2.61 69.77Q4.41 68.91 7.76 68.91L7.76 68.91Q7.49 70.35 7.41 71.70Q7.33 73.04 7.33 74.18L7.33 74.18Q7.33 76.71 8.21 78.31Q9.09 79.91 11.58 80.10L11.58 80.10Q13.77 80.10 15.70 77.78Q17.63 75.46 19.30 71.56Q20.98 67.66 22.42 62.87Q23.87 58.07 25.06 53.06Q26.25 48.05 27.22 43.52Q28.20 39.00 28.96 35.63Q29.72 32.25 30.26 30.81L30.26 30.81Q31.35 29.64 32.78 28.92Q34.20 28.20 36.42 28.20L36.42 28.20Q35.18 27.84 33.85 27.61Q32.52 27.38 31.08 27.38L31.08 27.38Q26.87 27.38 23.03 28.62Q19.19 29.87 16.22 31.94Q13.26 34.01 11.54 36.48Q9.83 38.96 9.83 41.46L9.83 41.46Q9.83 43.60 11.29 45.55Q12.75 47.50 16.07 48.94L16.07 48.94Q16.07 50.07 15.89 51.48Q15.72 52.88 15.44 54.03Q15.17 55.18 14.94 55.49L14.94 55.49Q8.46 52.84 5.56 49.18Q2.65 45.51 2.65 41.69L2.65 41.69Q2.65 38.10 4.86 34.69Q7.06 31.28 11.00 28.53Q14.94 25.78 20.28 24.14Q25.62 22.50 31.86 22.50L31.86 22.50Q35.41 22.50 39.35 23.22Q43.29 23.95 47.29 24.67Q51.28 25.39 55.03 25.39L55.03 25.39Q58.58 25.39 61.44 24.10Q64.31 22.81 66.30 22.27L66.30 22.27Q64.85 27.18 60.95 30.01Q57.05 32.84 51.91 32.84L51.91 32.84Q48.63 32.84 45.65 31.63Q42.66 30.42 39.62 29.33L39.62 29.33Q38.65 34.01 37.54 39.84Q36.42 45.67 34.92 51.81Q33.42 57.95 31.32 63.67Q29.21 69.38 26.27 73.96Q23.32 78.54 19.32 81.23Q15.33 83.92 9.98 83.92ZM65.21 82.83L65.21 82.83Q63.72 82.83 63.22 81.92Q62.71 81.00 62.71 79.87L62.71 79.87Q62.71 79.52 62.77 79.07Q62.83 78.62 62.87 78.27L62.87 78.27Q62.98 77.22 63.67 74.92Q64.35 72.62 65.19 69.69Q66.02 66.77 66.65 63.78Q67.27 60.80 67.27 58.38L67.27 58.38Q67.27 56.16 65.05 56.16L65.05 56.16Q63.26 56.16 61.34 57.58Q59.43 59.00 57.68 61.33Q55.92 63.65 54.56 66.41Q53.19 69.18 52.49 71.87L52.49 71.87Q51.52 75.70 50.66 78.13Q49.80 80.57 48.44 81.70L48.44 81.70L42.35 81.70Q42.51 80.61 43.23 77.55Q43.95 74.49 45.02 70.20Q46.10 65.91 47.36 61.09Q48.63 56.27 49.88 51.61Q51.13 46.95 52.14 43.13Q53.15 39.31 53.78 37.03Q54.40 34.75 54.40 34.75L54.40 34.75Q55.42 31.04 56.20 29.00Q56.98 26.95 57.87 26.03Q58.77 25.12 60.08 24.90Q61.38 24.69 63.45 24.69L63.45 24.69Q63.92 24.69 64.43 24.71Q64.93 24.73 65.21 24.84L65.21 24.84L54.99 61.81Q56.82 58.42 59.55 55.48Q62.28 52.53 65.44 50.74Q68.60 48.94 71.68 48.94L71.68 48.94Q75.50 48.94 75.50 53.51L75.50 53.51Q75.50 54.87 74.74 57.25Q73.98 59.63 72.99 62.44Q71.99 65.24 71.23 67.94Q70.47 70.63 70.47 72.62L70.47 72.62Q70.47 72.62 70.57 73.20Q70.67 73.79 71.21 73.79L71.21 73.79Q71.52 73.79 72.56 72.81Q73.59 71.84 75.07 70.33Q76.55 68.83 78.19 67.23Q79.83 65.63 81.27 64.39L81.27 64.39L81.27 68.75Q79.87 70.35 77.72 72.71Q75.58 75.07 73.22 77.39Q70.86 79.71 68.72 81.27Q66.57 82.83 65.21 82.83ZM80.80 82.83L80.80 82.83Q78.93 82.83 78.15 81.18Q77.37 79.52 77.37 77.72L77.37 77.72Q77.37 76.48 77.82 74.00Q78.27 71.52 78.95 68.54Q79.63 65.56 80.40 62.61Q81.16 59.67 81.80 57.43Q82.44 55.18 82.79 54.32L82.79 54.32Q83.61 52.22 84.80 51.38Q85.99 50.54 87.63 50.39Q89.27 50.23 91.41 50.23L91.41 50.23Q91.02 51.56 90.28 53.97Q89.54 56.39 88.68 59.34Q87.82 62.28 87.04 65.19Q86.26 68.09 85.76 70.43Q85.25 72.77 85.25 73.94L85.25 73.94Q85.25 74.49 85.50 75.50Q85.76 76.52 86.62 76.52L86.62 76.52Q87.08 76.52 88.74 75.07Q90.40 73.63 92.50 71.58Q94.61 69.53 96.48 67.58Q98.35 65.63 99.25 64.62L99.25 64.62L99.25 68.99Q92.66 75.46 88.53 79.05Q84.39 82.64 80.80 82.83ZM91.30 40.99L91.30 40.99Q89.66 40.99 88.96 40.07Q88.25 39.15 88.25 37.95L88.25 37.95Q88.25 36.62 88.94 35.20Q89.62 33.77 90.85 32.78Q92.08 31.78 93.67 31.78L93.67 31.78Q95.98 31.78 96.99 32.70Q98.00 33.62 98.00 34.83L98.00 34.83Q98.00 36.15 97.07 37.59Q96.13 39.04 94.61 40.01Q93.09 40.99 91.30 40.99ZM114.77 82.83L114.77 82.83Q112.74 82.83 112.20 81.78Q111.65 80.73 111.65 79.87L111.65 79.87Q111.65 76.75 112.53 73.55Q113.41 70.35 114.58 67.43Q115.75 64.50 116.62 62.12Q117.50 59.75 117.50 58.30L117.50 58.30Q117.50 57.29 117.03 56.72Q116.57 56.16 115.98 56.16L115.98 56.16Q114.07 56.16 112.12 58.19Q110.17 60.21 108.36 63.41Q106.54 66.61 105.04 70.16Q103.54 73.71 102.51 76.81Q101.47 79.91 101.05 81.70L101.05 81.70L93.60 81.70Q93.64 79.91 94.08 77.02Q94.53 74.14 95.29 70.76Q96.05 67.39 96.91 64.04Q97.77 60.68 98.63 57.85Q99.49 55.03 100.15 53.35L100.15 53.35Q100.93 51.28 102.45 50.76Q103.97 50.23 106.00 50.23L106.00 50.23L108.61 50.23Q108.61 50.23 108.16 51.79Q107.71 53.35 107.03 55.69Q106.35 58.03 105.63 60.39Q104.91 62.75 104.40 64.39L104.40 64.39Q105.57 62.20 107.54 59.55Q109.51 56.90 112.00 54.48Q114.50 52.06 117.23 50.50Q119.96 48.94 122.61 48.94L122.61 48.94Q126.43 48.94 126.43 53.51L126.43 53.51Q126.43 54.71 125.89 56.82Q125.34 58.93 124.52 61.40Q123.70 63.88 122.86 66.28Q122.03 68.68 121.48 70.49Q120.93 72.30 120.93 73.01L120.93 73.01Q120.93 73.71 121.40 73.71L121.40 73.71Q121.91 73.71 122.77 73.16L122.77 73.16Q123.27 72.81 124.48 71.70Q125.69 70.59 127.15 69.18Q128.62 67.78 129.92 66.53Q131.23 65.28 131.93 64.70L131.93 64.70L131.93 69.07Q131.00 70.00 129.28 71.66Q127.56 73.32 125.46 75.25Q123.35 77.18 121.27 78.89Q119.18 80.61 117.44 81.72Q115.71 82.83 114.77 82.83ZM150.65 82.83L150.65 82.83Q148.43 82.83 147.71 81.18Q146.99 79.52 146.99 77.30L146.99 77.30Q146.99 75.35 147.26 73.30Q147.53 71.25 147.53 69.89L147.53 69.89Q147.53 68.83 146.91 68.11Q146.28 67.39 144.43 67.00Q142.58 66.61 138.91 66.61L138.91 66.61L138.68 67.66Q138.64 67.94 138.21 69.75Q137.78 71.56 137.06 73.98Q136.34 76.40 135.38 78.56Q134.43 80.73 133.30 81.70L133.30 81.70L127.25 81.70Q127.37 80.61 128.09 77.55Q128.81 74.49 129.90 70.20Q131.00 65.91 132.26 61.09Q133.53 56.27 134.76 51.61Q135.99 46.95 137.02 43.13Q138.05 39.31 138.68 37.03Q139.30 34.75 139.30 34.75L139.30 34.75Q140.32 31.04 141.08 29.00Q141.84 26.95 142.73 26.03Q143.63 25.12 144.94 24.90Q146.24 24.69 148.31 24.69L148.31 24.69Q148.82 24.69 149.31 24.71Q149.79 24.73 150.07 24.84L150.07 24.84Q149.36 27.34 148.27 31.18Q147.18 35.02 145.95 39.21Q144.72 43.41 143.63 47.09Q142.54 50.78 141.86 53.10Q141.17 55.42 141.21 55.42L141.21 55.42Q144.22 51.87 147.73 50.41Q151.24 48.94 154.79 48.94L154.79 48.94Q157.12 48.94 158.55 50.56Q159.97 52.18 159.97 54.48L159.97 54.48Q159.97 57.83 158.45 59.71Q156.93 61.58 154.22 62.73Q151.51 63.88 148.00 65.17L148.00 65.17Q150.85 65.17 152.21 66.10Q153.58 67.04 153.99 68.48Q154.40 69.92 154.40 71.48L154.40 71.48Q154.40 72.23 154.36 72.97Q154.32 73.71 154.32 74.37L154.32 74.37Q154.32 75.31 154.47 76.14Q154.63 76.98 155.02 76.98L155.02 76.98Q155.29 76.98 155.68 76.59L155.68 76.59Q155.88 76.40 157.24 75.05Q158.61 73.71 160.54 71.80Q162.47 69.89 164.42 67.94Q166.37 65.99 167.73 64.54L167.73 64.54L167.73 68.91Q163.40 73.16 160.63 75.89Q157.87 78.62 156.09 80.12Q154.32 81.62 153.09 82.23Q151.86 82.83 150.65 82.83ZM139.15 63.88L139.15 63.88L141.76 63.88Q143.28 63.88 145.21 63.45Q147.14 63.02 148.94 62.14Q150.73 61.27 151.88 59.86Q153.03 58.46 153.03 56.47L153.03 56.47Q153.03 52.80 149.99 52.80L149.99 52.80Q148.94 52.80 147.22 53.86Q145.50 54.91 143.71 56.61Q141.92 58.30 140.63 60.23Q139.34 62.16 139.15 63.88ZM167.07 82.83L167.07 82.83Q165.20 82.83 164.42 81.18Q163.64 79.52 163.64 77.72L163.64 77.72Q163.64 76.48 164.09 74.00Q164.53 71.52 165.22 68.54Q165.90 65.56 166.66 62.61Q167.42 59.67 168.06 57.43Q168.71 55.18 169.06 54.32L169.06 54.32Q169.88 52.22 171.07 51.38Q172.26 50.54 173.89 50.39Q175.53 50.23 177.68 50.23L177.68 50.23Q177.29 51.56 176.55 53.97Q175.81 56.39 174.95 59.34Q174.09 62.28 173.31 65.19Q172.53 68.09 172.02 70.43Q171.52 72.77 171.52 73.94L171.52 73.94Q171.52 74.49 171.77 75.50Q172.02 76.52 172.88 76.52L172.88 76.52Q173.35 76.52 175.01 75.07Q176.66 73.63 178.77 71.58Q180.88 69.53 182.75 67.58Q184.62 65.63 185.52 64.62L185.52 64.62L185.52 68.99Q178.93 75.46 174.79 79.05Q170.66 82.64 167.07 82.83ZM177.56 40.99L177.56 40.99Q175.92 40.99 175.22 40.07Q174.52 39.15 174.52 37.95L174.52 37.95Q174.52 36.62 175.20 35.20Q175.88 33.77 177.11 32.78Q178.34 31.78 179.94 31.78L179.94 31.78Q182.24 31.78 183.25 32.70Q184.27 33.62 184.27 34.83L184.27 34.83Q184.27 36.15 183.33 37.59Q182.40 39.04 180.88 40.01Q179.35 40.99 177.56 40.99ZM201.04 82.83L201.04 82.83Q199.01 82.83 198.46 81.78Q197.92 80.73 197.92 79.87L197.92 79.87Q197.92 76.75 198.79 73.55Q199.67 70.35 200.84 67.43Q202.01 64.50 202.89 62.12Q203.77 59.75 203.77 58.30L203.77 58.30Q203.77 57.29 203.30 56.72Q202.83 56.16 202.25 56.16L202.25 56.16Q200.34 56.16 198.39 58.19Q196.44 60.21 194.62 63.41Q192.81 66.61 191.31 70.16Q189.81 73.71 188.77 76.81Q187.74 79.91 187.31 81.70L187.31 81.70L179.86 81.70Q179.90 79.91 180.35 77.02Q180.80 74.14 181.56 70.76Q182.32 67.39 183.18 64.04Q184.03 60.68 184.89 57.85Q185.75 55.03 186.41 53.35L186.41 53.35Q187.19 51.28 188.71 50.76Q190.23 50.23 192.26 50.23L192.26 50.23L194.88 50.23Q194.88 50.23 194.43 51.79Q193.98 53.35 193.30 55.69Q192.61 58.03 191.89 60.39Q191.17 62.75 190.66 64.39L190.66 64.39Q191.83 62.20 193.80 59.55Q195.77 56.90 198.27 54.48Q200.76 52.06 203.49 50.50Q206.22 48.94 208.88 48.94L208.88 48.94Q212.70 48.94 212.70 53.51L212.70 53.51Q212.70 54.71 212.15 56.82Q211.61 58.93 210.79 61.40Q209.97 63.88 209.13 66.28Q208.29 68.68 207.74 70.49Q207.20 72.30 207.20 73.01L207.20 73.01Q207.20 73.71 207.67 73.71L207.67 73.71Q208.17 73.71 209.03 73.16L209.03 73.16Q209.54 72.81 210.75 71.70Q211.96 70.59 213.42 69.18Q214.88 67.78 216.19 66.53Q217.49 65.28 218.20 64.70L218.20 64.70L218.20 69.07Q217.26 70.00 215.54 71.66Q213.83 73.32 211.72 75.25Q209.62 77.18 207.53 78.89Q205.44 80.61 203.71 81.72Q201.97 82.83 201.04 82.83ZM225.33 103.03L225.33 103.03Q223.70 103.03 222.00 102.43Q220.30 101.83 219.13 100.58Q217.96 99.33 217.96 97.42L217.96 97.42Q217.96 95.27 219.83 93.65Q221.71 92.04 224.05 90.24L224.05 90.24L234.85 81.94L236.10 75.31Q232.55 78.46 229.95 80.08Q227.36 81.70 225.29 82.27Q223.23 82.83 221.16 82.83L221.16 82.83Q219.44 82.83 218.27 81.64Q217.10 80.45 216.50 78.64Q215.90 76.83 215.90 74.99L215.90 74.99Q215.90 70.63 217.49 66.04Q219.09 61.46 222.02 57.58Q224.94 53.70 228.96 51.32Q232.98 48.94 237.77 48.94L237.77 48.94Q240.19 48.94 243.57 49.47Q246.94 50.00 249.43 50.46L249.43 50.46L243.47 75.70Q245.92 73.40 247.76 71.66Q249.59 69.92 251.29 68.23Q252.98 66.53 254.89 64.35L254.89 64.35L254.89 68.87Q252.01 72.07 248.87 75.05Q245.73 78.04 242.65 80.80L242.65 80.80Q241.44 87.67 238.55 92.66Q235.67 97.65 232.12 100.34Q228.57 103.03 225.33 103.03ZM228.22 76.59L228.22 76.59Q231.57 76.59 236.68 70.82L236.68 70.82L241.21 51.83Q239.76 51.48 238.94 51.30Q238.12 51.13 237.38 51.13L237.38 51.13Q234.65 51.13 232.31 52.80Q229.97 54.48 228.20 57.17Q226.43 59.86 225.43 63.00Q224.44 66.14 224.44 69.07L224.44 69.07Q224.44 72.89 225.45 74.74Q226.46 76.59 228.22 76.59ZM226.54 100.89L226.54 100.89Q228.73 100.89 230.31 98.94Q231.89 96.99 232.88 93.67Q233.87 90.36 234.34 86.26L234.34 86.26L227.95 91.69Q226.58 92.82 225.12 94.12Q223.66 95.43 223.66 98.24L223.66 98.24Q223.66 99.80 224.38 100.34Q225.10 100.89 226.54 100.89ZM256.34 82.83L256.34 82.83Q253.88 82.83 252.57 81.19Q251.27 79.56 250.80 77.26Q250.33 74.96 250.33 72.93L250.33 72.93Q250.33 68.60 252.38 64.35Q254.43 60.10 258.01 56.61Q261.60 53.12 266.26 51.03Q270.92 48.94 276.11 48.94L276.11 48.94Q277.86 48.94 279.42 49.31Q280.98 49.68 282.66 50.23L282.66 50.23Q282.58 50.70 282.12 52.75Q281.65 54.79 281.02 57.64Q280.40 60.49 279.79 63.41Q279.19 66.34 278.78 68.66Q278.37 70.98 278.37 71.95L278.37 71.95Q278.37 74.45 279.54 74.45L279.54 74.45Q280.59 74.45 282.41 73.01Q284.22 71.56 286.56 69.18Q288.90 66.80 291.47 63.96L291.47 63.96L291.47 68.44Q290.54 69.57 288.76 71.35Q286.99 73.12 284.77 75.11Q282.54 77.10 280.30 78.85Q278.06 80.61 276.13 81.72Q274.20 82.83 273.03 82.83L273.03 82.83Q271.27 82.83 270.67 81.25Q270.06 79.67 270.06 77.72L270.06 77.72Q270.06 76.71 270.16 75.72Q270.26 74.72 270.38 73.94L270.38 73.94Q268.78 76.01 266.55 78.07Q264.33 80.14 261.72 81.49Q259.11 82.83 256.34 82.83ZM262.46 76.59L262.46 76.59Q263.67 76.59 265.21 75.70Q266.75 74.80 268.27 73.51Q269.79 72.23 270.84 71.09L270.84 71.09L275.33 51.91Q272.05 51.91 269.05 53.66Q266.05 55.42 263.71 58.24Q261.37 61.07 260.00 64.37Q258.64 67.66 258.64 70.74L258.64 70.74Q258.64 73.01 259.48 74.80Q260.31 76.59 262.46 76.59ZM292.29 82.83L292.29 82.83Q289.52 82.83 288.59 80.90Q287.65 78.97 287.65 76.36L287.65 76.36Q287.65 74.18 288.04 72.09Q288.43 70.00 288.67 68.75L288.67 68.75Q289.10 66.61 289.39 65.28Q289.68 63.96 290.03 62.61Q290.38 61.27 290.93 59.08Q291.47 56.90 292.37 53.04L292.37 53.04Q291.16 53.04 289.95 52.92Q288.74 52.80 288.74 51.36L288.74 51.36Q288.74 50.93 288.92 50.68Q289.10 50.43 290.19 50.31L290.19 50.31L293.46 50.00Q294.87 45.39 296.39 41.61Q297.91 37.83 300.29 35.57Q302.67 33.30 306.65 33.30L306.65 33.30L306.80 33.46Q306.80 33.62 306.18 35.37Q305.55 37.13 304.64 39.74Q303.72 42.35 302.80 45.12Q301.89 47.89 301.30 50.00L301.30 50.00L313.20 49.45L312.34 50.85Q311.91 51.67 309.82 52.06Q307.74 52.45 305.16 52.55Q302.59 52.65 300.68 52.65L300.68 52.65Q300.64 52.65 300.17 54.38Q299.70 56.12 299.00 58.77Q298.30 61.42 297.60 64.25Q296.90 67.08 296.43 69.38Q295.96 71.68 295.96 72.62L295.96 72.62Q295.96 74.06 296.23 75.13Q296.51 76.20 297.87 76.20L297.87 76.20Q298.61 76.20 300.72 74.64Q302.82 73.08 305.94 70.33Q309.06 67.58 312.73 64.11L312.73 64.11L312.73 68.44Q310.62 70.70 308.05 73.22Q305.48 75.74 302.73 77.92Q299.98 80.10 297.31 81.47Q294.63 82.83 292.29 82.83ZM320.65 81.70L312.73 81.70Q312.07 81.70 311.87 81.08Q311.68 80.45 311.68 79.95L311.68 79.95Q311.68 78.50 312.03 76.77Q312.38 75.03 312.73 73.47L312.73 73.47Q313.86 68.09 315.40 62.65Q316.94 57.21 318.31 51.91L318.31 51.91Q320.02 45.24 321.07 41.10Q322.13 36.97 322.69 34.73Q323.26 32.49 323.49 31.59Q323.73 30.69 323.84 30.50L323.84 30.50Q322.67 31.43 320.70 32.91Q318.73 34.40 316.55 35.88Q314.37 37.36 312.55 38.37Q310.74 39.39 309.84 39.39L309.84 39.39Q308.83 39.00 308.83 37.87L308.83 37.87Q308.83 37.13 309.59 36.42Q310.35 35.72 311.21 35.22L311.21 35.22Q316.78 31.67 321.80 28.61Q326.81 25.54 332.15 22.85L332.15 22.85Q332.74 22.50 333.24 22.50L333.24 22.50Q333.79 22.50 334.00 22.93Q334.22 23.36 334.22 23.95L334.22 23.95Q334.22 24.69 334.14 25.08L334.14 25.08L323.34 73.08Q323.18 74.53 322.93 76.55Q322.67 78.58 322.15 80.14Q321.62 81.70 320.65 81.70L320.65 81.70ZM338.58 82.83L338.58 82.83Q337.80 82.83 336.83 82.50Q335.86 82.17 335.86 81.23L335.86 81.23Q335.86 80.38 336.81 79.24Q337.77 78.11 338.51 77.45L338.51 77.45Q341.51 74.57 345.27 71.17Q349.04 67.78 352.84 63.96Q356.64 60.14 359.84 55.94Q363.04 51.75 364.99 47.21Q366.94 42.66 366.94 37.87L366.94 37.87Q366.94 32.29 365.32 29.52Q363.70 26.75 360.00 26.75L360.00 26.75Q358.12 26.75 355.88 27.71Q353.64 28.66 351.61 30.61Q349.58 32.56 348.28 35.59Q346.97 38.61 346.97 42.74L346.97 42.74Q348.26 44.58 349.56 45.34Q350.87 46.10 351.75 46.66Q352.62 47.23 352.62 48.48L352.62 48.48Q352.62 48.98 352.21 49.65Q351.81 50.31 350.71 50.31L350.71 50.31Q350.13 50.31 348.37 49.29Q346.62 48.28 344.59 46.86Q342.56 45.43 341.10 44.19Q339.64 42.94 339.64 42.47L339.64 42.47Q339.64 36.07 342.23 31.63Q344.82 27.18 349.15 24.84Q353.48 22.50 358.63 22.50L358.63 22.50Q363.23 22.50 366.33 23.69Q369.43 24.88 371.34 26.75Q373.25 28.62 374.25 30.69Q375.24 32.76 375.59 34.55Q375.95 36.35 375.95 37.36L375.95 37.36Q375.95 41.88 374.03 46.35Q372.12 50.82 369.06 54.97Q366.00 59.12 362.47 62.75Q358.94 66.38 355.61 69.22Q352.27 72.07 349.86 73.92Q347.44 75.77 346.66 76.36L346.66 76.36Q350.95 75.70 355.43 74.55Q359.92 73.40 364.28 73.40L364.28 73.40Q365.49 73.40 366.84 73.55Q368.18 73.71 369.12 74.27Q370.06 74.84 370.06 76.05L370.06 76.05Q370.06 77.02 369.57 78.62Q369.08 80.22 368.26 81.53Q367.44 82.83 366.39 82.83L366.39 82.83Q363.43 82.83 360.72 82.31Q358.01 81.78 355.12 81.78L355.12 81.78Q350.99 81.78 346.85 82.31Q342.72 82.83 338.58 82.83ZM386.24 82.83L386.24 82.83Q383.78 82.83 382.48 81.19Q381.17 79.56 380.70 77.26Q380.24 74.96 380.24 72.93L380.24 72.93Q380.24 68.60 382.28 64.35Q384.33 60.10 387.92 56.61Q391.51 53.12 396.17 51.03Q400.83 48.94 406.01 48.94L406.01 48.94Q407.77 48.94 409.33 49.31Q410.89 49.68 412.57 50.23L412.57 50.23Q412.49 50.70 412.02 52.75Q411.55 54.79 410.93 57.64Q410.30 60.49 409.70 63.41Q409.09 66.34 408.68 68.66Q408.28 70.98 408.28 71.95L408.28 71.95Q408.28 74.45 409.45 74.45L409.45 74.45Q410.50 74.45 412.31 73.01Q414.13 71.56 416.46 69.18Q418.80 66.80 421.38 63.96L421.38 63.96L421.38 68.44Q420.44 69.57 418.67 71.35Q416.89 73.12 414.67 75.11Q412.45 77.10 410.21 78.85Q407.96 80.61 406.03 81.72Q404.10 82.83 402.93 82.83L402.93 82.83Q401.18 82.83 400.57 81.25Q399.97 79.67 399.97 77.72L399.97 77.72Q399.97 76.71 400.07 75.72Q400.16 74.72 400.28 73.94L400.28 73.94Q398.68 76.01 396.46 78.07Q394.24 80.14 391.62 81.49Q389.01 82.83 386.24 82.83ZM392.36 76.59L392.36 76.59Q393.57 76.59 395.11 75.70Q396.65 74.80 398.17 73.51Q399.70 72.23 400.75 71.09L400.75 71.09L405.23 51.91Q401.96 51.91 398.95 53.66Q395.95 55.42 393.61 58.24Q391.27 61.07 389.91 64.37Q388.54 67.66 388.54 70.74L388.54 70.74Q388.54 73.01 389.38 74.80Q390.22 76.59 392.36 76.59ZM456.09 82.91L456.09 82.91Q453.79 82.91 453.79 79.48L453.79 79.48Q453.79 76.79 454.61 74.14Q455.42 71.48 456.50 68.93Q457.57 66.38 458.39 63.88Q459.21 61.38 459.21 59.00L459.21 59.00Q459.21 57.99 458.49 57.07Q457.76 56.16 456.63 56.16L456.63 56.16Q454.61 56.16 452.66 58.24Q450.71 60.33 448.95 63.57Q447.20 66.80 445.73 70.37Q444.27 73.94 443.26 77.00Q442.24 80.06 441.77 81.70L441.77 81.70L434.29 81.70Q434.29 77.80 435.26 74.04Q436.24 70.28 437.45 66.55Q438.66 62.83 439.32 59.16L439.32 59.16Q439.40 58.93 439.40 58.69Q439.40 58.46 439.40 58.30L439.40 58.30Q439.40 57.17 438.83 56.59Q438.27 56.00 437.56 56.00L437.56 56.00Q437.21 56.00 436.74 56.16L436.74 56.16Q434.56 57.17 432.63 59.57Q430.70 61.97 429.04 65.11Q427.38 68.25 426.10 71.48Q424.81 74.72 423.95 77.45Q423.09 80.18 422.70 81.70L422.70 81.70L415.26 81.70Q415.37 79.95 415.86 76.85Q416.35 73.75 417.09 70.06Q417.83 66.38 418.73 62.79Q419.62 59.20 420.54 56.33Q421.46 53.47 422.31 52.14L422.31 52.14Q423.09 50.82 424.89 50.52Q426.68 50.23 430.35 50.23L430.35 50.23Q429.65 53.78 428.34 57.44Q427.03 61.11 426.06 64.54L426.06 64.54Q427.38 62.24 429.20 59.55Q431.01 56.86 433.25 54.46Q435.50 52.06 438.13 50.54Q440.76 49.02 443.72 49.02L443.72 49.02Q444.89 49.02 445.54 49.94Q446.18 50.85 446.45 52.06Q446.73 53.27 446.73 54.21L446.73 54.21Q446.73 56.82 446.06 59.47Q445.40 62.12 444.66 64.54L444.66 64.54Q445.91 62.05 447.84 59.34Q449.77 56.63 452.15 54.27Q454.53 51.91 457.16 50.43Q459.79 48.94 462.41 48.94L462.41 48.94Q464.98 48.94 465.88 50.66Q466.77 52.37 466.77 54.95L466.77 54.95Q466.77 57.56 466.25 60.31Q465.72 63.06 465.00 65.46Q464.28 67.86 463.69 69.50Q463.11 71.13 463.03 71.56L463.03 71.56Q462.99 71.91 462.93 72.21Q462.87 72.50 462.87 72.69L462.87 72.69Q462.87 73.55 463.34 73.55L463.34 73.55Q464.36 73.55 467.01 70.94Q469.66 68.33 473.48 64.54L473.48 64.54L473.48 68.95Q471.57 71.17 469.03 73.61Q466.50 76.05 463.93 78.15Q461.35 80.26 459.25 81.58Q457.14 82.91 456.09 82.91Z" transform="translate(0, 0)"></path></g></svg></svg>