<?xml version="1.0" encoding="UTF-8" standalone="no" ?>
<!DOCTYPE svg PUBLIC "-//W3C//DTD SVG 1.1//EN" "http://www.w3.org/Graphics/SVG/1.1/DTD/svg11.dtd">
<svg xmlns="http://www.w3.org/2000/svg" xmlns:xlink="http://www.w3.org/1999/xlink" version="1.1" width="1080" height="1080" viewBox="0 0 1080 1080" xml:space="preserve">
<desc>Created with Fabric.js 5.2.4</desc>
<defs>
</defs>
<g transform="matrix(1 0 0 1 540 540)" id="fb328fb6-de98-4dad-af3a-d9adc87f1ee1"  >
<rect style="stroke: none; stroke-width: 1; stroke-dasharray: none; stroke-linecap: butt; stroke-dashoffset: 0; stroke-linejoin: miter; stroke-miterlimit: 4; fill: rgb(255,255,255); fill-rule: nonzero; opacity: 1; visibility: hidden;" vector-effect="non-scaling-stroke"  x="-540" y="-540" rx="0" ry="0" width="1080" height="1080" />
</g>
<g transform="matrix(1 0 0 1 540 540)" id="c0df4433-8f20-4534-926c-6464fb402799"  >
</g>
<g transform="matrix(1 0 0 1 555.24 523)"  >
<g style="" vector-effect="non-scaling-stroke"   >
		<g transform="matrix(1 0 0 1 0 0)"  >
<rect style="stroke: none; stroke-width: 1; stroke-dasharray: none; stroke-linecap: butt; stroke-dashoffset: 0; stroke-linejoin: miter; stroke-miterlimit: 4; fill: rgb(255,255,255); fill-rule: nonzero; opacity: 1; visibility: hidden;" vector-effect="non-scaling-stroke"  x="-540" y="-540" rx="0" ry="0" width="1080" height="1080" />
</g>
		<g transform="matrix(0.05 0 0 0.05 -77.3 6.23)"  >
<path style="stroke: none; stroke-width: 1; stroke-dasharray: none; stroke-linecap: butt; stroke-dashoffset: 0; stroke-linejoin: miter; stroke-miterlimit: 4; fill: rgb(255,255,255); fill-rule: nonzero; opacity: 1;" vector-effect="non-scaling-stroke"  transform=" translate(-974.03, -2385.99)" d="M 1453.4 2516.4 C 1447.1000000000001 2485 1443.3000000000002 2453.3 1440.2 2421.5 C 1428.7 2303.6 1356 2164.6 1298.7 2075.1 C 1228.9 1966 1150.9 1862.8999999999999 1059.1000000000001 1771.1999999999998 C 987.3000000000002 1699.3999999999999 878.1000000000001 1594.8999999999999 764.6000000000001 1644.9999999999998 C 668.7000000000002 1687.3999999999999 595.6000000000001 1828.2999999999997 560.7000000000002 1920.7999999999997 C 499.90000000000015 2081.7 476.70000000000016 2256.2 486.50000000000017 2427.9999999999995 C 495.6000000000002 2588.0999999999995 511.6000000000002 2750.5999999999995 618.3000000000002 2878.5999999999995 C 718.3000000000002 2998.4999999999995 833.6000000000001 3060.5999999999995 980.2000000000002 3103.8999999999996 C 1112.1000000000001 3142.8999999999996 1289.5000000000002 3173.2999999999997 1398.3000000000002 3068.2 C 1477.1000000000001 2992 1462.7000000000003 2816.1 1462.7000000000003 2711.8999999999996 C 1462.6 2652.7 1466.9 2584.2 1453.4 2516.4 z" stroke-linecap="round" />
</g>
		<g transform="matrix(0.05 0 0 0.05 -36.31 -36.72)"  >
<path style="stroke: none; stroke-width: 1; stroke-dasharray: none; stroke-linecap: butt; stroke-dashoffset: 0; stroke-linejoin: miter; stroke-miterlimit: 4; fill: rgb(255,255,255); fill-rule: nonzero; opacity: 1;" vector-effect="non-scaling-stroke"  transform=" translate(-1872.29, -1445.01)" d="M 2355 1110.3 C 2356.6 1040.2 2334.7 959.6999999999999 2308.9 894.5999999999999 C 2282.9 828.8999999999999 2255.6 742.3999999999999 2199.4 695.8999999999999 C 2091.8 606.9999999999999 1922.8000000000002 614.6999999999998 1810.7 685.0999999999999 C 1674.6000000000001 770.5999999999999 1491.5 905.0999999999999 1427.5 1058.8 C 1412 1096 1397.6 1134.3 1385.9 1173.3 C 1359.3000000000002 1261.8999999999999 1350.2 1362.3 1351 1455.3 C 1353.3 1734.8 1386.8 2041.3 1654.7 2198.3 C 1792.6000000000001 2279.1000000000004 2015.4 2285.1000000000004 2143 2182.8 C 2277.1 2075.2000000000003 2352.7 1853.9 2377.7 1691.0000000000002 C 2393 1591.2000000000003 2396.5 1489.7000000000003 2391.5 1388.9 C 2386.9 1297.9 2353 1199.5 2355 1110.3 z" stroke-linecap="round" />
</g>
		<g transform="matrix(0.05 0 0 0.05 61.99 6.23)"  >
<path style="stroke: none; stroke-width: 1; stroke-dasharray: none; stroke-linecap: butt; stroke-dashoffset: 0; stroke-linejoin: miter; stroke-miterlimit: 4; fill: rgb(255,255,255); fill-rule: nonzero; opacity: 1;" vector-effect="non-scaling-stroke"  transform=" translate(-4025.97, -2385.99)" d="M 3546.6 2516.4 C 3552.9 2485 3556.7 2453.3 3559.7999999999997 2421.5 C 3571.2999999999997 2303.6 3643.9999999999995 2164.6 3701.2999999999997 2075.1 C 3771.1 1966 3849.1 1862.8999999999999 3940.8999999999996 1771.1999999999998 C 4012.7 1699.3999999999999 4121.9 1594.8999999999999 4235.4 1644.9999999999998 C 4331.299999999999 1687.3999999999999 4404.4 1828.2999999999997 4439.299999999999 1920.7999999999997 C 4500.099999999999 2081.7 4523.299999999999 2256.2 4513.499999999999 2427.9999999999995 C 4504.399999999999 2588.0999999999995 4488.399999999999 2750.5999999999995 4381.699999999999 2878.5999999999995 C 4281.699999999999 2998.4999999999995 4166.399999999999 3060.5999999999995 4019.799999999999 3103.8999999999996 C 3887.8999999999987 3142.8999999999996 3710.4999999999986 3173.2999999999997 3601.699999999999 3068.2 C 3522.8999999999987 2992 3537.299999999999 2816.1 3537.299999999999 2711.8999999999996 C 3537.4 2652.7 3533.1 2584.2 3546.6 2516.4 z" stroke-linecap="round" />
</g>
		<g transform="matrix(0.05 0 0 0.05 20.86 -36.72)"  >
<path style="stroke: none; stroke-width: 1; stroke-dasharray: none; stroke-linecap: butt; stroke-dashoffset: 0; stroke-linejoin: miter; stroke-miterlimit: 4; fill: rgb(255,255,255); fill-rule: nonzero; opacity: 1;" vector-effect="non-scaling-stroke"  transform=" translate(-3124.83, -1445.01)" d="M 2630.8 1107 C 2645.3 1045.7 2664.1000000000004 985.2 2681.7000000000003 924.6 C 2704.1000000000004 847.3000000000001 2736.3 749.1 2800.6000000000004 695.9000000000001 C 2908.2000000000003 607.0000000000001 3077.2000000000003 614.7 3189.3 685.1000000000001 C 3325.4 770.6000000000001 3508.5 905.1000000000001 3572.5 1058.8000000000002 C 3588 1096.0000000000002 3602.4 1134.3000000000002 3614.1 1173.3000000000002 C 3640.7 1261.9 3649.7999999999997 1362.3000000000002 3649 1455.3000000000002 C 3646.7 1734.8000000000002 3613.2 2041.3000000000002 3345.3 2198.3 C 3207.4 2279.1000000000004 2984.6000000000004 2285.1000000000004 2857 2182.8 C 2722.9 2075.2000000000003 2647.3 1853.9 2622.3 1691.0000000000002 C 2599.5 1542.3000000000002 2594.5 1391.5000000000002 2608.1000000000004 1240.2000000000003 C 2612.2 1195 2620.4 1150.8 2630.8 1107 z" stroke-linecap="round" />
</g>
		<g transform="matrix(0.05 0 0 0.05 -7.66 48.85)"  >
<path style="stroke: none; stroke-width: 1; stroke-dasharray: none; stroke-linecap: butt; stroke-dashoffset: 0; stroke-linejoin: miter; stroke-miterlimit: 4; fill: rgb(255,255,255); fill-rule: nonzero; opacity: 1;" vector-effect="non-scaling-stroke"  transform=" translate(-2500, -3319.81)" d="M 3706.4 3506.3 C 3666 3346.1000000000004 3594.3 3220.8 3478.1 3103.5 C 3369.1 2993.5 3248.6 2887.5 3156.2999999999997 2762.6 C 3105.1 2693.2 3068.9999999999995 2613.5 3014.1 2547 C 2970.1 2493.7 2914.6 2443.4 2862.6 2397.6 C 2782.7999999999997 2327.4 2657.7 2285 2544.9 2272.7 C 2531.2000000000003 2271.2 2517.4 2270.5 2503.6 2270.5 L 2496.6 2270.5 C 2482.7 2270.5 2468.7999999999997 2271.2 2455 2272.7 C 2342.3 2285.1 2217.2 2327.2999999999997 2137.4 2397.6 C 2085.4 2443.5 2029.9 2493.7 1985.9 2547 C 1931 2613.5 1894.9 2693.2 1843.7 2762.6 C 1751.4 2887.5 1630.9 2993.5 1521.9 3103.5 C 1405.8000000000002 3220.8 1334 3346 1293.6000000000001 3506.3 C 1239.5000000000002 3720.9 1270.7 3984.2000000000003 1439.4 4142.6 C 1597.2 4290.8 1794.3000000000002 4398.8 2016.1000000000001 4361.8 C 2083 4350.7 2144.7000000000003 4322.7 2208.1000000000004 4301.400000000001 C 2268.3 4281.200000000001 2321.6000000000004 4274.700000000001 2381.9000000000005 4257.8 C 2418.9000000000005 4247.400000000001 2463.0000000000005 4248.8 2500.0000000000005 4245.400000000001 C 2537.0000000000005 4248.8 2573.0000000000005 4255.3 2609.9000000000005 4265.700000000001 C 2670.2000000000007 4282.6 2731.7000000000007 4281.200000000001 2791.9000000000005 4301.400000000001 C 2855.3000000000006 4322.700000000001 2917.0000000000005 4350.700000000001 2983.9000000000005 4361.8 C 3205.7000000000007 4398.7 3402.8000000000006 4290.8 3560.6000000000004 4142.6 C 3729.3 3984.2 3760.5 3720.9 3706.4 3506.3 z" stroke-linecap="round" />
</g>
		<g transform="matrix(0.05 0 0 0.05 -5.66 22.3)"  >
<path style="stroke: none; stroke-width: 1; stroke-dasharray: none; stroke-linecap: butt; stroke-dashoffset: 0; stroke-linejoin: miter; stroke-miterlimit: 4; fill: rgb(168,117,177); fill-rule: nonzero; opacity: 1;" vector-effect="non-scaling-stroke"  transform=" translate(-2543.64, -2738.1)" d="M 2558.3 2761.3 C 2558 2760.7000000000003 2557.8 2760.2000000000003 2557.7000000000003 2759.7000000000003 C 2594.5000000000005 2745.5000000000005 2633.2000000000003 2736.0000000000005 2672.4 2731.6000000000004 C 2672.6 2731.6000000000004 2672.8 2731.6000000000004 2673 2731.6000000000004 C 2673.1 2731.6000000000004 2673.2 2731.5000000000005 2673.3 2731.5000000000005 C 2699.3 2728.6000000000004 2725.5 2727.8000000000006 2751.6000000000004 2729.4000000000005 C 2777.7000000000003 2731.0000000000005 2803.6000000000004 2734.8000000000006 2829.1000000000004 2740.9000000000005 C 2833.9000000000005 2742.1000000000004 2835.8 2734.6000000000004 2831.0000000000005 2733.4000000000005 C 2810.0000000000005 2728.4000000000005 2788.7000000000003 2725.0000000000005 2767.3000000000006 2723.0000000000005 C 2765.2000000000007 2722.2000000000003 2763.2000000000007 2721.3000000000006 2761.100000000001 2720.5000000000005 C 2746.100000000001 2714.0000000000005 2730.8000000000006 2710.8000000000006 2716.600000000001 2701.6000000000004 C 2698.2000000000007 2689.7000000000003 2685.2000000000007 2673.9000000000005 2670.900000000001 2657.7000000000003 C 2655.200000000001 2640.0000000000005 2637.900000000001 2624.7000000000003 2619.500000000001 2609.7000000000003 C 2600.7000000000007 2594.4 2579.900000000001 2583.1000000000004 2556.7000000000007 2575.5000000000005 C 2532.600000000001 2567.7000000000003 2506.7000000000007 2562.8000000000006 2484.100000000001 2551.4000000000005 C 2489.2000000000007 2555.2000000000007 2493.100000000001 2560.3000000000006 2497.3000000000006 2565.6000000000004 C 2517.0000000000005 2590.2000000000003 2535.5000000000005 2612.4000000000005 2559.600000000001 2632.8 C 2592.3000000000006 2660.4 2627.400000000001 2687.2000000000003 2668.3000000000006 2701.3 C 2689.9000000000005 2708.7000000000003 2712.4000000000005 2715 2734.5000000000005 2721.1000000000004 C 2713.5000000000005 2720.6000000000004 2692.4000000000005 2721.5000000000005 2671.5000000000005 2723.9000000000005 C 2628.7000000000003 2726.4000000000005 2585.8000000000006 2722.1000000000004 2544.1000000000004 2712.5000000000005 C 2531.3 2705.5000000000005 2519.7000000000003 2693.2000000000003 2509.3 2683.6000000000004 C 2482.8 2659.1000000000004 2457.2000000000003 2632.8 2429 2610.0000000000005 C 2409.3 2594.1000000000004 2390.1 2582.8000000000006 2365.6 2577.6000000000004 C 2342.4 2572.7000000000003 2317.9 2571.7000000000003 2295.2999999999997 2565.2000000000003 C 2317.2 2604.6000000000004 2350.4999999999995 2644.3 2387.9999999999995 2669.7000000000003 C 2416.6999999999994 2689.2000000000003 2446.7999999999997 2705.6000000000004 2481.4999999999995 2710.4 C 2497.5999999999995 2712.6 2515.1999999999994 2715.9 2532.2999999999997 2717.6 C 2562.3999999999996 2725.2 2593.2999999999997 2730 2624.2999999999997 2731.6 C 2600.6 2736.7 2577.2999999999997 2743.7 2554.7 2752.4 C 2547.3999999999996 2755.2000000000003 2540.2 2758.3 2533 2761.5 C 2506.2 2770.5 2480.4 2778.7 2450.6 2773.4 C 2415 2767 2386.6 2745.8 2349.5 2742.2000000000003 C 2329.8 2740.3 2309.3 2740.0000000000005 2290.5 2746.8 C 2275.6 2752.2000000000003 2265.8 2763.8 2253.5 2771.5 C 2289.2 2806 2364.7 2820.1 2412.4 2809.6 C 2389.2000000000003 2819.9 2362.7000000000003 2835.2 2343.6 2852.4 C 2320.7 2873 2310 2902.7000000000003 2289.7999999999997 2924.8 C 2302.8999999999996 2920.8 2317.2999999999997 2923.7000000000003 2330.7999999999997 2920.6000000000004 C 2363.7999999999997 2913.0000000000005 2393.4999999999995 2892.0000000000005 2417.7 2869.3 C 2443.1 2845.5 2465.2999999999997 2819.9 2493.7999999999997 2799.1000000000004 C 2501.6 2793.4000000000005 2513.6 2782.0000000000005 2526.2999999999997 2773.2000000000003 C 2535.3999999999996 2768.9 2544.6 2764.8 2553.9999999999995 2761.1000000000004 C 2555.4 2761.1 2556.8 2761.1 2558.3 2761.3 z" stroke-linecap="round" />
</g>
		<g transform="matrix(0.05 0 0 0.05 22.35 -41.56)"  >
<path style="stroke: none; stroke-width: 1; stroke-dasharray: none; stroke-linecap: butt; stroke-dashoffset: 0; stroke-linejoin: miter; stroke-miterlimit: 4; fill: rgb(168,117,177); fill-rule: nonzero; opacity: 1;" vector-effect="non-scaling-stroke"  transform=" translate(-3157.37, -1338.88)" d="M 2885.4 1553.7 C 2906.1 1547.6000000000001 2926.3 1540 2945.9 1531.1000000000001 C 2948.1 1530.8000000000002 2950.3 1530.5000000000002 2952.6 1530.2 C 2968.7999999999997 1528.4 2983.7 1523.6000000000001 3000.6 1524.5 C 3022.5 1525.7 3041.6 1533 3062.1 1539.9 C 3084.5 1547.5 3107.2 1552.2 3130.5 1556.1000000000001 C 3154.4 1560.1000000000001 3178.1 1559.6000000000001 3202 1554.6000000000001 C 3226.8 1549.4 3251.7 1540.8000000000002 3277 1539.5000000000002 C 3270.7 1538.7000000000003 3264.8 1536.2000000000003 3258.5 1533.7000000000003 C 3229.2 1522.1000000000004 3202.1 1512.0000000000002 3171.1 1506.3000000000002 C 3129.1 1498.5000000000002 3085.2 1492.7000000000003 3042.7 1500.8000000000002 C 3020.2999999999997 1505.0000000000002 2997.7 1510.8000000000002 2975.3999999999996 1516.5000000000002 C 2993.8999999999996 1506.5000000000002 3011.7 1495.2000000000003 3028.7 1482.8000000000002 C 3064.6 1459.4 3104 1441.9 3145 1429.5000000000002 C 3159.6 1429.3000000000002 3175.8 1434.2000000000003 3189.6 1437.4000000000003 C 3224.7999999999997 1445.5000000000002 3260 1455.7000000000003 3295.7999999999997 1461.5000000000002 C 3320.7999999999997 1465.5000000000002 3342.9999999999995 1465.8000000000002 3366.8999999999996 1458.2000000000003 C 3389.4999999999995 1451.0000000000002 3411.2999999999997 1439.7000000000003 3434.0999999999995 1434.1000000000004 C 3395.5999999999995 1410.7000000000003 3346.8999999999996 1392.8000000000004 3301.7999999999993 1389.3000000000004 C 3267.1999999999994 1386.6000000000004 3232.899999999999 1387.3000000000004 3200.399999999999 1400.4000000000003 C 3185.2999999999993 1406.4000000000003 3168.399999999999 1412.4000000000003 3152.6999999999994 1419.3000000000004 C 3122.7999999999993 1427.6000000000004 3093.5999999999995 1438.8000000000004 3065.899999999999 1452.8000000000004 C 3083.899999999999 1436.6000000000004 3100.6999999999994 1419.0000000000005 3115.999999999999 1400.2000000000005 C 3120.899999999999 1394.1000000000006 3125.699999999999 1387.9000000000005 3130.2999999999993 1381.5000000000005 C 3149.0999999999995 1360.5000000000005 3167.399999999999 1340.5000000000005 3195.999999999999 1330.3000000000004 C 3230.099999999999 1318.2000000000005 3265.2999999999993 1322.5000000000005 3299.2999999999993 1307.2000000000005 C 3317.2999999999993 1299.1000000000006 3335.2999999999993 1289.1000000000006 3348.1999999999994 1273.9000000000005 C 3358.4999999999995 1261.8000000000006 3361.1999999999994 1246.9000000000005 3368.0999999999995 1234.1000000000006 C 3319.9999999999995 1221.9000000000005 3247.4999999999995 1247.1000000000006 3211.1999999999994 1279.9000000000005 C 3226.1999999999994 1259.5000000000005 3241.6999999999994 1233.0000000000005 3249.6999999999994 1208.6000000000006 C 3259.2999999999993 1179.4000000000005 3253.9999999999995 1148.3000000000006 3260.4999999999995 1119.0000000000007 C 3251.0999999999995 1129.0000000000007 3237.0999999999995 1133.6000000000006 3226.8999999999996 1143.0000000000007 C 3201.9999999999995 1166.0000000000007 3186.7 1198.9000000000008 3176.8999999999996 1230.6000000000006 C 3166.5999999999995 1263.9000000000005 3160.0999999999995 1297.1000000000006 3145.5999999999995 1329.3000000000006 C 3141.5999999999995 1338.2000000000007 3136.8999999999996 1353.9000000000005 3130.1999999999994 1367.9000000000005 C 3124.399999999999 1376.2000000000005 3118.399999999999 1384.3000000000006 3112.0999999999995 1392.1000000000006 L 3109.5999999999995 1395.2000000000005 C 3084.6999999999994 1425.8000000000004 3055.7999999999993 1453.2000000000005 3023.8999999999996 1476.6000000000006 C 3023.7 1476.7000000000005 3023.5999999999995 1476.8000000000006 3023.3999999999996 1476.9000000000005 C 3023.2999999999997 1477.0000000000005 3023.2999999999997 1477.0000000000005 3023.2 1477.1000000000006 C 3002.1 1492.5000000000007 2979.7 1506.2000000000005 2956.2 1517.8000000000006 C 2932.7 1529.4000000000008 2908.2999999999997 1538.9000000000005 2883.2 1546.3000000000006 C 2878.6 1547.7 2880.7 1555.1 2885.4 1553.7 z" stroke-linecap="round" />
</g>
		<g transform="matrix(0.05 0 0 0.05 -34.14 61.7)"  >
<path style="stroke: none; stroke-width: 1; stroke-dasharray: none; stroke-linecap: butt; stroke-dashoffset: 0; stroke-linejoin: miter; stroke-miterlimit: 4; fill: rgb(168,117,177); fill-rule: nonzero; opacity: 1;" vector-effect="non-scaling-stroke"  transform=" translate(-1919.74, -3601.4)" d="M 2230.3 3928.7 C 2222.1000000000004 3929.2 2213.9 3929.6 2205.7000000000003 3929.7999999999997 C 2196.0000000000005 3926.7999999999997 2186.4 3924.7 2177.3 3918.4999999999995 C 2154.3 3902.9999999999995 2133.7000000000003 3880.9999999999995 2115.3 3859.9999999999995 C 2084.1000000000004 3824.3999999999996 2066.4 3781.4999999999995 2046.8000000000002 3737.7999999999997 C 2019.6000000000001 3677.2999999999997 1969.0000000000002 3643.7 1930.1000000000001 3593.1 C 1947.2 3645.2999999999997 1952.3000000000002 3702.5 1982.6000000000001 3750 C 2015.5000000000002 3801.6 2062.1000000000004 3841.2 2108.4 3879.9 C 2125.5 3894.2000000000003 2156.9 3925.2000000000003 2182.9 3929.7000000000003 C 2171.2000000000003 3929.4 2159.5 3928.5000000000005 2147.8 3926.6000000000004 C 2122.2000000000003 3922.5000000000005 2097.1000000000004 3915.0000000000005 2073.5 3904.4000000000005 C 2025.3 3882.7000000000007 1986.4 3848.3000000000006 1954.2 3806.8000000000006 C 1933.9 3780.600000000001 1916 3752.7000000000007 1897.1000000000001 3725.5000000000005 C 1873.1000000000001 3689.1000000000004 1850.9 3651.6000000000004 1832.7 3612.0000000000005 C 1829.9 3605.9000000000005 1827.3 3599.7000000000003 1824.7 3593.6000000000004 C 1825 3574.1000000000004 1832 3555.6000000000004 1840.4 3536.2000000000003 C 1855.5 3501.6000000000004 1867.8000000000002 3452.9 1870.9 3415.4 C 1874.8000000000002 3369.6 1862.1000000000001 3327.5 1880.9 3283.5 C 1848 3316.9 1825.2 3359.1 1817.7 3406.5 C 1809.1000000000001 3460.6 1820.6000000000001 3516.6 1815.6000000000001 3570.9 C 1796.8000000000002 3520.8 1784.6000000000001 3468.3 1780.9 3414.8 C 1779.9 3400.9 1779.6000000000001 3387 1779.6000000000001 3373.1000000000004 C 1780.0000000000002 3372.1000000000004 1780.5000000000002 3371.2000000000003 1781.0000000000002 3370.2000000000003 C 1792.2000000000003 3349.2000000000003 1800.2000000000003 3326.4 1810.3000000000002 3304.9 C 1818.1000000000001 3288.3 1828.1000000000001 3272.5 1835.1000000000001 3255.5 C 1840.9 3241.5 1842.4 3227.8 1845.1000000000001 3213.1 C 1848.8000000000002 3192.6 1853.5000000000002 3174.7 1849.7 3153.7 C 1847.5 3142 1842.2 3130.3999999999996 1841.1000000000001 3118.5 C 1834.3000000000002 3136.2 1819.2 3152.7 1809.8000000000002 3169.7 C 1797.2000000000003 3192.3999999999996 1784.8000000000002 3215.7 1773.7000000000003 3239.2 C 1760.6000000000004 3266.8999999999996 1754.9000000000003 3294.2 1759.3000000000002 3324.2999999999997 C 1761.9 3341.4999999999995 1770.4 3360.2 1772.2000000000003 3377.9999999999995 C 1772.4000000000003 3420.0999999999995 1776.9000000000003 3462.1999999999994 1786.7000000000003 3503.4999999999995 C 1784.4000000000003 3500.4999999999995 1782.1000000000004 3497.4999999999995 1780.5000000000002 3494.1999999999994 C 1774.2000000000003 3481.1999999999994 1770.4000000000003 3464.9999999999995 1767.1000000000001 3451.0999999999995 C 1758.1000000000001 3413.0999999999995 1742.5000000000002 3375.2999999999993 1724.0000000000002 3340.9999999999995 C 1712.3000000000002 3319.2999999999997 1703.0000000000002 3294.4999999999995 1688.6000000000001 3274.3999999999996 C 1679.9 3262.2 1653.7 3237.5999999999995 1637.9 3237.7999999999997 C 1645.2 3247.8999999999996 1650.8000000000002 3260.2999999999997 1655.9 3271.6 C 1669.9 3302.9 1684.8000000000002 3333.7 1699.1000000000001 3364.9 C 1713.6000000000001 3396.6 1731.3000000000002 3426.6 1746.9 3457.7000000000003 C 1758 3479.8 1772.5 3506.1000000000004 1791.9 3523.4 C 1806 3574.1 1827.1000000000001 3622.4 1852.8000000000002 3668.3 C 1834.8000000000002 3648.1000000000004 1814.5000000000002 3629.6000000000004 1791.8000000000002 3615.2000000000003 C 1791.5000000000002 3614.8 1791.2000000000003 3614.4 1790.9 3614.1000000000004 C 1777.2 3596.9000000000005 1758.1000000000001 3585.1000000000004 1740.5 3572.3 C 1708.7 3549.1000000000004 1676 3522.4 1638.6 3508.7000000000003 C 1589 3490.7000000000003 1514.3 3484.2000000000003 1475.8999999999999 3527.3 C 1487.6999999999998 3531.6000000000004 1500.8999999999999 3532.6000000000004 1513.3 3534.5 C 1557.7 3541 1600.1 3553.3 1642.8 3566.9 C 1675.7 3577.4 1713.6 3594.5 1747 3602 C 1810.9 3623.2 1853.6 3676.8 1891.9 3732 C 1899.9 3744.1 1908.1000000000001 3756 1916.5 3767.9 L 1916.5 3767.9 C 1924.7 3779.8 1932.8 3791.6 1941.2 3802.7000000000003 C 1953 3818.5000000000005 1965.7 3833.5000000000005 1979.3 3847.4 C 1963.7 3838 1947.5 3829.4 1931 3821.7000000000003 C 1925.4 3818.6000000000004 1919.9 3815.5000000000005 1914.5 3811.9 C 1897.3 3800.6 1886.5 3780.3 1869.9 3767.7000000000003 C 1856.5 3757.5000000000005 1844.4 3745.8 1832 3734.4 C 1810.1 3714.2000000000003 1785 3697.7000000000003 1762.4 3678.4 C 1742.7 3661.6 1724.8000000000002 3645.8 1702.5 3632.6 C 1676.7 3617.2999999999997 1648.3 3615.2 1620.8 3605.2 C 1629.8 3618.2 1641.3 3631.1 1651.5 3643.6 C 1663.5 3658.4 1677 3669.6 1691.9 3681.4 C 1711 3696.4 1732.5 3702.8 1754.2 3712.8 C 1788.7 3728.7000000000003 1819.8 3748.8 1851.8 3769.2000000000003 C 1872.8 3782.6000000000004 1891.2 3798.7000000000003 1911.2 3813.0000000000005 C 1894.3 3806.0000000000005 1877 3799.8000000000006 1859.4 3794.6000000000004 C 1833.1000000000001 3776.4000000000005 1798.1000000000001 3771.9000000000005 1768 3761.6000000000004 C 1750.5 3755.6000000000004 1734.7 3749.8 1716 3749.0000000000005 C 1693.7 3748.0000000000005 1672.2 3749.7000000000003 1650.3 3753.7000000000003 C 1608.8 3761.3 1568.6 3772.7000000000003 1528.5 3785.4 C 1510 3791.3 1484.2 3800.6 1465.6 3800.6 C 1519.6 3813.2999999999997 1575.3999999999999 3842 1632.3 3837.7 C 1683.7 3833.7999999999997 1732.7 3819.7999999999997 1783.8 3813.2 C 1811.8999999999999 3809.5 1843.3999999999999 3803 1872.3 3807.6 C 1895.1 3815.2999999999997 1917.6 3824.5 1939.2 3835 C 1912.6000000000001 3830.6 1886 3829.9 1859 3827.8 C 1819.2 3824.7000000000003 1784.1 3829.7000000000003 1745.5 3838.7000000000003 C 1716.1 3845.5000000000005 1688.7 3859.9 1660.4 3870.2000000000003 C 1648.9 3874.4 1637.5 3881.2000000000003 1625.3000000000002 3883.0000000000005 C 1630.4 3885.6000000000004 1636.3000000000002 3885.0000000000005 1641.9 3885.3000000000006 C 1662.8000000000002 3886.600000000001 1683.3000000000002 3886.8000000000006 1704.2 3887.0000000000005 C 1732.6000000000001 3887.4000000000005 1762.2 3891.5000000000005 1790.2 3886.0000000000005 C 1809.1000000000001 3882.3000000000006 1828.9 3878.8000000000006 1847.5 3873.6000000000004 C 1863.7 3869.1000000000004 1878 3860.2000000000003 1894.7 3856.5000000000005 C 1913.6000000000001 3852.4000000000005 1930.9 3844.4000000000005 1950.3 3845.5000000000005 C 1958.1 3845.9000000000005 1963 3848.7000000000003 1969.8999999999999 3851.0000000000005 C 1986.8999999999999 3860.5000000000005 2003.1 3870.8000000000006 2018.3 3881.6000000000004 C 2019.6 3882.5000000000005 2020.8 3883.4000000000005 2022.1 3884.3 C 2023.5 3885.3 2025 3886.4 2026.3999999999999 3887.4 C 2026.8 3887.7000000000003 2026.8999999999999 3887.7000000000003 2027.1 3887.7000000000003 C 2035.1 3893.1000000000004 2043.1999999999998 3898.2000000000003 2051.9 3902.9 C 2086.6 3921.4 2124.9 3932.9 2163.9 3936.8 C 2118.2000000000003 3942.2000000000003 2071.3 3956.6000000000004 2031.1000000000001 3979 C 2001.9 3995.3 1971.1000000000001 4014.3 1949.3000000000002 4040.2 C 1938.0000000000002 4053.6 1925.4 4072.3999999999996 1910.8000000000002 4084.2999999999997 C 1924.4 4076.1 1943.9 4072.7 1957.9 4068.3999999999996 C 1986.8000000000002 4059.3999999999996 2015.1000000000001 4050.9999999999995 2041 4034.7999999999997 C 2065.2 4019.6 2087.5 4002.4999999999995 2110.4 3985.4999999999995 C 2123.6 3975.6999999999994 2137.6 3964.0999999999995 2153.4 3959.1999999999994 C 2174 3952.7999999999993 2195.3 3947.9999999999995 2215.8 3942.0999999999995 C 2224.4 3939.5999999999995 2232.2000000000003 3936.6999999999994 2240.9 3936.0999999999995 C 2241.1 3936.0999999999995 2241.2000000000003 3936.0999999999995 2241.4 3936.0999999999995 C 2244.7000000000003 3935.8999999999996 2248 3936.0999999999995 2251.6 3935.5999999999995 C 2293.7999999999997 3933.6999999999994 2336.6 3935.9999999999995 2367.2999999999997 3967.4999999999995 C 2370.7999999999997 3971.0999999999995 2376.2 3965.5999999999995 2372.7999999999997 3961.9999999999995 C 2335.8 3923.6 2279.2 3925.7 2230.3 3928.7 z" stroke-linecap="round" />
</g>
		<g transform="matrix(0.05 0 0 0.05 15.99 56.51)"  >
<path style="stroke: none; stroke-width: 1; stroke-dasharray: none; stroke-linecap: butt; stroke-dashoffset: 0; stroke-linejoin: miter; stroke-miterlimit: 4; fill: rgb(168,117,177); fill-rule: nonzero; opacity: 1;" vector-effect="non-scaling-stroke"  transform=" translate(-3018.15, -3487.54)" d="M 3323.2 3703.4 C 3286.2999999999997 3730.9 3253.8999999999996 3767.7000000000003 3230.2 3807.1 C 3242.7999999999997 3769.9 3248 3730.2999999999997 3245.3999999999996 3691 C 3244.7 3679.8 3243.0999999999995 3668.9 3241.0999999999995 3658.1 C 3241.0999999999995 3657.9 3241.1999999999994 3657.7999999999997 3241.0999999999995 3657.6 C 3236.9999999999995 3636 3233.9999999999995 3613.2 3232.1999999999994 3589.9 C 3232.4999999999995 3584.8 3232.6999999999994 3580.3 3234.899999999999 3574.7000000000003 C 3241.899999999999 3556.6000000000004 3256.2999999999993 3544.1000000000004 3267.7999999999993 3528.6000000000004 C 3277.999999999999 3514.9000000000005 3291.999999999999 3505.6000000000004 3302.6999999999994 3492.6000000000004 C 3315.0999999999995 3477.8 3326.399999999999 3461.2000000000003 3337.4999999999995 3445.5000000000005 C 3353.9999999999995 3422.2000000000003 3362.3999999999996 3393.6000000000004 3373.7999999999997 3367.5000000000005 C 3382.2 3348.3000000000006 3390.4999999999995 3329.6000000000004 3397.8999999999996 3310.0000000000005 C 3399.8999999999996 3304.7000000000003 3402.7999999999997 3299.7000000000003 3402.5999999999995 3293.9000000000005 C 3395.9999999999995 3304.3000000000006 3385.0999999999995 3311.9000000000005 3376.4999999999995 3320.7000000000007 C 3355.4999999999995 3342.2000000000007 3331.0999999999995 3361.3000000000006 3312.7999999999997 3385.3000000000006 C 3288.7999999999997 3416.8000000000006 3269.7999999999997 3446.8000000000006 3256.2 3484.3000000000006 C 3247.2999999999997 3509.0000000000005 3237.3999999999996 3532.9000000000005 3230.5 3558.100000000001 C 3229.9 3533.900000000001 3230.7 3509.400000000001 3233.1 3485.2000000000007 C 3241.2 3458.000000000001 3259.4 3433.000000000001 3273.7999999999997 3409.7000000000007 C 3300.7999999999997 3365.9000000000005 3333.7 3327.000000000001 3358.3999999999996 3281.7000000000007 C 3385.7999999999997 3231.600000000001 3382.4999999999995 3169.000000000001 3393.0999999999995 3114.500000000001 C 3385.4999999999995 3131.400000000001 3366.3999999999996 3151.100000000001 3353.3999999999996 3165.600000000001 C 3325.3999999999996 3197.000000000001 3298.3999999999996 3228.900000000001 3274.4999999999995 3263.600000000001 C 3261.8999999999996 3281.900000000001 3251.4999999999995 3300.8000000000006 3243.1999999999994 3321.600000000001 C 3236.2999999999993 3339.000000000001 3235.0999999999995 3355.7000000000007 3233.399999999999 3374.2000000000007 C 3230.399999999999 3405.8000000000006 3220.1999999999994 3439.600000000001 3225.899999999999 3471.100000000001 C 3223.399999999999 3489.100000000001 3221.899999999999 3507.2000000000007 3221.399999999999 3525.400000000001 C 3216.6999999999994 3501.500000000001 3209.399999999999 3478.200000000001 3205.899999999999 3453.800000000001 C 3200.499999999999 3416.300000000001 3194.899999999999 3379.6000000000013 3194.599999999999 3341.6000000000013 C 3194.399999999999 3317.700000000001 3197.399999999999 3295.5000000000014 3191.599999999999 3271.9000000000015 C 3186.999999999999 3253.4000000000015 3182.299999999999 3236.6000000000013 3173.699999999999 3219.5000000000014 C 3166.3999999999987 3205.0000000000014 3159.3999999999987 3189.200000000001 3151.299999999999 3175.700000000001 C 3149.099999999999 3204.900000000001 3139.3999999999987 3231.700000000001 3142.699999999999 3261.5000000000014 C 3145.599999999999 3287.3000000000015 3152.599999999999 3310.1000000000013 3159.799999999999 3335.0000000000014 C 3168.099999999999 3363.6000000000013 3172.8999999999987 3393.3000000000015 3182.299999999999 3421.5000000000014 C 3187.599999999999 3437.5000000000014 3193.199999999999 3453.3000000000015 3197.099999999999 3469.700000000001 C 3201.799999999999 3490.0000000000014 3215.799999999999 3508.200000000001 3219.099999999999 3528.5000000000014 C 3220.099999999999 3534.8000000000015 3220.699999999999 3541.200000000001 3221.199999999999 3547.5000000000014 C 3221.3999999999987 3565.700000000001 3222.599999999999 3584.0000000000014 3224.799999999999 3602.1000000000013 C 3217.799999999999 3583.9000000000015 3209.299999999999 3566.200000000001 3199.699999999999 3549.0000000000014 C 3192.999999999999 3536.8000000000015 3185.599999999999 3524.6000000000013 3178.099999999999 3512.200000000001 C 3178.099999999999 3512.200000000001 3178.099999999999 3512.200000000001 3178.099999999999 3512.1000000000013 C 3170.699999999999 3499.6000000000013 3163.199999999999 3487.200000000001 3155.499999999999 3475.0000000000014 C 3123.7999999999993 3422.200000000001 3094.899999999999 3366.6000000000013 3095.599999999999 3306.200000000001 C 3096.599999999999 3298.700000000001 3097.799999999999 3291.400000000001 3098.499999999999 3285.0000000000014 C 3102.599999999999 3250.6000000000013 3105.899999999999 3216.1000000000013 3109.899999999999 3181.6000000000013 C 3114.999999999999 3137.1000000000013 3121.2999999999993 3093.4000000000015 3133.599999999999 3050.300000000001 C 3136.999999999999 3038.200000000001 3141.499999999999 3025.700000000001 3142.399999999999 3013.200000000001 C 3087.2999999999993 3030.400000000001 3062.499999999999 3101.200000000001 3058.599999999999 3153.900000000001 C 3055.599999999999 3193.600000000001 3066.599999999999 3234.400000000001 3074.699999999999 3272.900000000001 C 3078.699999999999 3292.200000000001 3081.599999999999 3312.200000000001 3089.499999999999 3330.300000000001 C 3092.899999999999 3358.800000000001 3101.899999999999 3386.800000000001 3113.599999999999 3413.200000000001 C 3084.599999999999 3374.0000000000014 3051.999999999999 3337.400000000001 3015.099999999999 3305.400000000001 C 2998.299999999999 3278.900000000001 2983.699999999999 3247.600000000001 2975.699999999999 3215.200000000001 C 2964.999999999999 3172.0000000000014 2963.499999999999 3128.800000000001 2947.499999999999 3086.300000000001 C 2939.2999999999993 3064.500000000001 2928.7999999999993 3043.700000000001 2913.399999999999 3026.200000000001 C 2894.1999999999994 3004.300000000001 2871.099999999999 2987.6000000000013 2853.6999999999994 2964.300000000001 C 2862.2999999999993 2984.000000000001 2861.4999999999995 3012.300000000001 2863.6999999999994 3033.300000000001 C 2867.4999999999995 3070.200000000001 2876.399999999999 3103.800000000001 2892.5999999999995 3137.6000000000013 C 2912.8999999999996 3180.1000000000013 2933.7999999999993 3228.4000000000015 2963.9999999999995 3266.300000000001 C 2938.1999999999994 3248.900000000001 2911.0999999999995 3233.800000000001 2882.8999999999996 3220.900000000001 C 2876.9999999999995 3217.200000000001 2871.2999999999997 3212.800000000001 2865.5999999999995 3208.400000000001 C 2836.1999999999994 3185.500000000001 2800.9999999999995 3161.700000000001 2766.5999999999995 3147.300000000001 C 2699.9999999999995 3119.500000000001 2632.0999999999995 3108.900000000001 2560.5999999999995 3104.200000000001 C 2572.6999999999994 3130.1000000000013 2600.2999999999993 3156.0000000000014 2623.0999999999995 3173.400000000001 C 2643.0999999999995 3188.600000000001 2666.4999999999995 3200.600000000001 2690.7999999999993 3207.400000000001 C 2705.499999999999 3211.500000000001 2720.999999999999 3213.000000000001 2734.7999999999993 3220.000000000001 C 2696.499999999999 3232.2000000000007 2658.499999999999 3243.7000000000007 2631.2999999999993 3274.500000000001 C 2663.0999999999995 3297.100000000001 2734.2999999999993 3276.000000000001 2767.5999999999995 3265.400000000001 C 2798.9999999999995 3255.400000000001 2826.7999999999993 3243.400000000001 2858.8999999999996 3236.300000000001 C 2881.2 3231.400000000001 2894.4999999999995 3237.300000000001 2911.3999999999996 3243.300000000001 C 2911.7 3243.500000000001 2911.9999999999995 3243.6000000000013 2912.2999999999997 3243.800000000001 C 2938.6 3257.900000000001 2963.3999999999996 3274.400000000001 2986.8999999999996 3292.700000000001 C 2986.9999999999995 3293.1000000000013 2987.0999999999995 3293.6000000000013 2987.2999999999997 3294.0000000000014 C 2969.2 3290.200000000001 2944.8999999999996 3293.700000000001 2930.7999999999997 3293.9000000000015 C 2883.7 3294.6000000000013 2829.4999999999995 3306.8000000000015 2784.2 3320.0000000000014 C 2745.1 3331.4000000000015 2706.1 3352.1000000000013 2671.6 3373.3000000000015 C 2754.6 3418.9000000000015 2852.7999999999997 3379.7000000000016 2930.2999999999997 3343.2000000000016 C 2958.9999999999995 3329.7000000000016 2995.3999999999996 3316.1000000000017 3026.3999999999996 3326.3000000000015 C 3041.8999999999996 3340.8000000000015 3056.7999999999997 3356.0000000000014 3070.7999999999997 3372.1000000000017 C 3099.3999999999996 3405.000000000002 3124.4999999999995 3440.7000000000016 3147.7999999999997 3477.500000000002 C 3156.8999999999996 3492.6000000000017 3166.2 3507.500000000002 3175.2999999999997 3522.6000000000017 C 3174.7 3522.400000000002 3174.2 3522.1000000000017 3173.4999999999995 3522.000000000002 C 3154.9999999999995 3509.6000000000017 3129.7999999999997 3504.300000000002 3108.1999999999994 3501.1000000000017 C 3061.0999999999995 3494.1000000000017 3012.7999999999993 3492.2000000000016 2965.2999999999993 3488.500000000002 C 2920.999999999999 3485.000000000002 2872.0999999999995 3485.2000000000016 2829.6999999999994 3500.300000000002 C 2808.9999999999995 3507.700000000002 2789.9999999999995 3520.900000000002 2768.9999999999995 3527.200000000002 C 2858.4999999999995 3576.0000000000023 2974.9999999999995 3555.300000000002 3067.3999999999996 3526.800000000002 C 3108.8999999999996 3514.000000000002 3152.5999999999995 3516.700000000002 3186.3999999999996 3541.800000000002 C 3190.4999999999995 3548.900000000002 3194.4999999999995 3555.900000000002 3198.2999999999997 3563.100000000002 C 3222.8999999999996 3609.5000000000023 3238.2 3659.100000000002 3238.2 3712.0000000000023 C 3238.2 3737.9000000000024 3234.7 3763.8000000000025 3227.8999999999996 3788.8000000000025 C 3220.5999999999995 3815.6000000000026 3208.7 3840.2000000000025 3195.7999999999997 3864.7000000000025 C 3184.1 3886.9000000000024 3171.7999999999997 3911.1000000000026 3165.2 3936.0000000000027 C 3160.8999999999996 3925.6000000000026 3153.7999999999997 3915.6000000000026 3150.7 3904.800000000003 C 3139.2999999999997 3865.100000000003 3142.1 3822.400000000003 3143 3781.700000000003 C 3143.7 3748.800000000003 3136.2 3726.500000000003 3120.8 3698.100000000003 C 3112.1000000000004 3682.200000000003 3105.3 3665.600000000003 3092.5 3652.600000000003 C 3081.5 3641.300000000003 3067.5 3632.600000000003 3056.2 3622.4000000000033 C 3055.2999999999997 3641.7000000000035 3059 3660.2000000000035 3060.1 3679.500000000003 C 3062.7 3722.000000000003 3064 3756.100000000003 3079.6 3797.000000000003 C 3094.7999999999997 3836.8000000000034 3117 3873.700000000003 3134.2999999999997 3912.700000000003 C 3142.4999999999995 3931.100000000003 3150.6 3950.600000000003 3160.2999999999997 3968.100000000003 C 3160.1 3975.500000000003 3160.6 3983.000000000003 3161.9999999999995 3990.4000000000033 C 3162.1999999999994 3993.7000000000035 3162.7999999999997 3997.000000000003 3164.2999999999997 4000.000000000003 L 3164.2999999999997 3999.700000000003 C 3165.1 4002.600000000003 3166.1 4005.500000000003 3167.2 4008.400000000003 C 3169 4013.0000000000027 3176.2 4010.300000000003 3174.3999999999996 4005.700000000003 C 3158.2999999999997 3964.800000000003 3173.7999999999997 3924.800000000003 3192.7999999999997 3887.100000000003 C 3194.7 3884.000000000003 3195.8999999999996 3880.9000000000033 3197.4999999999995 3878.000000000003 C 3197.5999999999995 3877.9000000000033 3197.5999999999995 3877.700000000003 3197.6999999999994 3877.600000000003 C 3201.899999999999 3869.9000000000033 3207.6999999999994 3864.000000000003 3213.4999999999995 3857.200000000003 C 3227.2999999999997 3840.900000000003 3240.3999999999996 3823.400000000003 3254.6999999999994 3807.300000000003 C 3265.6999999999994 3794.900000000003 3281.9999999999995 3786.900000000003 3296.2999999999993 3778.900000000003 C 3321.1999999999994 3765.0000000000027 3345.999999999999 3751.800000000003 3369.7999999999993 3735.900000000003 C 3395.1999999999994 3719.0000000000027 3414.499999999999 3696.6000000000026 3434.499999999999 3673.900000000003 C 3445.999999999999 3660.900000000003 3462.199999999999 3644.5000000000027 3475.699999999999 3633.300000000003 C 3458.3999999999987 3644.800000000003 3431.799999999999 3648.900000000003 3412.299999999999 3654.5000000000027 C 3380.1 3663.2 3350.1 3683.4 3323.2 3703.4 z" stroke-linecap="round" />
</g>
		<g transform="matrix(0.05 0 0 0.05 0.16 51.28)"  >
<path style="stroke: none; stroke-width: 1; stroke-dasharray: none; stroke-linecap: butt; stroke-dashoffset: 0; stroke-linejoin: miter; stroke-miterlimit: 4; fill: rgb(168,117,177); fill-rule: nonzero; opacity: 1;" vector-effect="non-scaling-stroke"  transform=" translate(-2671.22, -3373.02)" d="M 2671.5 3373.1 C 2671.5 3373.1 2671.6 3373.1 2671.6 3373 C 2671.5 3373 2671.4 3372.9 2671.2999999999997 3372.9 C 2670.6 3373.1 2670.7 3373.2 2671.5 3373.1 z" stroke-linecap="round" />
</g>
		<g transform="matrix(0.05 0 0 0.05 25.54 -14.62)"  >
<path style="stroke: none; stroke-width: 1; stroke-dasharray: none; stroke-linecap: butt; stroke-dashoffset: 0; stroke-linejoin: miter; stroke-miterlimit: 4; fill: rgb(168,117,177); fill-rule: nonzero; opacity: 1;" vector-effect="non-scaling-stroke"  transform=" translate(-3227.39, -1929.12)" d="M 3244.8 1975.7 C 3250.3 1980.1000000000001 3256.8 1983.4 3263.8 1983.9 C 3271.5 1984.5 3279.2000000000003 1981.5 3285.2000000000003 1976.7 C 3291.1000000000004 1971.9 3295.5000000000005 1965 3296.1000000000004 1957.4 C 3296.7000000000003 1950.3000000000002 3293.9000000000005 1943.2 3289.7000000000003 1937.4 C 3278.9 1922.4 3258.3 1915.2 3240.5000000000005 1920.4 C 3246.9000000000005 1913.8000000000002 3253.3000000000006 1907.2 3258.3000000000006 1899.6000000000001 C 3263.3000000000006 1892.0000000000002 3267.0000000000005 1883.1000000000001 3267.100000000001 1874.0000000000002 C 3267.2000000000007 1869.9000000000003 3266.500000000001 1865.6000000000001 3263.900000000001 1862.4000000000003 C 3260.700000000001 1858.4000000000003 3255.400000000001 1856.8000000000004 3250.400000000001 1855.9000000000003 C 3243.300000000001 1854.6000000000004 3235.600000000001 1854.3000000000004 3229.100000000001 1857.4000000000003 C 3221.7000000000007 1860.9000000000003 3216.8000000000006 1868.4000000000003 3214.500000000001 1876.2000000000003 C 3212.500000000001 1883.1000000000004 3212.800000000001 1890.0000000000002 3212.2000000000007 1897.1000000000004 C 3207.9000000000005 1889.4000000000003 3204.2000000000007 1881.9000000000003 3196.500000000001 1876.9000000000003 C 3188.400000000001 1871.6000000000004 3176.900000000001 1870.7000000000003 3169.400000000001 1876.8000000000004 C 3164.700000000001 1880.6000000000004 3162.100000000001 1886.4000000000003 3160.300000000001 1892.1000000000004 C 3159.200000000001 1895.4000000000003 3158.300000000001 1898.8000000000004 3158.700000000001 1902.2000000000003 C 3159.300000000001 1908.1000000000004 3163.400000000001 1912.9000000000003 3167.900000000001 1916.8000000000002 C 3175.300000000001 1923.3000000000002 3184.200000000001 1928.2000000000003 3193.600000000001 1931.1000000000001 C 3188.000000000001 1930.3000000000002 3182.600000000001 1933.0000000000002 3177.8000000000006 1935.9 C 3173.100000000001 1938.7 3168.4000000000005 1942.1000000000001 3166.2000000000007 1947 C 3164.000000000001 1951.8 3164.500000000001 1957.5 3166.000000000001 1962.5 C 3169.000000000001 1972.1 3175.600000000001 1980.1 3182.400000000001 1987.5 C 3188.400000000001 1994 3195.000000000001 2000.7 3203.600000000001 2002.7 C 3206.100000000001 2003.3 3208.7000000000007 2003.5 3211.3000000000006 2002.9 C 3214.0000000000005 2002.3000000000002 3216.5000000000005 2000.8000000000002 3218.7000000000007 1999 C 3229.600000000001 1990.1 3232.7000000000007 1974.4 3230.500000000001 1960.5 C 3234.8 1965.9 3239.4 1971.3 3244.8 1975.7 z" stroke-linecap="round" />
</g>
		<g transform="matrix(0.05 0 0 0.05 69.11 18.94)"  >
<path style="stroke: none; stroke-width: 1; stroke-dasharray: none; stroke-linecap: butt; stroke-dashoffset: 0; stroke-linejoin: miter; stroke-miterlimit: 4; fill: rgb(168,117,177); fill-rule: nonzero; opacity: 1;" vector-effect="non-scaling-stroke"  transform=" translate(-4181.95, -2664.5)" d="M 4238.9 2624.6 C 4236.7 2623.2999999999997 4234.099999999999 2622.7 4231.599999999999 2622.5 C 4218.9 2621.5 4206.9 2629.8 4199.7 2640.4 C 4200.099999999999 2634 4200.599999999999 2627.6 4199.7 2621.3 C 4198.9 2615 4196.599999999999 2608.7000000000003 4192.4 2604 C 4187.7 2598.8 4180.799999999999 2595.9 4173.799999999999 2595.3 C 4166.9 2594.8 4159.699999999999 2596.6000000000004 4154.499999999999 2601.2000000000003 C 4149.599999999999 2605.5000000000005 4146.999999999999 2611.9 4146.099999999999 2618.4 C 4143.7 2635.1 4152.799999999999 2652.7000000000003 4167.7 2660.5 C 4159.4 2660.8 4151 2661.1 4142.9 2663 C 4134.799999999999 2664.9 4126.9 2668.4 4121 2674.3 C 4118.4 2676.9 4116.2 2680.2000000000003 4115.8 2683.9 C 4115.400000000001 2688.5 4117.900000000001 2692.9 4120.6 2696.6 C 4124.5 2701.9 4129.3 2706.9 4135.6 2709 C 4142.700000000001 2711.3 4150.6 2709.5 4157 2705.8 C 4162.7 2702.5 4166.8 2697.8 4171.6 2693.5 C 4169.6 2701.3 4167.400000000001 2708.5 4169.3 2716.6 C 4171.3 2725.2 4178.3 2733 4187 2733.7 C 4192.5 2734.2 4197.8 2732 4202.6 2729.3999999999996 C 4205.3 2727.8999999999996 4208.1 2726.2999999999997 4210 2723.7999999999997 C 4213.3 2719.6 4213.6 2713.7999999999997 4213.2 2708.3999999999996 C 4212.4 2699.4999999999995 4209.7 2690.7 4205.3 2682.8999999999996 C 4208.5 2686.8999999999996 4213.7 2688.5999999999995 4218.7 2689.7 C 4223.5 2690.7999999999997 4228.7 2691.5 4233.3 2689.7 C 4237.8 2687.8999999999996 4241 2683.8999999999996 4243.2 2679.6 C 4247.3 2671.4 4247.9 2662 4248.099999999999 2652.9 C 4248.299999999999 2644.9 4248.099999999999 2636.3 4243.7 2629.5 C 4242.5 2627.6 4240.9 2625.8 4238.9 2624.6 z" stroke-linecap="round" />
</g>
		<g transform="matrix(0.05 0 0 0.05 -29.49 -18.22)"  >
<path style="stroke: none; stroke-width: 1; stroke-dasharray: none; stroke-linecap: butt; stroke-dashoffset: 0; stroke-linejoin: miter; stroke-miterlimit: 4; fill: rgb(168,117,177); fill-rule: nonzero; opacity: 1;" vector-effect="non-scaling-stroke"  transform=" translate(-2021.6, -1850.35)" d="M 1988.9 1829.3 C 1980.6000000000001 1829.2 1972.2 1829 1964 1830.6 C 1955.8 1832.1 1947.8 1835.3999999999999 1941.9 1841.3 C 1935.4 1847.8 1932.1000000000001 1857 1931.9 1866.1 C 1931.7 1875.1 1934.5 1884.3999999999999 1940.9 1890.8 C 1946.9 1896.8 1955.4 1899.8 1963.8000000000002 1900.5 C 1985.7000000000003 1902.4 2008.1000000000001 1889.4 2017.2000000000003 1869.4 C 2018.2000000000003 1880.2 2019.1000000000004 1891.1000000000001 2022.1000000000004 1901.6000000000001 C 2025.1000000000004 1912.0000000000002 2030.2000000000003 1922.1000000000001 2038.3000000000004 1929.4 C 2041.9000000000003 1932.6000000000001 2046.3000000000004 1935.3000000000002 2051.2000000000003 1935.5 C 2057.2000000000003 1935.8 2062.8 1932.2 2067.4 1928.4 C 2074 1923 2080.2000000000003 1916.3000000000002 2082.5 1908.1000000000001 C 2085.1 1898.7 2082.2 1888.5000000000002 2076.9 1880.4 C 2072.2000000000003 1873.2 2065.7000000000003 1868.2 2059.9 1862.2 C 2070.2000000000003 1864.3 2079.8 1866.7 2090.2000000000003 1863.7 C 2101.2000000000003 1860.5 2110.9 1850.9 2111.3 1839.4 C 2111.5 1832.3000000000002 2108.3 1825.5 2104.6000000000004 1819.4 C 2102.5000000000005 1815.9 2100.1000000000004 1812.5 2096.8 1810.1000000000001 C 2091.1000000000004 1806.1000000000001 2083.5 1806.1000000000001 2076.5 1807.0000000000002 C 2064.9 1808.7000000000003 2053.7 1812.8000000000002 2043.7 1819.1000000000001 C 2048.7 1814.7 2050.5 1807.7 2051.7 1801.2 C 2052.7999999999997 1794.8 2053.3999999999996 1788 2050.7 1782.1000000000001 C 2048.1 1776.4 2042.6 1772.4 2036.8999999999999 1769.9 C 2025.9999999999998 1765.2 2013.6 1764.9 2001.6999999999998 1765.3000000000002 C 1991.1999999999998 1765.6000000000001 1980.1 1766.5000000000002 1971.6 1772.6000000000001 C 1969.1 1774.4 1966.8999999999999 1776.6000000000001 1965.5 1779.3000000000002 C 1963.9 1782.2000000000003 1963.3 1785.6000000000001 1963.2 1789.0000000000002 C 1963 1805.6 1974.7 1820.6 1988.9 1829.3 z" stroke-linecap="round" />
</g>
		<g transform="matrix(0.05 0 0 0.05 51.18 24.17)"  >
<path style="stroke: none; stroke-width: 1; stroke-dasharray: none; stroke-linecap: butt; stroke-dashoffset: 0; stroke-linejoin: miter; stroke-miterlimit: 4; fill: rgb(168,117,177); fill-rule: nonzero; opacity: 1;" vector-effect="non-scaling-stroke"  transform=" translate(-3789, -2779)" d="M 3864.4 2738.7 C 3858.7000000000003 2734.7 3851.1 2734.7 3844.1 2735.6 C 3832.5 2737.2999999999997 3821.2999999999997 2741.4 3811.2999999999997 2747.7 C 3816.2999999999997 2743.2999999999997 3818.1 2736.2999999999997 3819.2999999999997 2729.7999999999997 C 3820.3999999999996 2723.3999999999996 3820.9999999999995 2716.6 3818.2999999999997 2710.7 C 3815.7 2705 3810.2 2701 3804.4999999999995 2698.5 C 3793.5999999999995 2693.8 3781.1999999999994 2693.5 3769.2999999999997 2693.9 C 3758.7999999999997 2694.2000000000003 3747.7 2695.1 3739.2 2701.2000000000003 C 3736.7 2703.0000000000005 3734.5 2705.2000000000003 3733.1 2707.9 C 3731.5 2710.8 3730.9 2714.2000000000003 3730.7999999999997 2717.6 C 3730.3999999999996 2734.2999999999997 3742.1 2749.2999999999997 3756.2999999999997 2758 C 3747.9999999999995 2757.9 3739.6 2757.7 3731.3999999999996 2759.3 C 3723.2 2760.8 3715.2 2764.1000000000004 3709.2999999999997 2770 C 3702.7999999999997 2776.5 3699.4999999999995 2785.7 3699.2999999999997 2794.8 C 3699.1 2803.8 3701.8999999999996 2813.1000000000004 3708.2999999999997 2819.5 C 3714.2999999999997 2825.5 3722.7999999999997 2828.5 3731.2 2829.2 C 3753.1 2831.1 3775.5 2818.1 3784.6 2798.1 C 3785.6 2808.9 3786.5 2819.7999999999997 3789.5 2830.2999999999997 C 3792.5 2840.7 3797.6 2850.7999999999997 3805.7 2858.1 C 3809.2999999999997 2861.2999999999997 3813.7 2864 3818.6 2864.2 C 3824.6 2864.5 3830.2 2860.8999999999996 3834.7999999999997 2857.1 C 3841.3999999999996 2851.7 3847.6 2845 3849.8999999999996 2836.7999999999997 C 3852.4999999999995 2827.3999999999996 3849.5999999999995 2817.2 3844.2999999999997 2809.1 C 3839.6 2801.9 3833.1 2796.9 3827.2999999999997 2790.9 C 3837.6 2793 3847.2 2795.4 3857.6 2792.4 C 3868.6 2789.2000000000003 3878.2999999999997 2779.6 3878.7 2768.1 C 3879 2761 3875.7 2754.2 3872 2748.1 C 3870.1 2744.5 3867.7 2741 3864.4 2738.7 z" stroke-linecap="round" />
</g>
		<g transform="matrix(0.05 0 0 0.05 16.51 -62.78)"  >
<path style="stroke: none; stroke-width: 1; stroke-dasharray: none; stroke-linecap: butt; stroke-dashoffset: 0; stroke-linejoin: miter; stroke-miterlimit: 4; fill: rgb(168,117,177); fill-rule: nonzero; opacity: 1;" vector-effect="non-scaling-stroke"  transform=" translate(-3029.6, -874.05)" d="M 2971.9 924.2 C 2993.8 926.1 3016.2000000000003 913.1 3025.3 893.1 C 3026.3 903.9 3027.2000000000003 914.8000000000001 3030.2000000000003 925.3000000000001 C 3033.2000000000003 935.7 3038.3 945.8000000000001 3046.4 953.1 C 3050 956.3000000000001 3054.4 959 3059.3 959.2 C 3065.3 959.5 3070.9 955.9000000000001 3075.5 952.1 C 3082.1 946.7 3088.3 940 3090.6 931.8000000000001 C 3093.2 922.4000000000001 3090.2999999999997 912.2 3085 904.1 C 3080.3 896.9 3073.8 891.9 3068 885.9 C 3078.3 888 3087.9 890.4 3098.3 887.4 C 3109.3 884.1999999999999 3119 874.6 3119.4 863.1 C 3119.6 856 3116.4 849.2 3112.7000000000003 843.1 C 3110.6000000000004 839.6 3108.2000000000003 836.2 3104.9 833.8000000000001 C 3099.2000000000003 829.8000000000001 3091.6 829.8000000000001 3084.6 830.7 C 3073 832.4000000000001 3061.7999999999997 836.5 3051.7999999999997 842.8000000000001 C 3056.7999999999997 838.4000000000001 3058.6 831.4000000000001 3059.7999999999997 824.9000000000001 C 3060.8999999999996 818.5000000000001 3061.4999999999995 811.7 3058.7999999999997 805.8000000000001 C 3056.2 800.1 3050.7 796.1 3044.9999999999995 793.6 C 3034.0999999999995 788.9 3021.6999999999994 788.6 3009.7999999999997 789 C 2999.2999999999997 789.3 2988.2 790.2 2979.7 796.3 C 2977.2 798.0999999999999 2975 800.3 2973.6 803 C 2972 805.9 2971.4 809.3 2971.2999999999997 812.7 C 2970.8999999999996 829.4000000000001 2982.6 844.4000000000001 2996.7999999999997 853.1 C 2988.4999999999995 853 2980.1 852.8000000000001 2971.8999999999996 854.4 C 2963.7 855.9 2955.7 859.1999999999999 2949.7999999999997 865.1 C 2943.2999999999997 871.6 2939.9999999999995 880.8000000000001 2939.7999999999997 889.9 C 2939.6 898.9 2942.3999999999996 908.1999999999999 2948.7999999999997 914.6 C 2954.9 920.5 2963.5 923.5 2971.9 924.2 z" stroke-linecap="round" />
</g>
		<g transform="matrix(0.05 0 0 0.05 -43.99 -28.19)"  >
<path style="stroke: none; stroke-width: 1; stroke-dasharray: none; stroke-linecap: butt; stroke-dashoffset: 0; stroke-linejoin: miter; stroke-miterlimit: 4; fill: rgb(168,117,177); fill-rule: nonzero; opacity: 1;" vector-effect="non-scaling-stroke"  transform=" translate(-1704, -1631.85)" d="M 1646.3 1682 C 1668.2 1683.9 1690.6 1670.9 1699.7 1650.9 C 1700.7 1661.7 1701.6000000000001 1672.6000000000001 1704.6000000000001 1683.1000000000001 C 1707.6000000000001 1693.5000000000002 1712.7 1703.6000000000001 1720.8000000000002 1710.9 C 1724.4 1714.1000000000001 1728.8000000000002 1716.8000000000002 1733.7000000000003 1717 C 1739.7000000000003 1717.3 1745.3000000000002 1713.7 1749.9000000000003 1709.9 C 1756.5000000000002 1704.5 1762.7000000000003 1697.8000000000002 1765.0000000000002 1689.6000000000001 C 1767.6000000000001 1680.2 1764.7000000000003 1670.0000000000002 1759.4000000000003 1661.9 C 1754.7000000000003 1654.7 1748.2000000000003 1649.7 1742.4000000000003 1643.7 C 1752.7000000000003 1645.8 1762.3000000000004 1648.2 1772.7000000000003 1645.2 C 1783.7000000000003 1642 1793.4000000000003 1632.4 1793.8000000000002 1620.9 C 1794.0000000000002 1613.8000000000002 1790.8000000000002 1607 1787.1000000000001 1600.9 C 1785.0000000000002 1597.4 1782.6000000000001 1594 1779.3000000000002 1591.6000000000001 C 1773.6000000000001 1587.6000000000001 1766.0000000000002 1587.6000000000001 1759.0000000000002 1588.5000000000002 C 1747.4000000000003 1590.2000000000003 1736.2000000000003 1594.3000000000002 1726.2000000000003 1600.6000000000001 C 1731.2000000000003 1596.2 1733.0000000000002 1589.2 1734.2000000000003 1582.7 C 1735.3000000000002 1576.3 1735.9000000000003 1569.5 1733.2000000000003 1563.6000000000001 C 1730.6000000000004 1557.9 1725.1000000000004 1553.9 1719.4000000000003 1551.4 C 1708.5000000000002 1546.7 1696.1000000000004 1546.4 1684.2000000000003 1546.8000000000002 C 1673.7000000000003 1547.1000000000001 1662.6000000000004 1548.0000000000002 1654.1000000000004 1554.1000000000001 C 1651.6000000000004 1555.9 1649.4000000000003 1558.1000000000001 1648.0000000000005 1560.8000000000002 C 1646.4000000000005 1563.8000000000002 1645.8000000000004 1567.1000000000001 1645.7000000000005 1570.5000000000002 C 1645.3000000000004 1587.2000000000003 1657.0000000000005 1602.2000000000003 1671.2000000000005 1610.9000000000003 C 1662.9000000000005 1610.8000000000004 1654.5000000000005 1610.6000000000004 1646.3000000000004 1612.2000000000003 C 1638.1000000000004 1613.7000000000003 1630.1000000000004 1617.0000000000002 1624.2000000000005 1622.9000000000003 C 1617.7000000000005 1629.4000000000003 1614.4000000000005 1638.6000000000004 1614.2000000000005 1647.7000000000003 C 1614.0000000000005 1656.7000000000003 1616.8000000000004 1666.0000000000002 1623.2000000000005 1672.4000000000003 C 1629.3 1678.3 1637.8 1681.3 1646.3 1682 z" stroke-linecap="round" />
</g>
		<g transform="matrix(0.05 0 0 0.05 -27.03 37.9)"  >
<path style="stroke: none; stroke-width: 1; stroke-dasharray: none; stroke-linecap: butt; stroke-dashoffset: 0; stroke-linejoin: miter; stroke-miterlimit: 4; fill: rgb(168,117,177); fill-rule: nonzero; opacity: 1;" vector-effect="non-scaling-stroke"  transform=" translate(-2075.57, -3079.76)" d="M 2110.5 3091.1 C 2114.8 3090.7999999999997 2119.4 3090 2122.8 3087.2999999999997 C 2126.1000000000004 3084.6 2127.8 3080.3999999999996 2128.5 3076.2999999999997 C 2129.8 3068.3999999999996 2127.9 3060.2999999999997 2125.7 3052.6 C 2123.7999999999997 3045.7999999999997 2121.3999999999996 3038.7 2115.8999999999996 3034.1 C 2114.2999999999997 3032.7999999999997 2112.4999999999995 3031.7 2110.4999999999995 3031.2 C 2108.2999999999997 3030.7 2105.9999999999995 3030.7999999999997 2103.7999999999997 3031.2999999999997 C 2092.7999999999997 3033.7999999999997 2084.9999999999995 3043.8999999999996 2081.6 3054.6 C 2080.2999999999997 3049.2 2079 3043.7 2076.7 3038.6 C 2074.3999999999996 3033.5 2070.8999999999996 3028.7999999999997 2066 3026 C 2060.7 3022.9 2054.1 3022.2 2048.1 3023.6 C 2042.1999999999998 3024.9 2036.6 3028.2999999999997 2033.3999999999999 3033.5 C 2030.3999999999999 3038.4 2029.8999999999999 3044.5 2030.8 3050.1 C 2033.1 3064.7 2045.3999999999999 3077.2 2059.9 3079.7999999999997 C 2053 3082.2 2046 3084.6 2039.7 3088.2999999999997 C 2033.4 3091.9999999999995 2027.6000000000001 3096.9999999999995 2024.3 3103.4999999999995 C 2022.8 3106.3999999999996 2021.8 3109.6999999999994 2022.3999999999999 3112.8999999999996 C 2023.1999999999998 3116.8999999999996 2026.4999999999998 3119.8999999999996 2029.6999999999998 3122.2999999999997 C 2034.2999999999997 3125.7 2039.6999999999998 3128.7 2045.4999999999998 3128.7999999999997 C 2052 3128.8999999999996 2058.2 3125.3999999999996 2062.7 3120.6 C 2066.6 3116.4 2068.7999999999997 3111.2999999999997 2071.7999999999997 3106.5 C 2072.1 3113.6 2072.1 3120.2 2075.7999999999997 3126.5 C 2079.7 3133.2 2087.6 3137.9 2095.2 3136.3 C 2099.8999999999996 3135.3 2103.7999999999997 3132.1000000000004 2107.2 3128.6000000000004 C 2109.1 3126.7000000000003 2111 3124.5000000000005 2112 3122.0000000000005 C 2113.7 3117.6000000000004 2112.4 3112.6000000000004 2110.7 3108.3000000000006 C 2107.7 3101.0000000000005 2103.1 3094.3000000000006 2097.3999999999996 3088.9000000000005 C 2101.2 3091.4 2106 3091.5 2110.5 3091.1 z" stroke-linecap="round" />
</g>
		<g transform="matrix(0.05 0 0 0.05 11.2 -18.96)"  >
<path style="stroke: none; stroke-width: 1; stroke-dasharray: none; stroke-linecap: butt; stroke-dashoffset: 0; stroke-linejoin: miter; stroke-miterlimit: 4; fill: rgb(168,117,177); fill-rule: nonzero; opacity: 1;" vector-effect="non-scaling-stroke"  transform=" translate(-2913.07, -1834.06)" d="M 2867.3 1876.6 C 2871.9 1880 2877.3 1883 2883.1000000000004 1883.1 C 2889.6000000000004 1883.1999999999998 2895.8 1879.6999999999998 2900.3 1874.8999999999999 C 2904.2000000000003 1870.6999999999998 2906.4 1865.6 2909.4 1860.8 C 2909.7000000000003 1867.8999999999999 2909.7000000000003 1874.5 2913.4 1880.8 C 2917.3 1887.5 2925.2000000000003 1892.2 2932.8 1890.6 C 2937.5 1889.6 2941.4 1886.3999999999999 2944.8 1882.8999999999999 C 2946.7000000000003 1880.9999999999998 2948.6000000000004 1878.8 2949.6000000000004 1876.3 C 2951.3 1871.8999999999999 2950.0000000000005 1866.8999999999999 2948.3 1862.6 C 2945.3 1855.3 2940.7000000000003 1848.6 2935 1843.1999999999998 C 2938.7 1845.6999999999998 2943.6 1845.7999999999997 2948 1845.3999999999999 C 2952.3 1845.1 2956.9 1844.3 2960.3 1841.6 C 2963.6000000000004 1838.8999999999999 2965.3 1834.6999999999998 2966 1830.6 C 2967.3 1822.6999999999998 2965.4 1814.6 2963.2 1806.8999999999999 C 2961.2999999999997 1800.1 2958.8999999999996 1792.9999999999998 2953.3999999999996 1788.3999999999999 C 2951.7999999999997 1787.1 2949.9999999999995 1785.9999999999998 2947.9999999999995 1785.4999999999998 C 2945.7999999999997 1784.9999999999998 2943.4999999999995 1785.0999999999997 2941.2999999999997 1785.5999999999997 C 2930.2999999999997 1788.0999999999997 2922.4999999999995 1798.1999999999996 2919.1 1808.8999999999996 C 2917.7999999999997 1803.4999999999995 2916.5 1797.9999999999995 2914.2 1792.8999999999996 C 2911.8999999999996 1787.7999999999997 2908.3999999999996 1783.0999999999997 2903.5 1780.2999999999997 C 2898.2 1777.1999999999998 2891.6 1776.4999999999998 2885.6 1777.8999999999996 C 2879.7 1779.1999999999996 2874.1 1782.5999999999997 2870.9 1787.7999999999997 C 2867.9 1792.6999999999998 2867.4 1798.7999999999997 2868.3 1804.3999999999996 C 2870.6000000000004 1818.9999999999995 2882.9 1831.4999999999995 2897.4 1834.0999999999997 C 2890.5 1836.4999999999998 2883.5 1838.8999999999996 2877.2000000000003 1842.5999999999997 C 2870.9000000000005 1846.2999999999997 2865.1000000000004 1851.2999999999997 2861.8 1857.7999999999997 C 2860.3 1860.6999999999998 2859.3 1863.9999999999998 2859.9 1867.1999999999998 C 2860.8 1871.1 2864 1874.1 2867.3 1876.6 z" stroke-linecap="round" />
</g>
		<g transform="matrix(0.05 0 0 0.05 -13.42 51.7)"  >
<path style="stroke: none; stroke-width: 1; stroke-dasharray: none; stroke-linecap: butt; stroke-dashoffset: 0; stroke-linejoin: miter; stroke-miterlimit: 4; fill: rgb(168,117,177); fill-rule: nonzero; opacity: 1;" vector-effect="non-scaling-stroke"  transform=" translate(-2373.83, -3382.1)" d="M 2483.4 3402.3 C 2476 3396.4 2466.8 3393.4 2457.6 3391.2000000000003 C 2441 3387.2000000000003 2423.9 3385.4 2406.7999999999997 3385.9 C 2418.9999999999995 3378.6 2432.9999999999995 3375 2445.7999999999997 3369.1 C 2458.7 3363.2 2471.2 3353.7999999999997 2475.2 3340.2 C 2480.5 3322.2999999999997 2469.3999999999996 3303.3999999999996 2455.1 3291.3999999999996 C 2449.7999999999997 3286.8999999999996 2443.7999999999997 3282.9999999999995 2437 3281.7 C 2428.5 3280.1 2419.5 3283 2412.3 3287.7999999999997 C 2405.1000000000004 3292.7 2399.4 3299.3999999999996 2394.1000000000004 3306.2999999999997 C 2383.6000000000004 3319.8999999999996 2374.1000000000004 3334.7999999999997 2370.8 3351.6 C 2368.3 3333.2 2363.8 3315 2357.4 3297.5 C 2353.7000000000003 3287.2 2348 3275.9 2337.4 3272.9 C 2331.3 3271.2000000000003 2324.7000000000003 3272.7000000000003 2318.7000000000003 3274.9 C 2311.2000000000003 3277.6 2303.7000000000003 3281.9 2300.1000000000004 3289 C 2297.6000000000004 3294 2297.3 3299.9 2297.6000000000004 3305.5 C 2299.0000000000005 3328.5 2310.3 3351.2 2328.2000000000003 3365.9 C 2317.2000000000003 3359.6 2304.4 3357 2291.9 3359.4 C 2278.1 3362.1 2265.6 3370.8 2258.2000000000003 3382.7000000000003 C 2254.1000000000004 3389.3 2251.6000000000004 3397.3 2253.1000000000004 3404.9 C 2255.7000000000003 3418 2269.3 3426.1 2282.4000000000005 3428.6 C 2304.1000000000004 3432.6 2327.7000000000007 3424.7999999999997 2342.7000000000007 3408.6 C 2330.100000000001 3419.4 2320.100000000001 3433.2999999999997 2313.9000000000005 3448.7 C 2311.7000000000007 3454.1 2310.0000000000005 3459.8999999999996 2311.0000000000005 3465.6 C 2312.2000000000003 3472.1 2316.8000000000006 3477.4 2321.7000000000003 3481.7999999999997 C 2326.1000000000004 3485.7 2331.0000000000005 3489.2999999999997 2336.7000000000003 3490.8999999999996 C 2343.2000000000003 3492.7999999999997 2350.1000000000004 3491.9999999999995 2356.7000000000003 3490.7999999999997 C 2364.9 3489.3999999999996 2373.2000000000003 3487.2999999999997 2380.1000000000004 3482.4999999999995 C 2389.5000000000005 3475.8999999999996 2395.1000000000004 3464.6999999999994 2396.6000000000004 3453.2999999999997 C 2398.1000000000004 3441.9 2396.0000000000005 3430.2999999999997 2392.5000000000005 3419.3999999999996 C 2400.9000000000005 3432.5999999999995 2410.4000000000005 3445.0999999999995 2420.8000000000006 3456.7999999999997 C 2423.4000000000005 3459.7 2426.100000000001 3462.7 2429.600000000001 3464.3999999999996 C 2434.000000000001 3466.7 2439.2000000000007 3466.7999999999997 2444.2000000000007 3466.0999999999995 C 2456.9000000000005 3464.3999999999996 2468.500000000001 3457.9999999999995 2478.600000000001 3450.0999999999995 C 2486.3000000000006 3444.0999999999995 2493.7000000000007 3436.2999999999993 2494.8000000000006 3426.5999999999995 C 2496.1 3417.5 2490.8 3408.2 2483.4 3402.3 z" stroke-linecap="round" />
</g>
		<g transform="matrix(0.05 0 0 0.05 -71.78 23.18)"  >
<path style="stroke: none; stroke-width: 1; stroke-dasharray: none; stroke-linecap: butt; stroke-dashoffset: 0; stroke-linejoin: miter; stroke-miterlimit: 4; fill: rgb(168,117,177); fill-rule: nonzero; opacity: 1;" vector-effect="non-scaling-stroke"  transform=" translate(-1095.05, -2757.4)" d="M 1204.6 2777.6 C 1197.1999999999998 2771.7 1188 2768.7 1178.8 2766.5 C 1162.2 2762.5 1145.1 2760.7 1128 2761.2 C 1140.2 2753.8999999999996 1154.2 2750.2999999999997 1167 2744.3999999999996 C 1179.9 2738.4999999999995 1192.4 2729.0999999999995 1196.4 2715.4999999999995 C 1201.7 2697.5999999999995 1190.6000000000001 2678.6999999999994 1176.3000000000002 2666.6999999999994 C 1171.0000000000002 2662.1999999999994 1165.0000000000002 2658.2999999999993 1158.2000000000003 2656.9999999999995 C 1149.7000000000003 2655.3999999999996 1140.7000000000003 2658.2999999999997 1133.5000000000002 2663.0999999999995 C 1126.3000000000002 2667.9999999999995 1120.6000000000001 2674.6999999999994 1115.3000000000002 2681.5999999999995 C 1104.8000000000002 2695.1999999999994 1095.3000000000002 2710.0999999999995 1092.0000000000002 2726.8999999999996 C 1089.5000000000002 2708.4999999999995 1085.0000000000002 2690.2999999999997 1078.6000000000001 2672.7999999999997 C 1074.9 2662.4999999999995 1069.2 2651.2 1058.6000000000001 2648.2 C 1052.5000000000002 2646.5 1045.9 2648 1039.9 2650.2 C 1032.4 2652.8999999999996 1024.9 2657.2 1021.3000000000001 2664.2999999999997 C 1018.8000000000001 2669.2999999999997 1018.5000000000001 2675.2 1018.8000000000001 2680.7999999999997 C 1020.2 2703.7999999999997 1031.5 2726.4999999999995 1049.4 2741.2 C 1038.4 2734.8999999999996 1025.6000000000001 2732.2999999999997 1013.1000000000001 2734.7 C 999.3000000000002 2737.3999999999996 986.8000000000002 2746.1 979.4000000000001 2758 C 975.3000000000001 2764.6 972.8000000000001 2772.6 974.3000000000001 2780.2 C 976.9000000000001 2793.2999999999997 990.5000000000001 2801.3999999999996 1003.6 2803.8999999999996 C 1025.3 2807.8999999999996 1048.9 2800.0999999999995 1063.9 2783.8999999999996 C 1051.3000000000002 2794.7 1041.3000000000002 2808.5999999999995 1035.1000000000001 2823.9999999999995 C 1032.9 2829.3999999999996 1031.2 2835.1999999999994 1032.2 2840.8999999999996 C 1033.4 2847.3999999999996 1038 2852.7 1042.9 2857.0999999999995 C 1047.3000000000002 2860.9999999999995 1052.2 2864.5999999999995 1057.9 2866.1999999999994 C 1064.4 2868.0999999999995 1071.3000000000002 2867.2999999999993 1078 2866.0999999999995 C 1086.2 2864.6999999999994 1094.5 2862.5999999999995 1101.4 2857.7999999999993 C 1110.8000000000002 2851.1999999999994 1116.4 2839.999999999999 1117.9 2828.5999999999995 C 1119.4 2817.2 1117.3000000000002 2805.5999999999995 1113.8000000000002 2794.6999999999994 C 1122.2000000000003 2807.899999999999 1131.7000000000003 2820.399999999999 1142.1000000000001 2832.0999999999995 C 1144.7 2834.9999999999995 1147.4 2837.9999999999995 1150.9 2839.6999999999994 C 1155.3000000000002 2841.9999999999995 1160.5 2842.0999999999995 1165.5 2841.399999999999 C 1178.2 2839.6999999999994 1189.8 2833.2999999999993 1199.9 2825.399999999999 C 1207.6000000000001 2819.399999999999 1215 2811.599999999999 1216.1000000000001 2801.899999999999 C 1217.2 2792.8 1212 2783.5 1204.6 2777.6 z" stroke-linecap="round" />
</g>
		<g transform="matrix(0.05 0 0 0.05 -38.46 -51.27)"  >
<path style="stroke: none; stroke-width: 1; stroke-dasharray: none; stroke-linecap: butt; stroke-dashoffset: 0; stroke-linejoin: miter; stroke-miterlimit: 4; fill: rgb(168,117,177); fill-rule: nonzero; opacity: 1;" vector-effect="non-scaling-stroke"  transform=" translate(-1825.2, -1126.2)" d="M 1733.9 1172.8 C 1755.6000000000001 1176.8 1779.2 1169 1794.2 1152.8 C 1781.6000000000001 1163.6 1771.6000000000001 1177.5 1765.4 1192.8999999999999 C 1763.2 1198.3 1761.5 1204.1 1762.5 1209.8 C 1763.7 1216.3 1768.3 1221.6 1773.2 1226 C 1777.6000000000001 1229.9 1782.5 1233.5 1788.2 1235.1 C 1794.7 1237 1801.6000000000001 1236.1999999999998 1808.2 1235 C 1816.4 1233.6 1824.7 1231.5 1831.6000000000001 1226.7 C 1841.0000000000002 1220.1000000000001 1846.6000000000001 1208.9 1848.1000000000001 1197.5 C 1849.6000000000001 1186.1 1847.5000000000002 1174.5 1844.0000000000002 1163.6 C 1852.4000000000003 1176.8 1861.9000000000003 1189.3 1872.3000000000002 1201 C 1874.9 1203.9 1877.6000000000001 1206.9 1881.1000000000001 1208.6 C 1885.5000000000002 1210.8999999999999 1890.7 1211 1895.7 1210.3 C 1908.4 1208.6 1920 1202.2 1930.1000000000001 1194.3 C 1937.8000000000002 1188.3 1945.2 1180.5 1946.3000000000002 1170.8 C 1947.4 1161.3999999999999 1942.1000000000001 1152.1 1934.7000000000003 1146.3 C 1927.3000000000002 1140.3999999999999 1918.1000000000004 1137.3999999999999 1908.9000000000003 1135.2 C 1892.3000000000004 1131.2 1875.2000000000003 1129.4 1858.1000000000004 1129.9 C 1870.3000000000004 1122.6000000000001 1884.3000000000004 1119 1897.1000000000004 1113.1000000000001 C 1910.0000000000005 1107.2 1922.5000000000005 1097.8000000000002 1926.5000000000005 1084.2 C 1931.8000000000004 1066.3 1920.7000000000005 1047.4 1906.4000000000005 1035.4 C 1901.1000000000006 1030.9 1895.1000000000006 1027 1888.3000000000006 1025.7 C 1879.8000000000006 1024.1000000000001 1870.8000000000006 1027 1863.6000000000006 1031.8 C 1856.4000000000005 1036.7 1850.7000000000005 1043.3999999999999 1845.4000000000005 1050.3 C 1834.9000000000005 1063.8999999999999 1825.4000000000005 1078.8 1822.1000000000006 1095.6 C 1819.6000000000006 1077.1999999999998 1815.1000000000006 1059 1808.7000000000005 1041.5 C 1805.0000000000005 1031.2 1799.3000000000004 1019.9 1788.7000000000005 1016.9 C 1782.6000000000006 1015.1999999999999 1776.0000000000005 1016.6999999999999 1770.0000000000005 1018.9 C 1762.5000000000005 1021.6 1755.0000000000005 1025.9 1751.4000000000005 1033 C 1748.9000000000005 1038 1748.6000000000006 1043.9 1748.9000000000005 1049.5 C 1750.3000000000006 1072.5 1761.6000000000006 1095.2 1779.5000000000005 1109.9 C 1768.5000000000005 1103.6000000000001 1755.7000000000005 1101 1743.2000000000005 1103.4 C 1729.4000000000005 1106.1000000000001 1716.9000000000005 1114.8000000000002 1709.5000000000005 1126.7 C 1705.4000000000005 1133.3 1702.9000000000005 1141.3 1704.4000000000005 1148.9 C 1707.2 1162.2 1720.8 1170.4 1733.9 1172.8 z" stroke-linecap="round" />
</g>
		<g transform="matrix(0.05 0 0 0.05 -81.31 4.69)"  >
<path style="stroke: none; stroke-width: 1; stroke-dasharray: none; stroke-linecap: butt; stroke-dashoffset: 0; stroke-linejoin: miter; stroke-miterlimit: 4; fill: rgb(168,117,177); fill-rule: nonzero; opacity: 1;" vector-effect="non-scaling-stroke"  transform=" translate(-886.2, -2352.18)" d="M 1003.1 2405.9 C 1005.2 2398.5 1005.4 2388.7000000000003 1010.4 2382.8 C 1001.6 2384.8 991.8 2385.1000000000004 982.6999999999999 2386.9 C 951.9 2393.3 925.8 2408.3 899.8 2425.4 C 872.3 2443.4 845.6999999999999 2468.5 825.5999999999999 2494.3 C 817.8999999999999 2504.2000000000003 809.1999999999999 2515.3 803.3999999999999 2527.2000000000003 C 814.7999999999998 2468.5000000000005 829.6999999999998 2410.2000000000003 861.1999999999998 2359.4 C 872.7999999999998 2357.6 885.1999999999998 2341.8 919.8999999999999 2325.4 C 943.9999999999999 2314 970.1999999999998 2309.8 996.1999999999998 2302.6 C 1012.7999999999998 2298 1048.4999999999998 2295.2 1051.6999999999998 2273.4 C 1033.1999999999998 2273.3 1015.1999999999998 2268.7000000000003 996.3999999999999 2270.2000000000003 C 975.4999999999999 2271.9 959.0999999999999 2274.9 940.6999999999998 2285.4 C 959.5999999999998 2265.6 981.7999999999998 2248.6 999.6999999999998 2227.8 C 1022.5999999999998 2201.1000000000004 1026.8999999999999 2158.2000000000003 1023.7999999999998 2124.1000000000004 C 1011.5999999999998 2127.8 1000.5999999999998 2135.2000000000003 989.7999999999998 2141.9000000000005 C 963.9999999999999 2157.7000000000007 936.8999999999999 2183.8000000000006 918.5999999999998 2208.1000000000004 C 880.0999999999998 2259.3 860.7999999999998 2330.4000000000005 856.0999999999998 2352.3 C 832.6999999999998 2389.1000000000004 817.9999999999998 2429.7000000000003 807.3999999999997 2471.5 C 805.8999999999997 2462.4 807.4999999999998 2452.8 807.0999999999998 2443.6 C 805.7999999999998 2412.6 810.9999999999998 2381.7999999999997 810.0999999999998 2350.7 C 808.8999999999997 2309 813.7999999999998 2267.2 791.7999999999998 2229.5 C 777.2999999999998 2204.7 748.7999999999998 2182.2 720.6999999999998 2176.4 C 739.8999999999999 2225.2000000000003 756.5999999999998 2275.8 769.7999999999998 2326.6 C 780.3999999999999 2367.7999999999997 789.5999999999998 2411 794.9999999999999 2453.1 C 797.1999999999999 2470.6 799.1999999999999 2488.7 799.2999999999998 2506.6 C 794.8999999999999 2527.6 791.0999999999998 2548.7 787.3999999999999 2569.6 L 786.2999999999998 2575.6 C 785.8999999999999 2577.6 787.1999999999998 2579.6 789.0999999999998 2580.1 C 789.1999999999998 2580.1 789.3999999999997 2580.2 789.4999999999998 2580.2 C 791.6999999999998 2580.6 793.6999999999998 2579.1 794.0999999999998 2577 L 795.1999999999998 2571 C 796.5999999999998 2563 798.0999999999998 2554.9 799.5999999999998 2546.8 C 801.6999999999998 2543.3 803.8999999999997 2539.9 806.7999999999998 2536.7000000000003 C 821.6999999999998 2519.7000000000003 844.7999999999998 2511.9 865.6999999999998 2504.5000000000005 C 898.7999999999998 2492.8000000000006 933.3999999999999 2485.7000000000003 961.2999999999998 2463.0000000000005 C 981.5 2446.9 995.8 2431.3 1003.1 2405.9 z" stroke-linecap="round" />
</g>
		<g transform="matrix(0.05 0 0 0.05 68.25 -4.4)"  >
<path style="stroke: none; stroke-width: 1; stroke-dasharray: none; stroke-linecap: butt; stroke-dashoffset: 0; stroke-linejoin: miter; stroke-miterlimit: 4; fill: rgb(168,117,177); fill-rule: nonzero; opacity: 1;" vector-effect="non-scaling-stroke"  transform=" translate(-4163.06, -2153.15)" d="M 4252.4 2146 C 4232.4 2108.5 4213.299999999999 2068.6 4198.299999999999 2028.9 C 4191.999999999999 2012.4 4185.799999999999 1995.3000000000002 4181.599999999999 1977.9 C 4180.999999999999 1956.5 4179.7 1935.1000000000001 4178.4 1913.8000000000002 L 4178 1907.7000000000003 C 4177.9 1905.7000000000003 4176.2 1904.1000000000004 4174.2 1904.0000000000002 C 4174.099999999999 1904.0000000000002 4173.9 1904.0000000000002 4173.8 1904.0000000000002 C 4171.6 1904.1000000000001 4169.900000000001 1906.0000000000002 4170.1 1908.2000000000003 L 4170.5 1914.3000000000002 C 4171 1922.5000000000002 4171.5 1930.7000000000003 4171.9 1938.9 C 4170.7 1942.7 4169.299999999999 1946.6000000000001 4167.299999999999 1950.4 C 4156.699999999999 1970.4 4136.099999999999 1983.4 4117.599999999999 1995.4 C 4088.0999999999995 2014.5 4056.1999999999994 2029.5 4034.2999999999993 2058.1 C 4018.5999999999995 2078.7 4008.2999999999993 2097.2999999999997 4007.1999999999994 2123.7 C 4006.899999999999 2131.3999999999996 4008.9999999999995 2140.8999999999996 4005.4999999999995 2147.8999999999996 C 4013.4999999999995 2143.8999999999996 4022.9999999999995 2141.2999999999997 4031.3999999999996 2137.3999999999996 C 4059.7999999999997 2123.9999999999995 4081.7 2103.2999999999997 4103 2080.5999999999995 C 4125.5 2056.6999999999994 4145.5 2025.9999999999995 4159 1996.1999999999994 C 4164.1 1984.7999999999993 4170.1 1971.8999999999994 4172.9 1958.9999999999993 C 4175.599999999999 2018.7999999999993 4174.7 2078.899999999999 4156 2135.5999999999995 C 4145.1 2140.0999999999995 4136.8 2158.2999999999993 4106.9 2182.3999999999996 C 4086.0999999999995 2199.0999999999995 4061.5999999999995 2209.3999999999996 4038.0999999999995 2222.3999999999996 C 4022.9999999999995 2230.7 3988.9999999999995 2241.8999999999996 3990.8999999999996 2263.7999999999997 C 4008.8999999999996 2259.6 4027.4999999999995 2259.7999999999997 4045.3999999999996 2253.8999999999996 C 4065.2999999999997 2247.3999999999996 4080.5999999999995 2240.5999999999995 4095.9999999999995 2226.0999999999995 C 4082.2999999999997 2249.6999999999994 4064.5999999999995 2271.4999999999995 4052.1999999999994 2295.8999999999996 C 4036.1999999999994 2327.2999999999997 4041.9999999999995 2369.8999999999996 4052.9999999999995 2402.2999999999997 C 4063.9999999999995 2395.8999999999996 4072.8999999999996 2385.9999999999995 4081.7999999999997 2377.1 C 4103.2 2355.6 4123.4 2323.9 4135.5 2296.1 C 4161 2237.2999999999997 4163.1 2163.7 4162.5 2141.2999999999997 C 4176.6 2099.9999999999995 4181.4 2057.2 4181.9 2013.9999999999998 C 4185.4 2022.4999999999998 4186.2 2032.1999999999998 4188.799999999999 2041.0999999999997 C 4197.299999999999 2070.8999999999996 4199.499999999999 2102.0999999999995 4207.599999999999 2132.0999999999995 C 4218.599999999999 2172.3999999999996 4223.599999999999 2214.0999999999995 4253.799999999999 2245.5999999999995 C 4273.699999999999 2266.2999999999993 4306.699999999999 2281.4999999999995 4335.299999999999 2280.5999999999995 C 4305.2 2237.5 4277.1 2192.3 4252.4 2146 z" stroke-linecap="round" />
</g>
		<g transform="matrix(0.05 0 0 0.05 2.68 73.87)"  >
<path style="stroke: none; stroke-width: 1; stroke-dasharray: none; stroke-linecap: butt; stroke-dashoffset: 0; stroke-linejoin: miter; stroke-miterlimit: 4; fill: rgb(168,117,177); fill-rule: nonzero; opacity: 1;" vector-effect="non-scaling-stroke"  transform=" translate(-2726.52, -3867.94)" d="M 2645.8 3718.8 C 2630.3 3710.2000000000003 2614.5 3701.2000000000003 2600 3690.7000000000003 C 2585.7 3674.8 2570.9 3659.3 2556.2 3644.0000000000005 L 2552 3639.6000000000004 C 2550.6 3638.1000000000004 2548.3 3638.0000000000005 2546.7 3639.2000000000003 C 2546.6 3639.3 2546.5 3639.4 2546.3999999999996 3639.5000000000005 C 2544.7999999999997 3641.0000000000005 2544.7999999999997 3643.5000000000005 2546.2999999999997 3645.1000000000004 L 2550.4999999999995 3649.5000000000005 C 2556.1999999999994 3655.4000000000005 2561.7999999999997 3661.3000000000006 2567.4999999999995 3667.3000000000006 C 2569.0999999999995 3671.0000000000005 2570.4999999999995 3674.8000000000006 2571.4999999999995 3679.100000000001 C 2576.3999999999996 3701.2000000000007 2569.0999999999995 3724.500000000001 2562.6999999999994 3745.600000000001 C 2552.5999999999995 3779.2000000000007 2537.899999999999 3811.400000000001 2539.7999999999993 3847.3000000000006 C 2541.0999999999995 3873.2000000000007 2545.2999999999993 3894.0000000000005 2561.499999999999 3914.8000000000006 C 2566.2999999999993 3920.9000000000005 2573.999999999999 3926.8000000000006 2575.7999999999993 3934.3000000000006 C 2579.2999999999993 3926.0000000000005 2584.899999999999 3918.0000000000005 2588.7999999999993 3909.5000000000005 C 2601.7999999999993 3880.9000000000005 2605.0999999999995 3851.0000000000005 2606.5999999999995 3819.8000000000006 C 2608.2999999999993 3787.0000000000005 2603.6999999999994 3750.7000000000007 2594.6999999999994 3719.2000000000007 C 2591.2999999999993 3707.2000000000007 2587.399999999999 3693.500000000001 2581.2999999999993 3681.8000000000006 C 2621.999999999999 3725.600000000001 2660.1999999999994 3772.0000000000005 2682.6999999999994 3827.5000000000005 C 2677.2999999999993 3838.0000000000005 2682.6999999999994 3857.3000000000006 2675.4999999999995 3895.0000000000005 C 2670.4999999999995 3921.2000000000003 2658.3999999999996 3944.8000000000006 2648.8999999999996 3970.0000000000005 C 2642.7999999999997 3986.1000000000004 2624.0999999999995 4016.6000000000004 2639.7 4032.0000000000005 C 2650.7 4017.1000000000004 2665 4005.3000000000006 2674.8999999999996 3989.2000000000003 C 2685.7999999999997 3971.4 2693.0999999999995 3956.3 2695.4999999999995 3935.3 C 2700.2999999999997 3962.2000000000003 2700.8999999999996 3990.2000000000003 2707.1999999999994 4016.9 C 2715.2999999999993 4051.2000000000003 2747.2999999999993 4079.9 2776.6999999999994 4097.5 C 2780.9999999999995 4085.5 2781.399999999999 4072.2 2782.399999999999 4059.6 C 2784.899999999999 4029.4 2779.7999999999993 3992.1 2770.899999999999 3963.1 C 2752.2999999999993 3901.7 2706.1999999999994 3844.2 2691.399999999999 3827.6 C 2675.499999999999 3787 2651.399999999999 3751.2 2623.899999999999 3717.9 C 2632.099999999999 3722.1 2638.999999999999 3729 2646.6999999999994 3734.1 C 2672.4999999999995 3751.2999999999997 2694.2999999999993 3773.7 2719.9999999999995 3791.2999999999997 C 2754.3999999999996 3814.8999999999996 2785.1999999999994 3843.4999999999995 2828.5999999999995 3847.9999999999995 C 2857.0999999999995 3850.8999999999996 2892.0999999999995 3841.1999999999994 2913.3999999999996 3821.9999999999995 C 2862.7 3808.6999999999994 2811.8999999999996 3792.3999999999996 2763.2 3772.9999999999995 C 2723.3 3757.4 2682.9 3739.3 2645.8 3718.8 z" stroke-linecap="round" />
</g>
		<g transform="matrix(0.05 0 0 0.05 -27.17 -36.57)"  >
<path style="stroke: none; stroke-width: 1; stroke-dasharray: none; stroke-linecap: butt; stroke-dashoffset: 0; stroke-linejoin: miter; stroke-miterlimit: 4; fill: rgb(168,117,177); fill-rule: nonzero; opacity: 1;" vector-effect="non-scaling-stroke"  transform=" translate(-2072.41, -1448.14)" d="M 2091.7 1405.8 C 2078 1429.3999999999999 2060.2999999999997 1451.2 2047.8999999999999 1475.6 C 2031.8999999999999 1507 2037.6999999999998 1549.6 2048.7999999999997 1582 C 2059.7999999999997 1575.6 2068.7 1565.7 2077.6 1556.8 C 2099 1535.3 2119.2 1503.6 2131.2999999999997 1475.8 C 2161.2 1406.8 2158.7999999999997 1317.3 2157.7999999999997 1314.3 C 2143.1 1313.6 2137.7999999999997 1333.8999999999999 2102.6 1362.2 C 2081.7999999999997 1378.9 2057.2999999999997 1389.2 2033.8 1402.2 C 2018.7 1410.5 1984.7 1421.7 1986.6 1443.6000000000001 C 2004.6 1439.4 2023.1999999999998 1439.6000000000001 2041.1 1433.7 C 2061 1427.1 2076.3 1420.3 2091.7 1405.8 z" stroke-linecap="round" />
</g>
		<g transform="matrix(0.47 -0.88 0.88 0.47 -174.66 -16.06)"  >
<path style="stroke: none; stroke-width: 1; stroke-dasharray: none; stroke-linecap: butt; stroke-dashoffset: 0; stroke-linejoin: miter; stroke-miterlimit: 4; fill: rgb(255,255,255); fill-rule: nonzero; opacity: 1;" vector-effect="non-scaling-stroke"  transform=" translate(0, 0)" d="" stroke-linecap="round" />
</g>
</g>
</g>
</svg>