<?xml version="1.0" encoding="UTF-8" standalone="no" ?>
<!DOCTYPE svg PUBLIC "-//W3C//DTD SVG 1.1//EN" "http://www.w3.org/Graphics/SVG/1.1/DTD/svg11.dtd">
<svg xmlns="http://www.w3.org/2000/svg" xmlns:xlink="http://www.w3.org/1999/xlink" version="1.1" width="1080" height="540" viewBox="0 0 1080 540" xml:space="preserve">
<desc>Created with Fabric.js 5.2.4</desc>
<defs>
</defs>
<g transform="matrix(1 0 0 1 540 540)" id="545c44d6-0bff-48b1-9a9b-380e19fb7d7f"  >
</g>
<g transform="matrix(1 0 0 1 540 540)" id="22e64e0c-bbef-4e70-bf95-af6c03da0f6f"  >
<rect style="stroke: none; stroke-width: 1; stroke-dasharray: none; stroke-linecap: butt; stroke-dashoffset: 0; stroke-linejoin: miter; stroke-miterlimit: 4; fill: rgb(255,255,255); fill-rule: nonzero; opacity: 1; visibility: hidden;" vector-effect="non-scaling-stroke"  x="-540" y="-540" rx="0" ry="0" width="1080" height="1080" />
</g>
<g transform="matrix(1 0 0 1 556.58 126.82)"  >
<g style="" vector-effect="non-scaling-stroke"   >
		<g transform="matrix(1 0 0 1 0 0)"  >
<rect style="stroke: none; stroke-width: 1; stroke-dasharray: none; stroke-linecap: butt; stroke-dashoffset: 0; stroke-linejoin: miter; stroke-miterlimit: 4; fill: rgb(255,255,255); fill-rule: nonzero; opacity: 1; visibility: hidden;" vector-effect="non-scaling-stroke"  x="-540" y="-540" rx="0" ry="0" width="1080" height="1080" />
</g>
		<g transform="matrix(0.47 -0.88 0.88 0.47 -174.65 -16.06)"  >
<path style="stroke: none; stroke-width: 1; stroke-dasharray: none; stroke-linecap: butt; stroke-dashoffset: 0; stroke-linejoin: miter; stroke-miterlimit: 4; fill: rgb(255,255,255); fill-rule: nonzero; opacity: 1;" vector-effect="non-scaling-stroke"  transform=" translate(0, 0)" d="" stroke-linecap="round" />
</g>
		<g transform="matrix(1 0 0 1 -7.65 160.5)"  >
<path style="stroke: none; stroke-width: 1; stroke-dasharray: none; stroke-linecap: butt; stroke-dashoffset: 0; stroke-linejoin: miter; stroke-miterlimit: 4; fill: rgb(255,255,255); fill-rule: nonzero; opacity: 1;" vector-effect="non-scaling-stroke"  transform=" translate(-236.47, -62.65)" d="M 9.98 83.92 L 9.98 83.92 Q 6.4 83.92 4.06 82.46 Q 1.72 81 0.58 78.93 Q -0.55 76.87 -0.55 74.99 L -0.55 74.99 Q -0.55 73.4 0.14 72.01 Q 0.82 70.63 2.61 69.77 Q 4.41 68.91 7.76 68.91 L 7.76 68.91 Q 7.49 70.35 7.41 71.7 Q 7.33 73.04 7.33 74.18 L 7.33 74.18 Q 7.33 76.71 8.21 78.31 Q 9.09 79.91 11.58 80.1 L 11.58 80.1 Q 13.77 80.1 15.7 77.78 Q 17.63 75.46 19.3 71.56 Q 20.98 67.66 22.42 62.87 Q 23.87 58.07 25.06 53.06 Q 26.25 48.05 27.22 43.52 Q 28.2 39 28.96 35.63 Q 29.72 32.25 30.26 30.81 L 30.26 30.81 Q 31.35 29.64 32.78 28.92 Q 34.2 28.2 36.42 28.2 L 36.42 28.2 Q 35.18 27.84 33.85 27.61 Q 32.52 27.38 31.08 27.38 L 31.08 27.38 Q 26.87 27.38 23.03 28.62 Q 19.19 29.87 16.22 31.94 Q 13.26 34.01 11.54 36.48 Q 9.83 38.96 9.83 41.46 L 9.83 41.46 Q 9.83 43.6 11.29 45.55 Q 12.75 47.5 16.07 48.94 L 16.07 48.94 Q 16.07 50.07 15.89 51.48 Q 15.72 52.88 15.44 54.03 Q 15.17 55.18 14.94 55.49 L 14.94 55.49 Q 8.46 52.84 5.56 49.18 Q 2.65 45.51 2.65 41.69 L 2.65 41.69 Q 2.65 38.1 4.86 34.69 Q 7.06 31.28 11 28.53 Q 14.94 25.78 20.28 24.14 Q 25.62 22.5 31.86 22.5 L 31.86 22.5 Q 35.41 22.5 39.35 23.22 Q 43.29 23.95 47.29 24.67 Q 51.28 25.39 55.03 25.39 L 55.03 25.39 Q 58.58 25.39 61.44 24.1 Q 64.31 22.81 66.3 22.27 L 66.3 22.27 Q 64.85 27.18 60.95 30.01 Q 57.05 32.84 51.91 32.84 L 51.91 32.84 Q 48.63 32.84 45.65 31.63 Q 42.66 30.42 39.62 29.33 L 39.62 29.33 Q 38.65 34.01 37.54 39.84 Q 36.42 45.67 34.92 51.81 Q 33.42 57.95 31.32 63.67 Q 29.21 69.38 26.27 73.96 Q 23.32 78.54 19.32 81.23 Q 15.33 83.92 9.98 83.92 Z M 65.21 82.83 L 65.21 82.83 Q 63.72 82.83 63.22 81.92 Q 62.71 81 62.71 79.87 L 62.71 79.87 Q 62.71 79.52 62.77 79.07 Q 62.83 78.62 62.87 78.27 L 62.87 78.27 Q 62.98 77.22 63.67 74.92 Q 64.35 72.62 65.19 69.69 Q 66.02 66.77 66.65 63.78 Q 67.27 60.8 67.27 58.38 L 67.27 58.38 Q 67.27 56.16 65.05 56.16 L 65.05 56.16 Q 63.26 56.16 61.34 57.58 Q 59.43 59 57.68 61.33 Q 55.92 63.65 54.56 66.41 Q 53.19 69.18 52.49 71.87 L 52.49 71.87 Q 51.52 75.7 50.66 78.13 Q 49.8 80.57 48.44 81.7 L 48.44 81.7 L 42.35 81.7 Q 42.51 80.61 43.23 77.55 Q 43.95 74.49 45.02 70.2 Q 46.1 65.91 47.36 61.09 Q 48.63 56.27 49.88 51.61 Q 51.13 46.95 52.14 43.13 Q 53.15 39.31 53.78 37.03 Q 54.4 34.75 54.4 34.75 L 54.4 34.75 Q 55.42 31.04 56.2 29 Q 56.98 26.95 57.87 26.03 Q 58.77 25.12 60.08 24.9 Q 61.38 24.69 63.45 24.69 L 63.45 24.69 Q 63.92 24.69 64.43 24.71 Q 64.93 24.73 65.21 24.84 L 65.21 24.84 L 54.99 61.81 Q 56.82 58.42 59.55 55.48 Q 62.28 52.53 65.44 50.74 Q 68.6 48.94 71.68 48.94 L 71.68 48.94 Q 75.5 48.94 75.5 53.51 L 75.5 53.51 Q 75.5 54.87 74.74 57.25 Q 73.98 59.63 72.99 62.44 Q 71.99 65.24 71.23 67.94 Q 70.47 70.63 70.47 72.62 L 70.47 72.62 Q 70.47 72.62 70.57 73.2 Q 70.67 73.79 71.21 73.79 L 71.21 73.79 Q 71.52 73.79 72.56 72.81 Q 73.59 71.84 75.07 70.33 Q 76.55 68.83 78.19 67.23 Q 79.83 65.63 81.27 64.39 L 81.27 64.39 L 81.27 68.75 Q 79.87 70.35 77.72 72.71 Q 75.58 75.07 73.22 77.39 Q 70.86 79.71 68.72 81.27 Q 66.57 82.83 65.21 82.83 Z M 80.8 82.83 L 80.8 82.83 Q 78.93 82.83 78.15 81.18 Q 77.37 79.52 77.37 77.72 L 77.37 77.72 Q 77.37 76.48 77.82 74 Q 78.27 71.52 78.95 68.54 Q 79.63 65.56 80.4 62.61 Q 81.16 59.67 81.8 57.43 Q 82.44 55.18 82.79 54.32 L 82.79 54.32 Q 83.61 52.22 84.8 51.38 Q 85.99 50.54 87.63 50.39 Q 89.27 50.23 91.41 50.23 L 91.41 50.23 Q 91.02 51.56 90.28 53.97 Q 89.54 56.39 88.68 59.34 Q 87.82 62.28 87.04 65.19 Q 86.26 68.09 85.76 70.43 Q 85.25 72.77 85.25 73.94 L 85.25 73.94 Q 85.25 74.49 85.5 75.5 Q 85.76 76.52 86.62 76.52 L 86.62 76.52 Q 87.08 76.52 88.74 75.07 Q 90.4 73.63 92.5 71.58 Q 94.61 69.53 96.48 67.58 Q 98.35 65.63 99.25 64.62 L 99.25 64.62 L 99.25 68.99 Q 92.66 75.46 88.53 79.05 Q 84.39 82.64 80.8 82.83 Z M 91.3 40.99 L 91.3 40.99 Q 89.66 40.99 88.96 40.07 Q 88.25 39.15 88.25 37.95 L 88.25 37.95 Q 88.25 36.62 88.94 35.2 Q 89.62 33.77 90.85 32.78 Q 92.08 31.78 93.67 31.78 L 93.67 31.78 Q 95.98 31.78 96.99 32.7 Q 98 33.62 98 34.83 L 98 34.83 Q 98 36.15 97.07 37.59 Q 96.13 39.04 94.61 40.01 Q 93.09 40.99 91.3 40.99 Z M 114.77 82.83 L 114.77 82.83 Q 112.74 82.83 112.2 81.78 Q 111.65 80.73 111.65 79.87 L 111.65 79.87 Q 111.65 76.75 112.53 73.55 Q 113.41 70.35 114.58 67.43 Q 115.75 64.5 116.62 62.12 Q 117.5 59.75 117.5 58.3 L 117.5 58.3 Q 117.5 57.29 117.03 56.72 Q 116.57 56.16 115.98 56.16 L 115.98 56.16 Q 114.07 56.16 112.12 58.19 Q 110.17 60.21 108.36 63.41 Q 106.54 66.61 105.04 70.16 Q 103.54 73.71 102.51 76.81 Q 101.47 79.91 101.05 81.7 L 101.05 81.7 L 93.6 81.7 Q 93.64 79.91 94.08 77.02 Q 94.53 74.14 95.29 70.76 Q 96.05 67.39 96.91 64.04 Q 97.77 60.68 98.63 57.85 Q 99.49 55.03 100.15 53.35 L 100.15 53.35 Q 100.93 51.28 102.45 50.76 Q 103.97 50.23 106 50.23 L 106 50.23 L 108.61 50.23 Q 108.61 50.23 108.16 51.79 Q 107.71 53.35 107.03 55.69 Q 106.35 58.03 105.63 60.39 Q 104.91 62.75 104.4 64.39 L 104.4 64.39 Q 105.57 62.2 107.54 59.55 Q 109.51 56.9 112 54.48 Q 114.5 52.06 117.23 50.5 Q 119.96 48.94 122.61 48.94 L 122.61 48.94 Q 126.43 48.94 126.43 53.51 L 126.43 53.51 Q 126.43 54.71 125.89 56.82 Q 125.34 58.93 124.52 61.4 Q 123.7 63.88 122.86 66.28 Q 122.03 68.68 121.48 70.49 Q 120.93 72.3 120.93 73.01 L 120.93 73.01 Q 120.93 73.71 121.4 73.71 L 121.4 73.71 Q 121.91 73.71 122.77 73.16 L 122.77 73.16 Q 123.27 72.81 124.48 71.7 Q 125.69 70.59 127.15 69.18 Q 128.62 67.78 129.92 66.53 Q 131.23 65.28 131.93 64.7 L 131.93 64.7 L 131.93 69.07 Q 131 70 129.28 71.66 Q 127.56 73.32 125.46 75.25 Q 123.35 77.18 121.27 78.89 Q 119.18 80.61 117.44 81.72 Q 115.71 82.83 114.77 82.83 Z M 150.65 82.83 L 150.65 82.83 Q 148.43 82.83 147.71 81.18 Q 146.99 79.52 146.99 77.3 L 146.99 77.3 Q 146.99 75.35 147.26 73.3 Q 147.53 71.25 147.53 69.89 L 147.53 69.89 Q 147.53 68.83 146.91 68.11 Q 146.28 67.39 144.43 67 Q 142.58 66.61 138.91 66.61 L 138.91 66.61 L 138.68 67.66 Q 138.64 67.94 138.21 69.75 Q 137.78 71.56 137.06 73.98 Q 136.34 76.4 135.38 78.56 Q 134.43 80.73 133.3 81.7 L 133.3 81.7 L 127.25 81.7 Q 127.37 80.61 128.09 77.55 Q 128.81 74.49 129.9 70.2 Q 131 65.91 132.26 61.09 Q 133.53 56.27 134.76 51.61 Q 135.99 46.95 137.02 43.13 Q 138.05 39.31 138.68 37.03 Q 139.3 34.75 139.3 34.75 L 139.3 34.75 Q 140.32 31.04 141.08 29 Q 141.84 26.95 142.73 26.03 Q 143.63 25.12 144.94 24.9 Q 146.24 24.69 148.31 24.69 L 148.31 24.69 Q 148.82 24.69 149.31 24.71 Q 149.79 24.73 150.07 24.84 L 150.07 24.84 Q 149.36 27.34 148.27 31.18 Q 147.18 35.02 145.95 39.21 Q 144.72 43.41 143.63 47.09 Q 142.54 50.78 141.86 53.1 Q 141.17 55.42 141.21 55.42 L 141.21 55.42 Q 144.22 51.87 147.73 50.41 Q 151.24 48.94 154.79 48.94 L 154.79 48.94 Q 157.12 48.94 158.55 50.56 Q 159.97 52.18 159.97 54.48 L 159.97 54.48 Q 159.97 57.83 158.45 59.71 Q 156.93 61.58 154.22 62.73 Q 151.51 63.88 148 65.17 L 148 65.17 Q 150.85 65.17 152.21 66.1 Q 153.58 67.04 153.99 68.48 Q 154.4 69.92 154.4 71.48 L 154.4 71.48 Q 154.4 72.23 154.36 72.97 Q 154.32 73.71 154.32 74.37 L 154.32 74.37 Q 154.32 75.31 154.47 76.14 Q 154.63 76.98 155.02 76.98 L 155.02 76.98 Q 155.29 76.98 155.68 76.59 L 155.68 76.59 Q 155.88 76.4 157.24 75.05 Q 158.61 73.71 160.54 71.8 Q 162.47 69.89 164.42 67.94 Q 166.37 65.99 167.73 64.54 L 167.73 64.54 L 167.73 68.91 Q 163.4 73.16 160.63 75.89 Q 157.87 78.62 156.09 80.12 Q 154.32 81.62 153.09 82.23 Q 151.86 82.83 150.65 82.83 Z M 139.15 63.88 L 139.15 63.88 L 141.76 63.88 Q 143.28 63.88 145.21 63.45 Q 147.14 63.02 148.94 62.14 Q 150.73 61.27 151.88 59.86 Q 153.03 58.46 153.03 56.47 L 153.03 56.47 Q 153.03 52.8 149.99 52.8 L 149.99 52.8 Q 148.94 52.8 147.22 53.86 Q 145.5 54.91 143.71 56.61 Q 141.92 58.3 140.63 60.23 Q 139.34 62.16 139.15 63.88 Z M 167.07 82.83 L 167.07 82.83 Q 165.2 82.83 164.42 81.18 Q 163.64 79.52 163.64 77.72 L 163.64 77.72 Q 163.64 76.48 164.09 74 Q 164.53 71.52 165.22 68.54 Q 165.9 65.56 166.66 62.61 Q 167.42 59.67 168.06 57.43 Q 168.71 55.18 169.06 54.32 L 169.06 54.32 Q 169.88 52.22 171.07 51.38 Q 172.26 50.54 173.89 50.39 Q 175.53 50.23 177.68 50.23 L 177.68 50.23 Q 177.29 51.56 176.55 53.97 Q 175.81 56.39 174.95 59.34 Q 174.09 62.28 173.31 65.19 Q 172.53 68.09 172.02 70.43 Q 171.52 72.77 171.52 73.94 L 171.52 73.94 Q 171.52 74.49 171.77 75.5 Q 172.02 76.52 172.88 76.52 L 172.88 76.52 Q 173.35 76.52 175.01 75.07 Q 176.66 73.63 178.77 71.58 Q 180.88 69.53 182.75 67.58 Q 184.62 65.63 185.52 64.62 L 185.52 64.62 L 185.52 68.99 Q 178.93 75.46 174.79 79.05 Q 170.66 82.64 167.07 82.83 Z M 177.56 40.99 L 177.56 40.99 Q 175.92 40.99 175.22 40.07 Q 174.52 39.15 174.52 37.95 L 174.52 37.95 Q 174.52 36.62 175.2 35.2 Q 175.88 33.77 177.11 32.78 Q 178.34 31.78 179.94 31.78 L 179.94 31.78 Q 182.24 31.78 183.25 32.7 Q 184.27 33.62 184.27 34.83 L 184.27 34.83 Q 184.27 36.15 183.33 37.59 Q 182.4 39.04 180.88 40.01 Q 179.35 40.99 177.56 40.99 Z M 201.04 82.83 L 201.04 82.83 Q 199.01 82.83 198.46 81.78 Q 197.92 80.73 197.92 79.87 L 197.92 79.87 Q 197.92 76.75 198.79 73.55 Q 199.67 70.35 200.84 67.43 Q 202.01 64.5 202.89 62.12 Q 203.77 59.75 203.77 58.3 L 203.77 58.3 Q 203.77 57.29 203.3 56.72 Q 202.83 56.16 202.25 56.16 L 202.25 56.16 Q 200.34 56.16 198.39 58.19 Q 196.44 60.21 194.62 63.41 Q 192.81 66.61 191.31 70.16 Q 189.81 73.71 188.77 76.81 Q 187.74 79.91 187.31 81.7 L 187.31 81.7 L 179.86 81.7 Q 179.9 79.91 180.35 77.02 Q 180.8 74.14 181.56 70.76 Q 182.32 67.39 183.18 64.04 Q 184.03 60.68 184.89 57.85 Q 185.75 55.03 186.41 53.35 L 186.41 53.35 Q 187.19 51.28 188.71 50.76 Q 190.23 50.23 192.26 50.23 L 192.26 50.23 L 194.88 50.23 Q 194.88 50.23 194.43 51.79 Q 193.98 53.35 193.3 55.69 Q 192.61 58.03 191.89 60.39 Q 191.17 62.75 190.66 64.39 L 190.66 64.39 Q 191.83 62.2 193.8 59.55 Q 195.77 56.9 198.27 54.48 Q 200.76 52.06 203.49 50.5 Q 206.22 48.94 208.88 48.94 L 208.88 48.94 Q 212.7 48.94 212.7 53.51 L 212.7 53.51 Q 212.7 54.71 212.15 56.82 Q 211.61 58.93 210.79 61.4 Q 209.97 63.88 209.13 66.28 Q 208.29 68.68 207.74 70.49 Q 207.2 72.3 207.2 73.01 L 207.2 73.01 Q 207.2 73.71 207.67 73.71 L 207.67 73.71 Q 208.17 73.71 209.03 73.16 L 209.03 73.16 Q 209.54 72.81 210.75 71.7 Q 211.96 70.59 213.42 69.18 Q 214.88 67.78 216.19 66.53 Q 217.49 65.28 218.2 64.7 L 218.2 64.7 L 218.2 69.07 Q 217.26 70 215.54 71.66 Q 213.83 73.32 211.72 75.25 Q 209.62 77.18 207.53 78.89 Q 205.44 80.61 203.71 81.72 Q 201.97 82.83 201.04 82.83 Z M 225.33 103.03 L 225.33 103.03 Q 223.7 103.03 222 102.43 Q 220.3 101.83 219.13 100.58 Q 217.96 99.33 217.96 97.42 L 217.96 97.42 Q 217.96 95.27 219.83 93.65 Q 221.71 92.04 224.05 90.24 L 224.05 90.24 L 234.85 81.94 L 236.1 75.31 Q 232.55 78.46 229.95 80.08 Q 227.36 81.7 225.29 82.27 Q 223.23 82.83 221.16 82.83 L 221.16 82.83 Q 219.44 82.83 218.27 81.64 Q 217.1 80.45 216.5 78.64 Q 215.9 76.83 215.9 74.99 L 215.9 74.99 Q 215.9 70.63 217.49 66.04 Q 219.09 61.46 222.02 57.58 Q 224.94 53.7 228.96 51.32 Q 232.98 48.94 237.77 48.94 L 237.77 48.94 Q 240.19 48.94 243.57 49.47 Q 246.94 50 249.43 50.46 L 249.43 50.46 L 243.47 75.7 Q 245.92 73.4 247.76 71.66 Q 249.59 69.92 251.29 68.23 Q 252.98 66.53 254.89 64.35 L 254.89 64.35 L 254.89 68.87 Q 252.01 72.07 248.87 75.05 Q 245.73 78.04 242.65 80.8 L 242.65 80.8 Q 241.44 87.67 238.55 92.66 Q 235.67 97.65 232.12 100.34 Q 228.57 103.03 225.33 103.03 Z M 228.22 76.59 L 228.22 76.59 Q 231.57 76.59 236.68 70.82 L 236.68 70.82 L 241.21 51.83 Q 239.76 51.48 238.94 51.3 Q 238.12 51.13 237.38 51.13 L 237.38 51.13 Q 234.65 51.13 232.31 52.8 Q 229.97 54.48 228.2 57.17 Q 226.43 59.86 225.43 63 Q 224.44 66.14 224.44 69.07 L 224.44 69.07 Q 224.44 72.89 225.45 74.74 Q 226.46 76.59 228.22 76.59 Z M 226.54 100.89 L 226.54 100.89 Q 228.73 100.89 230.31 98.94 Q 231.89 96.99 232.88 93.67 Q 233.87 90.36 234.34 86.26 L 234.34 86.26 L 227.95 91.69 Q 226.58 92.82 225.12 94.12 Q 223.66 95.43 223.66 98.24 L 223.66 98.24 Q 223.66 99.8 224.38 100.34 Q 225.1 100.89 226.54 100.89 Z M 256.34 82.83 L 256.34 82.83 Q 253.88 82.83 252.57 81.19 Q 251.27 79.56 250.8 77.26 Q 250.33 74.96 250.33 72.93 L 250.33 72.93 Q 250.33 68.6 252.38 64.35 Q 254.43 60.1 258.01 56.61 Q 261.6 53.12 266.26 51.03 Q 270.92 48.94 276.11 48.94 L 276.11 48.94 Q 277.86 48.94 279.42 49.31 Q 280.98 49.68 282.66 50.23 L 282.66 50.23 Q 282.58 50.7 282.12 52.75 Q 281.65 54.79 281.02 57.64 Q 280.4 60.49 279.79 63.41 Q 279.19 66.34 278.78 68.66 Q 278.37 70.98 278.37 71.95 L 278.37 71.95 Q 278.37 74.45 279.54 74.45 L 279.54 74.45 Q 280.59 74.45 282.41 73.01 Q 284.22 71.56 286.56 69.18 Q 288.9 66.8 291.47 63.96 L 291.47 63.96 L 291.47 68.44 Q 290.54 69.57 288.76 71.35 Q 286.99 73.12 284.77 75.11 Q 282.54 77.1 280.3 78.85 Q 278.06 80.61 276.13 81.72 Q 274.2 82.83 273.03 82.83 L 273.03 82.83 Q 271.27 82.83 270.67 81.25 Q 270.06 79.67 270.06 77.72 L 270.06 77.72 Q 270.06 76.71 270.16 75.72 Q 270.26 74.72 270.38 73.94 L 270.38 73.94 Q 268.78 76.01 266.55 78.07 Q 264.33 80.14 261.72 81.49 Q 259.11 82.83 256.34 82.83 Z M 262.46 76.59 L 262.46 76.59 Q 263.67 76.59 265.21 75.7 Q 266.75 74.8 268.27 73.51 Q 269.79 72.23 270.84 71.09 L 270.84 71.09 L 275.33 51.91 Q 272.05 51.91 269.05 53.66 Q 266.05 55.42 263.71 58.24 Q 261.37 61.07 260 64.37 Q 258.64 67.66 258.64 70.74 L 258.64 70.74 Q 258.64 73.01 259.48 74.8 Q 260.31 76.59 262.46 76.59 Z M 292.29 82.83 L 292.29 82.83 Q 289.52 82.83 288.59 80.9 Q 287.65 78.97 287.65 76.36 L 287.65 76.36 Q 287.65 74.18 288.04 72.09 Q 288.43 70 288.67 68.75 L 288.67 68.75 Q 289.1 66.61 289.39 65.28 Q 289.68 63.96 290.03 62.61 Q 290.38 61.27 290.93 59.08 Q 291.47 56.9 292.37 53.04 L 292.37 53.04 Q 291.16 53.04 289.95 52.92 Q 288.74 52.8 288.74 51.36 L 288.74 51.36 Q 288.74 50.93 288.92 50.68 Q 289.1 50.43 290.19 50.31 L 290.19 50.31 L 293.46 50 Q 294.87 45.39 296.39 41.61 Q 297.91 37.83 300.29 35.57 Q 302.67 33.3 306.65 33.3 L 306.65 33.3 L 306.8 33.46 Q 306.8 33.62 306.18 35.37 Q 305.55 37.13 304.64 39.74 Q 303.72 42.35 302.8 45.12 Q 301.89 47.89 301.3 50 L 301.3 50 L 313.2 49.45 L 312.34 50.85 Q 311.91 51.67 309.82 52.06 Q 307.74 52.45 305.16 52.55 Q 302.59 52.65 300.68 52.65 L 300.68 52.65 Q 300.64 52.65 300.17 54.38 Q 299.7 56.12 299 58.77 Q 298.3 61.42 297.6 64.25 Q 296.9 67.08 296.43 69.38 Q 295.96 71.68 295.96 72.62 L 295.96 72.62 Q 295.96 74.06 296.23 75.13 Q 296.51 76.2 297.87 76.2 L 297.87 76.2 Q 298.61 76.2 300.72 74.64 Q 302.82 73.08 305.94 70.33 Q 309.06 67.58 312.73 64.11 L 312.73 64.11 L 312.73 68.44 Q 310.62 70.7 308.05 73.22 Q 305.48 75.74 302.73 77.92 Q 299.98 80.1 297.31 81.47 Q 294.63 82.83 292.29 82.83 Z M 320.65 81.7 L 312.73 81.7 Q 312.07 81.7 311.87 81.08 Q 311.68 80.45 311.68 79.95 L 311.68 79.95 Q 311.68 78.5 312.03 76.77 Q 312.38 75.03 312.73 73.47 L 312.73 73.47 Q 313.86 68.09 315.4 62.65 Q 316.94 57.21 318.31 51.91 L 318.31 51.91 Q 320.02 45.24 321.07 41.1 Q 322.13 36.97 322.69 34.73 Q 323.26 32.49 323.49 31.59 Q 323.73 30.69 323.84 30.5 L 323.84 30.5 Q 322.67 31.43 320.7 32.91 Q 318.73 34.4 316.55 35.88 Q 314.37 37.36 312.55 38.37 Q 310.74 39.39 309.84 39.39 L 309.84 39.39 Q 308.83 39 308.83 37.87 L 308.83 37.87 Q 308.83 37.13 309.59 36.42 Q 310.35 35.72 311.21 35.22 L 311.21 35.22 Q 316.78 31.67 321.8 28.61 Q 326.81 25.54 332.15 22.85 L 332.15 22.85 Q 332.74 22.5 333.24 22.5 L 333.24 22.5 Q 333.79 22.5 334 22.93 Q 334.22 23.36 334.22 23.95 L 334.22 23.95 Q 334.22 24.69 334.14 25.08 L 334.14 25.08 L 323.34 73.08 Q 323.18 74.53 322.93 76.55 Q 322.67 78.58 322.15 80.14 Q 321.62 81.7 320.65 81.7 L 320.65 81.7 Z M 338.58 82.83 L 338.58 82.83 Q 337.8 82.83 336.83 82.5 Q 335.86 82.17 335.86 81.23 L 335.86 81.23 Q 335.86 80.38 336.81 79.24 Q 337.77 78.11 338.51 77.45 L 338.51 77.45 Q 341.51 74.57 345.27 71.17 Q 349.04 67.78 352.84 63.96 Q 356.64 60.14 359.84 55.94 Q 363.04 51.75 364.99 47.21 Q 366.94 42.66 366.94 37.87 L 366.94 37.87 Q 366.94 32.29 365.32 29.52 Q 363.7 26.75 360 26.75 L 360 26.75 Q 358.12 26.75 355.88 27.71 Q 353.64 28.66 351.61 30.61 Q 349.58 32.56 348.28 35.59 Q 346.97 38.61 346.97 42.74 L 346.97 42.74 Q 348.26 44.58 349.56 45.34 Q 350.87 46.1 351.75 46.66 Q 352.62 47.23 352.62 48.48 L 352.62 48.48 Q 352.62 48.98 352.21 49.65 Q 351.81 50.31 350.71 50.31 L 350.71 50.31 Q 350.13 50.31 348.37 49.29 Q 346.62 48.28 344.59 46.86 Q 342.56 45.43 341.1 44.19 Q 339.64 42.94 339.64 42.47 L 339.64 42.47 Q 339.64 36.07 342.23 31.63 Q 344.82 27.18 349.15 24.84 Q 353.48 22.5 358.63 22.5 L 358.63 22.5 Q 363.23 22.5 366.33 23.69 Q 369.43 24.88 371.34 26.75 Q 373.25 28.62 374.25 30.69 Q 375.24 32.76 375.59 34.55 Q 375.95 36.35 375.95 37.36 L 375.95 37.36 Q 375.95 41.88 374.03 46.35 Q 372.12 50.82 369.06 54.97 Q 366 59.12 362.47 62.75 Q 358.94 66.38 355.61 69.22 Q 352.27 72.07 349.86 73.92 Q 347.44 75.77 346.66 76.36 L 346.66 76.36 Q 350.95 75.7 355.43 74.55 Q 359.92 73.4 364.28 73.4 L 364.28 73.4 Q 365.49 73.4 366.84 73.55 Q 368.18 73.71 369.12 74.27 Q 370.06 74.84 370.06 76.05 L 370.06 76.05 Q 370.06 77.02 369.57 78.62 Q 369.08 80.22 368.26 81.53 Q 367.44 82.83 366.39 82.83 L 366.39 82.83 Q 363.43 82.83 360.72 82.31 Q 358.01 81.78 355.12 81.78 L 355.12 81.78 Q 350.99 81.78 346.85 82.31 Q 342.72 82.83 338.58 82.83 Z M 386.24 82.83 L 386.24 82.83 Q 383.78 82.83 382.48 81.19 Q 381.17 79.56 380.7 77.26 Q 380.24 74.96 380.24 72.93 L 380.24 72.93 Q 380.24 68.6 382.28 64.35 Q 384.33 60.1 387.92 56.61 Q 391.51 53.12 396.17 51.03 Q 400.83 48.94 406.01 48.94 L 406.01 48.94 Q 407.77 48.94 409.33 49.31 Q 410.89 49.68 412.57 50.23 L 412.57 50.23 Q 412.49 50.7 412.02 52.75 Q 411.55 54.79 410.93 57.64 Q 410.3 60.49 409.7 63.41 Q 409.09 66.34 408.68 68.66 Q 408.28 70.98 408.28 71.95 L 408.28 71.95 Q 408.28 74.45 409.45 74.45 L 409.45 74.45 Q 410.5 74.45 412.31 73.01 Q 414.13 71.56 416.46 69.18 Q 418.8 66.8 421.38 63.96 L 421.38 63.96 L 421.38 68.44 Q 420.44 69.57 418.67 71.35 Q 416.89 73.12 414.67 75.11 Q 412.45 77.1 410.21 78.85 Q 407.96 80.61 406.03 81.72 Q 404.1 82.83 402.93 82.83 L 402.93 82.83 Q 401.18 82.83 400.57 81.25 Q 399.97 79.67 399.97 77.72 L 399.97 77.72 Q 399.97 76.71 400.07 75.72 Q 400.16 74.72 400.28 73.94 L 400.28 73.94 Q 398.68 76.01 396.46 78.07 Q 394.24 80.14 391.62 81.49 Q 389.01 82.83 386.24 82.83 Z M 392.36 76.59 L 392.36 76.59 Q 393.57 76.59 395.11 75.7 Q 396.65 74.8 398.17 73.51 Q 399.7 72.23 400.75 71.09 L 400.75 71.09 L 405.23 51.91 Q 401.96 51.91 398.95 53.66 Q 395.95 55.42 393.61 58.24 Q 391.27 61.07 389.91 64.37 Q 388.54 67.66 388.54 70.74 L 388.54 70.74 Q 388.54 73.01 389.38 74.8 Q 390.22 76.59 392.36 76.59 Z M 456.09 82.91 L 456.09 82.91 Q 453.79 82.91 453.79 79.48 L 453.79 79.48 Q 453.79 76.79 454.61 74.14 Q 455.42 71.48 456.5 68.93 Q 457.57 66.38 458.39 63.88 Q 459.21 61.38 459.21 59 L 459.21 59 Q 459.21 57.99 458.49 57.07 Q 457.76 56.16 456.63 56.16 L 456.63 56.16 Q 454.61 56.16 452.66 58.24 Q 450.71 60.33 448.95 63.57 Q 447.2 66.8 445.73 70.37 Q 444.27 73.94 443.26 77 Q 442.24 80.06 441.77 81.7 L 441.77 81.7 L 434.29 81.7 Q 434.29 77.8 435.26 74.04 Q 436.24 70.28 437.45 66.55 Q 438.66 62.83 439.32 59.16 L 439.32 59.16 Q 439.4 58.93 439.4 58.69 Q 439.4 58.46 439.4 58.3 L 439.4 58.3 Q 439.4 57.17 438.83 56.59 Q 438.27 56 437.56 56 L 437.56 56 Q 437.21 56 436.74 56.16 L 436.74 56.16 Q 434.56 57.17 432.63 59.57 Q 430.7 61.97 429.04 65.11 Q 427.38 68.25 426.1 71.48 Q 424.81 74.72 423.95 77.45 Q 423.09 80.18 422.7 81.7 L 422.7 81.7 L 415.26 81.7 Q 415.37 79.95 415.86 76.85 Q 416.35 73.75 417.09 70.06 Q 417.83 66.38 418.73 62.79 Q 419.62 59.2 420.54 56.33 Q 421.46 53.47 422.31 52.14 L 422.31 52.14 Q 423.09 50.82 424.89 50.52 Q 426.68 50.23 430.35 50.23 L 430.35 50.23 Q 429.65 53.78 428.34 57.44 Q 427.03 61.11 426.06 64.54 L 426.06 64.54 Q 427.38 62.24 429.2 59.55 Q 431.01 56.86 433.25 54.46 Q 435.5 52.06 438.13 50.54 Q 440.76 49.02 443.72 49.02 L 443.72 49.02 Q 444.89 49.02 445.54 49.94 Q 446.18 50.85 446.45 52.06 Q 446.73 53.27 446.73 54.21 L 446.73 54.21 Q 446.73 56.82 446.06 59.47 Q 445.4 62.12 444.66 64.54 L 444.66 64.54 Q 445.91 62.05 447.84 59.34 Q 449.77 56.63 452.15 54.27 Q 454.53 51.91 457.16 50.43 Q 459.79 48.94 462.41 48.94 L 462.41 48.94 Q 464.98 48.94 465.88 50.66 Q 466.77 52.37 466.77 54.95 L 466.77 54.95 Q 466.77 57.56 466.25 60.31 Q 465.72 63.06 465 65.46 Q 464.28 67.86 463.69 69.5 Q 463.11 71.13 463.03 71.56 L 463.03 71.56 Q 462.99 71.91 462.93 72.21 Q 462.87 72.5 462.87 72.69 L 462.87 72.69 Q 462.87 73.55 463.34 73.55 L 463.34 73.55 Q 464.36 73.55 467.01 70.94 Q 469.66 68.33 473.48 64.54 L 473.48 64.54 L 473.48 68.95 Q 471.57 71.17 469.03 73.61 Q 466.5 76.05 463.93 78.15 Q 461.35 80.26 459.25 81.58 Q 457.14 82.91 456.09 82.91 Z" stroke-linecap="round" />
</g>
</g>
</g>
</svg>